<?xml version="1.0" encoding="utf-8"?>
<!-- Generator: Adobe Illustrator 15.0.2, SVG Export Plug-In . SVG Version: 6.00 Build 0)  -->
<!DOCTYPE svg PUBLIC "-//W3C//DTD SVG 1.0//EN" "http://www.w3.org/TR/2001/REC-SVG-20010904/DTD/svg10.dtd">
<svg version="1.0" id="LCVB-logo" xmlns="http://www.w3.org/2000/svg" xmlns:xlink="http://www.w3.org/1999/xlink" x="0px" y="0px"
	 width="198.425px" height="49.671px" viewBox="0 0 198.425 49.671" enable-background="new 0 0 198.425 49.671"
	 xml:space="preserve">
<g>
	<g>
		<path fill="#181716" d="M23.497,22.806c0,0.098-0.006,0.181-0.019,0.249s-0.028,0.122-0.049,0.163s-0.046,0.07-0.077,0.089
			c-0.03,0.019-0.062,0.027-0.095,0.027h-0.699l-0.209,1.748h0.602c0.069,0,0.126,0.04,0.169,0.12
			c0.043,0.08,0.064,0.214,0.064,0.402c0,0.099-0.007,0.182-0.019,0.252c-0.013,0.069-0.029,0.124-0.05,0.165
			s-0.046,0.07-0.076,0.089c-0.031,0.019-0.062,0.027-0.095,0.027h-0.73l-0.227,1.92c-0.004,0.037-0.016,0.068-0.034,0.096
			c-0.019,0.026-0.051,0.05-0.098,0.07s-0.11,0.034-0.19,0.043c-0.079,0.008-0.181,0.012-0.304,0.012
			c-0.131,0-0.236-0.004-0.315-0.012c-0.08-0.009-0.141-0.022-0.181-0.043c-0.041-0.021-0.069-0.044-0.083-0.07
			c-0.015-0.027-0.02-0.059-0.016-0.096l0.233-1.92h-1.374l-0.228,1.92c-0.004,0.033-0.015,0.063-0.033,0.092
			c-0.019,0.029-0.05,0.054-0.095,0.074c-0.046,0.021-0.107,0.034-0.188,0.043c-0.079,0.008-0.185,0.012-0.315,0.012
			c-0.127,0-0.229-0.004-0.307-0.012c-0.078-0.009-0.139-0.022-0.182-0.043s-0.071-0.044-0.086-0.07
			c-0.014-0.027-0.018-0.059-0.009-0.096l0.221-1.92h-0.583c-0.069,0-0.125-0.038-0.168-0.116c-0.043-0.077-0.064-0.213-0.064-0.404
			c0-0.099,0.006-0.183,0.019-0.252c0.012-0.069,0.028-0.125,0.049-0.166s0.045-0.07,0.073-0.089
			c0.029-0.019,0.062-0.028,0.099-0.028h0.711l0.209-1.748h-0.62c-0.069,0-0.125-0.039-0.168-0.116s-0.064-0.212-0.064-0.405
			c0-0.196,0.022-0.333,0.067-0.411s0.103-0.116,0.172-0.116h0.735l0.221-1.791c0-0.037,0.011-0.068,0.031-0.095
			c0.021-0.026,0.055-0.05,0.104-0.07c0.049-0.021,0.114-0.036,0.196-0.046c0.081-0.01,0.186-0.016,0.312-0.016
			s0.229,0.005,0.307,0.016c0.077,0.01,0.137,0.025,0.178,0.046s0.066,0.044,0.077,0.07c0.01,0.027,0.015,0.056,0.015,0.089
			l-0.227,1.797h1.374l0.208-1.791c0.004-0.033,0.017-0.063,0.037-0.092c0.021-0.028,0.054-0.053,0.102-0.073
			c0.047-0.021,0.111-0.036,0.193-0.046c0.081-0.01,0.188-0.016,0.318-0.016c0.127,0,0.229,0.005,0.307,0.016
			c0.078,0.01,0.137,0.025,0.178,0.046s0.066,0.044,0.077,0.07c0.01,0.027,0.013,0.056,0.009,0.089l-0.215,1.797h0.589
			c0.069,0,0.126,0.04,0.169,0.12C23.476,22.484,23.497,22.618,23.497,22.806z M19.964,23.333l-0.208,1.748h1.367l0.215-1.748
			H19.964z"/>
		<path fill="#181716" d="M29.076,27.565c0,0.122-0.005,0.226-0.016,0.31c-0.01,0.084-0.025,0.153-0.046,0.209
			c-0.021,0.055-0.046,0.095-0.076,0.119c-0.031,0.024-0.066,0.037-0.107,0.037h-3.637c-0.136,0-0.249-0.04-0.341-0.12
			c-0.092-0.079-0.138-0.209-0.138-0.39v-7.206c0-0.041,0.013-0.078,0.039-0.11c0.027-0.033,0.071-0.06,0.133-0.08
			c0.061-0.021,0.144-0.037,0.248-0.049s0.233-0.019,0.39-0.019c0.159,0,0.29,0.006,0.393,0.019
			c0.102,0.012,0.184,0.028,0.245,0.049s0.105,0.047,0.132,0.08s0.04,0.069,0.04,0.11v6.385h2.496c0.041,0,0.076,0.011,0.107,0.033
			c0.03,0.022,0.056,0.06,0.076,0.11c0.021,0.052,0.036,0.119,0.046,0.203C29.071,27.34,29.076,27.442,29.076,27.565z"/>
		<path fill="#181716" d="M35.538,27.038c0,0.102-0.003,0.188-0.009,0.261c-0.006,0.071-0.016,0.133-0.027,0.184
			c-0.013,0.051-0.029,0.095-0.049,0.132c-0.021,0.037-0.054,0.079-0.099,0.126s-0.132,0.107-0.261,0.181s-0.286,0.145-0.472,0.212
			c-0.187,0.067-0.399,0.123-0.639,0.168c-0.239,0.046-0.497,0.068-0.775,0.068c-0.544,0-1.034-0.084-1.472-0.252
			c-0.438-0.168-0.81-0.418-1.116-0.751s-0.542-0.749-0.706-1.248c-0.163-0.499-0.245-1.08-0.245-1.742
			c0-0.675,0.09-1.273,0.27-1.797c0.181-0.523,0.432-0.963,0.755-1.319c0.323-0.356,0.71-0.625,1.162-0.81s0.949-0.276,1.493-0.276
			c0.221,0,0.434,0.018,0.639,0.055c0.204,0.037,0.394,0.085,0.567,0.144c0.173,0.059,0.33,0.128,0.469,0.206
			s0.236,0.144,0.291,0.199c0.056,0.055,0.093,0.101,0.114,0.138c0.02,0.037,0.036,0.083,0.049,0.141
			c0.012,0.057,0.021,0.125,0.027,0.202s0.009,0.174,0.009,0.288c0,0.123-0.004,0.227-0.012,0.313
			c-0.009,0.086-0.022,0.155-0.043,0.208s-0.045,0.092-0.073,0.117c-0.029,0.024-0.062,0.037-0.099,0.037
			c-0.062,0-0.139-0.036-0.233-0.107c-0.094-0.071-0.215-0.151-0.364-0.239c-0.149-0.088-0.327-0.167-0.534-0.239
			c-0.206-0.072-0.453-0.107-0.739-0.107c-0.314,0-0.596,0.064-0.843,0.193c-0.248,0.129-0.458,0.313-0.632,0.552
			s-0.306,0.528-0.396,0.868s-0.135,0.722-0.135,1.147c0,0.466,0.048,0.87,0.144,1.211c0.097,0.342,0.233,0.623,0.411,0.844
			s0.393,0.386,0.645,0.494c0.251,0.107,0.534,0.162,0.849,0.162c0.286,0,0.534-0.034,0.742-0.102
			c0.209-0.067,0.388-0.142,0.537-0.224s0.271-0.155,0.368-0.221c0.096-0.065,0.171-0.098,0.224-0.098
			c0.041,0,0.073,0.008,0.099,0.024c0.024,0.016,0.044,0.049,0.061,0.098s0.029,0.118,0.037,0.206S35.538,26.891,35.538,27.038z"/>
	</g>
	<g>
		<path fill="#181716" d="M64.068,10.915c-0.017,0.047-0.04,0.085-0.07,0.115c-0.03,0.03-0.071,0.053-0.125,0.07
			c-0.053,0.017-0.121,0.028-0.204,0.035c-0.083,0.006-0.187,0.009-0.311,0.009c-0.094,0-0.176-0.001-0.246-0.003
			c-0.07-0.002-0.131-0.008-0.183-0.016c-0.051-0.009-0.095-0.018-0.131-0.029s-0.067-0.024-0.093-0.042s-0.046-0.037-0.061-0.061
			c-0.016-0.023-0.029-0.052-0.042-0.086L59.897,3.22c-0.033-0.093-0.052-0.169-0.054-0.227c-0.002-0.057,0.016-0.101,0.054-0.131
			c0.039-0.03,0.101-0.049,0.186-0.058c0.086-0.008,0.201-0.013,0.346-0.013c0.119,0,0.215,0.003,0.285,0.009
			c0.07,0.007,0.124,0.019,0.163,0.036c0.038,0.017,0.066,0.039,0.086,0.067S61,2.966,61.018,3.009l2.373,6.966h0.006l2.31-6.953
			c0.013-0.047,0.027-0.085,0.045-0.115c0.017-0.03,0.047-0.054,0.089-0.07c0.043-0.017,0.103-0.029,0.18-0.036
			c0.076-0.006,0.179-0.009,0.307-0.009c0.132,0,0.237,0.005,0.313,0.016c0.077,0.01,0.129,0.031,0.157,0.061
			c0.027,0.03,0.038,0.074,0.031,0.131c-0.006,0.058-0.026,0.134-0.061,0.228L64.068,10.915z"/>
		<path fill="#181716" d="M69.395,3.246c0,0.248-0.047,0.416-0.141,0.505c-0.094,0.089-0.267,0.134-0.519,0.134
			c-0.247,0-0.416-0.044-0.508-0.131c-0.092-0.087-0.138-0.252-0.138-0.496c0-0.247,0.047-0.416,0.141-0.505
			c0.094-0.089,0.267-0.134,0.519-0.134c0.247,0,0.416,0.044,0.508,0.131S69.395,3.002,69.395,3.246z M69.273,10.947
			c0,0.034-0.009,0.063-0.026,0.086c-0.017,0.023-0.044,0.044-0.083,0.061c-0.038,0.017-0.092,0.03-0.159,0.039
			c-0.068,0.009-0.156,0.013-0.263,0.013c-0.103,0-0.188-0.004-0.256-0.013c-0.068-0.008-0.123-0.021-0.163-0.039
			c-0.041-0.017-0.068-0.037-0.083-0.061c-0.016-0.023-0.022-0.052-0.022-0.086V5.19c0-0.03,0.007-0.058,0.022-0.083
			c0.015-0.025,0.042-0.047,0.083-0.064c0.04-0.017,0.095-0.03,0.163-0.039c0.068-0.008,0.153-0.013,0.256-0.013
			c0.106,0,0.194,0.004,0.263,0.013c0.067,0.009,0.121,0.021,0.159,0.039c0.039,0.017,0.066,0.039,0.083,0.064
			c0.018,0.025,0.026,0.053,0.026,0.083V10.947z"/>
		<path fill="#181716" d="M74.771,5.567c0,0.094-0.002,0.173-0.006,0.237c-0.005,0.064-0.013,0.114-0.025,0.15
			s-0.029,0.064-0.048,0.083c-0.02,0.019-0.046,0.029-0.08,0.029s-0.076-0.01-0.125-0.029s-0.104-0.039-0.166-0.058
			c-0.062-0.019-0.132-0.037-0.208-0.054c-0.077-0.017-0.16-0.026-0.25-0.026c-0.106,0-0.211,0.021-0.313,0.064
			c-0.102,0.043-0.21,0.113-0.322,0.211c-0.113,0.098-0.231,0.228-0.355,0.39s-0.26,0.36-0.409,0.595v3.787
			c0,0.034-0.009,0.063-0.025,0.086c-0.018,0.023-0.045,0.044-0.083,0.061c-0.039,0.017-0.092,0.03-0.16,0.039
			c-0.068,0.009-0.156,0.013-0.263,0.013c-0.103,0-0.188-0.004-0.256-0.013c-0.068-0.008-0.122-0.021-0.163-0.039
			c-0.04-0.017-0.068-0.037-0.083-0.061s-0.022-0.052-0.022-0.086V5.19c0-0.034,0.007-0.063,0.02-0.086
			c0.013-0.023,0.038-0.044,0.076-0.064c0.039-0.019,0.088-0.032,0.147-0.038s0.139-0.01,0.236-0.01c0.094,0,0.172,0.003,0.233,0.01
			c0.062,0.006,0.11,0.019,0.145,0.038c0.034,0.02,0.059,0.041,0.073,0.064c0.015,0.023,0.022,0.052,0.022,0.086v0.838
			c0.158-0.23,0.306-0.417,0.444-0.563c0.139-0.145,0.27-0.259,0.394-0.342c0.124-0.083,0.246-0.141,0.368-0.173
			c0.121-0.032,0.244-0.048,0.367-0.048c0.056,0,0.119,0.003,0.189,0.009c0.07,0.007,0.144,0.019,0.221,0.035
			c0.076,0.017,0.146,0.037,0.207,0.058c0.062,0.021,0.106,0.043,0.132,0.064c0.025,0.021,0.042,0.042,0.051,0.061
			s0.016,0.044,0.022,0.073c0.007,0.03,0.011,0.074,0.013,0.131S74.771,5.469,74.771,5.567z"/>
		<path fill="#181716" d="M79.151,10.525c0,0.124-0.009,0.222-0.025,0.294c-0.018,0.073-0.043,0.126-0.077,0.16
			s-0.085,0.066-0.153,0.096s-0.146,0.054-0.233,0.074c-0.088,0.019-0.181,0.035-0.278,0.048c-0.099,0.013-0.196,0.019-0.294,0.019
			c-0.299,0-0.555-0.039-0.768-0.118c-0.214-0.079-0.389-0.198-0.524-0.358c-0.137-0.16-0.236-0.363-0.298-0.608
			s-0.093-0.534-0.093-0.867V5.9h-0.806c-0.064,0-0.115-0.034-0.153-0.102c-0.039-0.068-0.058-0.179-0.058-0.333
			c0-0.081,0.005-0.149,0.016-0.205c0.011-0.055,0.024-0.101,0.042-0.137c0.017-0.036,0.039-0.062,0.066-0.077
			c0.028-0.015,0.059-0.022,0.093-0.022h0.8V3.655c0-0.03,0.008-0.058,0.022-0.083s0.043-0.048,0.083-0.067
			c0.041-0.019,0.095-0.033,0.163-0.042c0.068-0.008,0.153-0.013,0.256-0.013c0.106,0,0.194,0.004,0.263,0.013
			c0.068,0.009,0.121,0.022,0.159,0.042c0.039,0.02,0.066,0.042,0.084,0.067c0.017,0.025,0.025,0.053,0.025,0.083v1.369h1.478
			c0.034,0,0.063,0.007,0.09,0.022c0.025,0.015,0.048,0.041,0.066,0.077c0.02,0.036,0.033,0.082,0.042,0.137
			c0.009,0.056,0.013,0.124,0.013,0.205c0,0.154-0.02,0.265-0.058,0.333S79.004,5.9,78.94,5.9h-1.478v3.211
			c0,0.396,0.059,0.696,0.176,0.898s0.327,0.304,0.63,0.304c0.098,0,0.186-0.009,0.263-0.029c0.076-0.019,0.145-0.039,0.204-0.061
			s0.111-0.042,0.153-0.061c0.043-0.019,0.081-0.029,0.115-0.029c0.021,0,0.042,0.006,0.062,0.016
			c0.019,0.011,0.033,0.031,0.044,0.061s0.021,0.07,0.029,0.122C79.147,10.384,79.151,10.448,79.151,10.525z"/>
		<path fill="#181716" d="M85.661,10.947c0,0.034-0.008,0.063-0.022,0.086c-0.016,0.023-0.042,0.044-0.08,0.061
			c-0.038,0.017-0.089,0.03-0.15,0.039c-0.062,0.009-0.138,0.013-0.227,0.013c-0.099,0-0.179-0.004-0.24-0.013
			c-0.062-0.008-0.111-0.021-0.147-0.039c-0.036-0.017-0.061-0.037-0.073-0.061s-0.02-0.052-0.02-0.086v-0.761
			c-0.328,0.363-0.652,0.627-0.972,0.793c-0.32,0.166-0.645,0.25-0.973,0.25c-0.384,0-0.707-0.064-0.969-0.192
			c-0.263-0.128-0.475-0.302-0.637-0.521s-0.278-0.476-0.349-0.768s-0.105-0.647-0.105-1.065V5.19c0-0.034,0.008-0.063,0.022-0.086
			c0.015-0.023,0.044-0.044,0.086-0.064c0.043-0.019,0.099-0.032,0.167-0.038c0.067-0.006,0.153-0.01,0.256-0.01
			c0.102,0,0.188,0.003,0.256,0.01c0.067,0.006,0.122,0.019,0.163,0.038c0.04,0.02,0.068,0.041,0.086,0.064
			c0.017,0.023,0.025,0.052,0.025,0.086v3.352c0,0.337,0.024,0.606,0.074,0.809c0.049,0.203,0.123,0.375,0.224,0.518
			c0.1,0.143,0.227,0.254,0.381,0.333c0.153,0.079,0.332,0.118,0.537,0.118c0.265,0,0.527-0.094,0.79-0.281
			c0.262-0.188,0.54-0.462,0.834-0.825V5.19c0-0.034,0.008-0.063,0.022-0.086c0.016-0.023,0.044-0.044,0.087-0.064
			c0.043-0.019,0.097-0.032,0.163-0.038s0.152-0.01,0.259-0.01c0.103,0,0.188,0.003,0.256,0.01s0.122,0.019,0.16,0.038
			c0.038,0.02,0.067,0.041,0.086,0.064c0.02,0.023,0.029,0.052,0.029,0.086V10.947z"/>
		<path fill="#181716" d="M92.708,7.819c0,0.167-0.042,0.285-0.126,0.355c-0.083,0.07-0.179,0.106-0.285,0.106h-3.792
			c0,0.32,0.032,0.607,0.097,0.863s0.172,0.476,0.321,0.659c0.15,0.184,0.345,0.324,0.585,0.422s0.533,0.147,0.881,0.147
			c0.274,0,0.519-0.022,0.732-0.067c0.215-0.045,0.399-0.095,0.556-0.15c0.157-0.056,0.285-0.105,0.386-0.15
			c0.102-0.045,0.177-0.067,0.229-0.067c0.03,0,0.057,0.008,0.08,0.022c0.023,0.015,0.042,0.038,0.055,0.067
			s0.022,0.071,0.029,0.125c0.006,0.054,0.01,0.119,0.01,0.195c0,0.056-0.003,0.104-0.007,0.144s-0.01,0.077-0.016,0.108
			c-0.007,0.032-0.018,0.061-0.032,0.086c-0.015,0.026-0.034,0.05-0.058,0.074s-0.093,0.062-0.208,0.115
			c-0.115,0.053-0.265,0.105-0.447,0.157c-0.184,0.051-0.396,0.097-0.637,0.137s-0.498,0.061-0.771,0.061
			c-0.474,0-0.889-0.066-1.244-0.198c-0.356-0.132-0.656-0.329-0.898-0.589c-0.243-0.26-0.427-0.586-0.551-0.979
			c-0.123-0.392-0.186-0.849-0.186-1.369c0-0.495,0.064-0.939,0.192-1.334c0.128-0.394,0.312-0.729,0.553-1.004
			c0.241-0.275,0.532-0.486,0.873-0.633c0.342-0.147,0.724-0.221,1.146-0.221c0.452,0,0.837,0.072,1.154,0.217
			s0.579,0.34,0.783,0.585c0.205,0.245,0.355,0.533,0.451,0.863c0.097,0.331,0.145,0.684,0.145,1.059V7.819z M91.646,7.505
			c0.014-0.554-0.11-0.989-0.37-1.305c-0.259-0.315-0.645-0.473-1.155-0.473c-0.262,0-0.491,0.049-0.688,0.147
			s-0.362,0.228-0.495,0.39S88.7,6.616,88.628,6.831c-0.073,0.215-0.114,0.44-0.123,0.675H91.646z"/>
		<path fill="#181716" d="M95.552,10.947c0,0.034-0.009,0.063-0.025,0.086c-0.018,0.023-0.045,0.044-0.083,0.061
			c-0.038,0.017-0.092,0.03-0.16,0.039c-0.068,0.009-0.155,0.013-0.262,0.013c-0.103,0-0.188-0.004-0.257-0.013
			c-0.067-0.008-0.122-0.021-0.162-0.039c-0.041-0.017-0.068-0.037-0.084-0.061c-0.015-0.023-0.022-0.052-0.022-0.086V2.401
			c0-0.034,0.008-0.064,0.022-0.09c0.016-0.025,0.043-0.047,0.084-0.064c0.04-0.017,0.095-0.03,0.162-0.038
			c0.068-0.009,0.154-0.013,0.257-0.013c0.106,0,0.193,0.004,0.262,0.013c0.068,0.008,0.122,0.021,0.16,0.038
			c0.038,0.017,0.065,0.039,0.083,0.064c0.017,0.026,0.025,0.056,0.025,0.09V10.947z"/>
		<path fill="#181716" d="M98.742,10.947c0,0.034-0.009,0.063-0.026,0.086c-0.017,0.023-0.044,0.044-0.083,0.061
			c-0.038,0.017-0.092,0.03-0.159,0.039c-0.068,0.009-0.156,0.013-0.263,0.013c-0.103,0-0.188-0.004-0.256-0.013
			c-0.068-0.008-0.123-0.021-0.163-0.039c-0.041-0.017-0.068-0.037-0.083-0.061c-0.016-0.023-0.022-0.052-0.022-0.086V2.401
			c0-0.034,0.007-0.064,0.022-0.09c0.015-0.025,0.042-0.047,0.083-0.064c0.04-0.017,0.095-0.03,0.163-0.038
			c0.068-0.009,0.153-0.013,0.256-0.013c0.106,0,0.194,0.004,0.263,0.013c0.067,0.008,0.121,0.021,0.159,0.038
			c0.039,0.017,0.066,0.039,0.083,0.064c0.018,0.026,0.026,0.056,0.026,0.09V10.947z"/>
		<path fill="#181716" d="M105.788,7.819c0,0.167-0.041,0.285-0.125,0.355c-0.083,0.07-0.179,0.106-0.286,0.106h-3.791
			c0,0.32,0.032,0.607,0.097,0.863s0.171,0.476,0.321,0.659c0.149,0.184,0.345,0.324,0.585,0.422s0.533,0.147,0.881,0.147
			c0.273,0,0.518-0.022,0.732-0.067c0.214-0.045,0.399-0.095,0.556-0.15c0.156-0.056,0.285-0.105,0.386-0.15
			s0.177-0.067,0.229-0.067c0.03,0,0.057,0.008,0.08,0.022c0.023,0.015,0.042,0.038,0.055,0.067s0.022,0.071,0.029,0.125
			c0.006,0.054,0.01,0.119,0.01,0.195c0,0.056-0.003,0.104-0.007,0.144s-0.01,0.077-0.016,0.108
			c-0.007,0.032-0.018,0.061-0.032,0.086c-0.016,0.026-0.034,0.05-0.058,0.074s-0.093,0.062-0.208,0.115
			c-0.115,0.053-0.265,0.105-0.447,0.157c-0.184,0.051-0.396,0.097-0.637,0.137c-0.241,0.041-0.498,0.061-0.771,0.061
			c-0.474,0-0.889-0.066-1.244-0.198c-0.356-0.132-0.656-0.329-0.899-0.589c-0.243-0.26-0.426-0.586-0.55-0.979
			c-0.124-0.392-0.186-0.849-0.186-1.369c0-0.495,0.064-0.939,0.192-1.334c0.128-0.394,0.312-0.729,0.553-1.004
			c0.241-0.275,0.532-0.486,0.873-0.633c0.342-0.147,0.723-0.221,1.146-0.221c0.451,0,0.837,0.072,1.154,0.217
			s0.579,0.34,0.783,0.585c0.205,0.245,0.355,0.533,0.451,0.863c0.096,0.331,0.144,0.684,0.144,1.059V7.819z M104.727,7.505
			c0.013-0.554-0.11-0.989-0.37-1.305s-0.645-0.473-1.155-0.473c-0.262,0-0.491,0.049-0.688,0.147s-0.362,0.228-0.495,0.39
			c-0.134,0.162-0.236,0.351-0.31,0.566c-0.072,0.215-0.113,0.44-0.122,0.675H104.727z"/>
		<path fill="#181716" d="M111.191,9.38c0,0.294-0.055,0.556-0.163,0.787s-0.264,0.424-0.464,0.582s-0.439,0.277-0.716,0.358
			c-0.277,0.081-0.582,0.122-0.915,0.122c-0.205,0-0.399-0.016-0.585-0.048c-0.186-0.032-0.353-0.072-0.499-0.122
			c-0.147-0.049-0.272-0.1-0.375-0.153c-0.102-0.053-0.177-0.101-0.224-0.144c-0.047-0.042-0.081-0.102-0.102-0.179
			c-0.021-0.077-0.032-0.181-0.032-0.313c0-0.081,0.004-0.149,0.013-0.205c0.008-0.055,0.02-0.1,0.032-0.134
			c0.013-0.034,0.03-0.059,0.054-0.073c0.023-0.015,0.051-0.022,0.08-0.022c0.047,0,0.116,0.029,0.208,0.086
			s0.205,0.121,0.339,0.188c0.135,0.068,0.293,0.131,0.477,0.189c0.184,0.057,0.395,0.086,0.633,0.086
			c0.18,0,0.342-0.019,0.486-0.057c0.146-0.039,0.271-0.095,0.378-0.17c0.106-0.074,0.188-0.169,0.246-0.285
			c0.058-0.115,0.086-0.251,0.086-0.409c0-0.162-0.041-0.298-0.124-0.409s-0.193-0.209-0.33-0.294
			c-0.136-0.085-0.29-0.161-0.46-0.227c-0.171-0.066-0.347-0.135-0.528-0.208c-0.181-0.072-0.357-0.154-0.53-0.246
			s-0.327-0.204-0.464-0.336c-0.137-0.132-0.246-0.29-0.33-0.473c-0.083-0.184-0.124-0.403-0.124-0.659
			c0-0.226,0.044-0.442,0.131-0.649s0.219-0.388,0.394-0.544c0.175-0.155,0.394-0.28,0.655-0.374
			c0.263-0.094,0.568-0.141,0.918-0.141c0.153,0,0.308,0.013,0.461,0.038c0.153,0.026,0.292,0.058,0.416,0.096
			c0.123,0.039,0.229,0.08,0.316,0.125c0.087,0.045,0.153,0.084,0.198,0.119s0.074,0.064,0.09,0.089
			c0.015,0.025,0.025,0.054,0.031,0.086c0.007,0.032,0.013,0.071,0.02,0.118c0.006,0.047,0.01,0.104,0.01,0.173
			c0,0.073-0.004,0.135-0.01,0.188c-0.007,0.054-0.018,0.097-0.032,0.131s-0.033,0.059-0.055,0.074
			c-0.021,0.015-0.044,0.022-0.07,0.022c-0.038,0-0.094-0.023-0.166-0.07c-0.072-0.047-0.166-0.097-0.281-0.15
			c-0.115-0.053-0.251-0.103-0.406-0.15s-0.334-0.071-0.534-0.071c-0.179,0-0.337,0.021-0.474,0.061
			c-0.136,0.041-0.248,0.098-0.335,0.173c-0.088,0.075-0.154,0.163-0.199,0.265c-0.044,0.103-0.066,0.213-0.066,0.333
			c0,0.166,0.042,0.306,0.128,0.419c0.085,0.113,0.195,0.212,0.332,0.297s0.292,0.162,0.468,0.23
			c0.174,0.068,0.353,0.139,0.533,0.211c0.182,0.072,0.36,0.153,0.537,0.243c0.178,0.09,0.334,0.199,0.471,0.327
			c0.137,0.127,0.246,0.281,0.329,0.46C111.149,8.919,111.191,9.132,111.191,9.38z"/>
		<path fill="#181716" d="M121.607,8.734c0,0.26-0.033,0.5-0.1,0.719c-0.066,0.22-0.159,0.417-0.278,0.592s-0.264,0.329-0.432,0.46
			c-0.169,0.132-0.358,0.243-0.569,0.333c-0.211,0.09-0.438,0.157-0.678,0.202c-0.241,0.045-0.518,0.067-0.828,0.067h-2.162
			c-0.099,0-0.191-0.033-0.278-0.099c-0.088-0.066-0.132-0.183-0.132-0.349V3.277c0-0.166,0.044-0.282,0.132-0.349
			c0.087-0.066,0.18-0.099,0.278-0.099h1.88c0.495,0,0.9,0.047,1.216,0.141s0.579,0.23,0.79,0.409s0.369,0.399,0.477,0.659
			c0.106,0.26,0.16,0.555,0.16,0.883c0,0.196-0.024,0.384-0.071,0.563s-0.116,0.344-0.208,0.496
			c-0.091,0.151-0.206,0.287-0.345,0.406s-0.298,0.217-0.477,0.294c0.226,0.042,0.437,0.12,0.633,0.233
			c0.196,0.113,0.368,0.257,0.515,0.432c0.147,0.175,0.264,0.379,0.35,0.614C121.564,8.194,121.607,8.452,121.607,8.734z
			 M119.95,5.03c0-0.201-0.027-0.382-0.083-0.544s-0.143-0.299-0.262-0.413c-0.119-0.113-0.274-0.199-0.466-0.259
			s-0.444-0.09-0.759-0.09h-1.137v2.68h1.251c0.285,0,0.515-0.037,0.689-0.112c0.174-0.075,0.319-0.175,0.434-0.301
			c0.115-0.125,0.199-0.272,0.252-0.441C119.924,5.383,119.95,5.209,119.95,5.03z M120.449,8.798c0-0.248-0.039-0.465-0.118-0.653
			c-0.079-0.188-0.193-0.345-0.345-0.473s-0.341-0.225-0.568-0.291s-0.514-0.099-0.858-0.099h-1.315v2.917h1.597
			c0.251,0,0.47-0.03,0.657-0.089s0.353-0.148,0.495-0.266c0.143-0.117,0.254-0.263,0.335-0.438S120.449,9.028,120.449,8.798z"/>
		<path fill="#181716" d="M127.675,10.953c0,0.051-0.017,0.09-0.051,0.115s-0.081,0.045-0.141,0.058s-0.147,0.019-0.263,0.019
			c-0.11,0-0.199-0.006-0.265-0.019c-0.066-0.013-0.114-0.032-0.145-0.058c-0.029-0.025-0.045-0.064-0.045-0.115v-0.576
			c-0.251,0.269-0.531,0.478-0.841,0.627c-0.31,0.149-0.637,0.224-0.981,0.224c-0.304,0-0.577-0.04-0.822-0.119
			c-0.245-0.079-0.454-0.193-0.627-0.342c-0.173-0.149-0.307-0.333-0.403-0.55c-0.096-0.218-0.144-0.465-0.144-0.742
			c0-0.324,0.066-0.605,0.198-0.844s0.322-0.437,0.569-0.595s0.55-0.276,0.908-0.355c0.358-0.079,0.761-0.119,1.209-0.119h0.793
			V7.115c0-0.222-0.023-0.417-0.07-0.588c-0.047-0.17-0.122-0.312-0.227-0.425c-0.104-0.113-0.24-0.198-0.406-0.256
			c-0.167-0.058-0.371-0.086-0.614-0.086c-0.261,0-0.494,0.031-0.7,0.093c-0.207,0.062-0.389,0.13-0.544,0.205
			c-0.156,0.075-0.286,0.143-0.391,0.205c-0.104,0.062-0.182,0.093-0.233,0.093c-0.034,0-0.063-0.009-0.089-0.026
			c-0.026-0.017-0.048-0.042-0.067-0.077s-0.033-0.078-0.042-0.131c-0.009-0.053-0.013-0.112-0.013-0.176
			c0-0.106,0.008-0.191,0.022-0.252c0.015-0.062,0.052-0.121,0.108-0.176c0.058-0.055,0.157-0.12,0.298-0.195
			s0.303-0.143,0.486-0.205c0.183-0.062,0.384-0.113,0.602-0.154c0.217-0.041,0.437-0.061,0.658-0.061
			c0.414,0,0.766,0.047,1.056,0.141s0.524,0.231,0.703,0.413c0.18,0.181,0.31,0.406,0.391,0.675s0.121,0.582,0.121,0.94V10.953z
			 M126.626,8.324h-0.901c-0.29,0-0.542,0.025-0.755,0.074c-0.214,0.049-0.391,0.122-0.531,0.217
			c-0.141,0.096-0.244,0.211-0.311,0.346c-0.065,0.134-0.099,0.289-0.099,0.463c0,0.299,0.095,0.537,0.284,0.713
			c0.19,0.177,0.455,0.266,0.797,0.266c0.277,0,0.534-0.07,0.771-0.211c0.236-0.141,0.485-0.356,0.745-0.646V8.324z"/>
		<path fill="#181716" d="M133.161,5.567c0,0.094-0.002,0.173-0.006,0.237c-0.005,0.064-0.014,0.114-0.026,0.15
			s-0.028,0.064-0.048,0.083s-0.046,0.029-0.08,0.029s-0.075-0.01-0.125-0.029c-0.049-0.019-0.104-0.039-0.166-0.058
			c-0.062-0.019-0.131-0.037-0.208-0.054c-0.076-0.017-0.159-0.026-0.249-0.026c-0.106,0-0.211,0.021-0.313,0.064
			c-0.103,0.043-0.21,0.113-0.323,0.211s-0.231,0.228-0.354,0.39c-0.124,0.162-0.261,0.36-0.409,0.595v3.787
			c0,0.034-0.009,0.063-0.026,0.086c-0.017,0.023-0.044,0.044-0.083,0.061c-0.038,0.017-0.092,0.03-0.16,0.039
			c-0.068,0.009-0.155,0.013-0.262,0.013c-0.103,0-0.188-0.004-0.256-0.013c-0.068-0.008-0.123-0.021-0.163-0.039
			c-0.041-0.017-0.068-0.037-0.083-0.061c-0.016-0.023-0.022-0.052-0.022-0.086V5.19c0-0.034,0.006-0.063,0.019-0.086
			c0.014-0.023,0.039-0.044,0.077-0.064c0.038-0.019,0.087-0.032,0.147-0.038c0.06-0.006,0.138-0.01,0.236-0.01
			c0.094,0,0.172,0.003,0.233,0.01s0.109,0.019,0.144,0.038c0.034,0.02,0.059,0.041,0.074,0.064
			c0.015,0.023,0.022,0.052,0.022,0.086v0.838c0.157-0.23,0.306-0.417,0.444-0.563c0.139-0.145,0.27-0.259,0.394-0.342
			c0.123-0.083,0.246-0.141,0.367-0.173c0.122-0.032,0.244-0.048,0.368-0.048c0.056,0,0.118,0.003,0.188,0.009
			c0.07,0.007,0.144,0.019,0.221,0.035c0.077,0.017,0.146,0.037,0.208,0.058c0.062,0.021,0.105,0.043,0.131,0.064
			c0.025,0.021,0.043,0.042,0.052,0.061c0.008,0.019,0.016,0.044,0.022,0.073c0.006,0.03,0.01,0.074,0.013,0.131
			C133.16,5.392,133.161,5.469,133.161,5.567z"/>
		<path fill="#181716" d="M138.494,10.071c0,0.072-0.003,0.135-0.007,0.188s-0.012,0.098-0.022,0.134s-0.023,0.068-0.038,0.096
			c-0.016,0.028-0.049,0.068-0.103,0.121c-0.054,0.054-0.144,0.12-0.271,0.199c-0.128,0.079-0.272,0.149-0.432,0.211
			c-0.16,0.062-0.334,0.112-0.521,0.15c-0.188,0.038-0.382,0.058-0.582,0.058c-0.414,0-0.78-0.068-1.101-0.205
			c-0.32-0.136-0.587-0.335-0.803-0.598c-0.215-0.263-0.38-0.584-0.492-0.966c-0.113-0.382-0.17-0.822-0.17-1.321
			c0-0.567,0.069-1.054,0.208-1.461s0.328-0.741,0.569-1.001s0.524-0.453,0.851-0.579c0.326-0.125,0.679-0.188,1.059-0.188
			c0.184,0,0.361,0.017,0.534,0.051s0.331,0.079,0.477,0.134c0.145,0.055,0.273,0.119,0.387,0.192
			c0.113,0.072,0.195,0.134,0.246,0.186c0.052,0.051,0.087,0.092,0.105,0.122c0.02,0.03,0.036,0.065,0.049,0.105
			s0.021,0.086,0.025,0.137c0.004,0.051,0.006,0.115,0.006,0.192c0,0.167-0.019,0.283-0.058,0.349
			c-0.038,0.066-0.085,0.099-0.141,0.099c-0.063,0-0.137-0.035-0.221-0.105c-0.083-0.07-0.188-0.148-0.316-0.233
			s-0.282-0.163-0.464-0.233c-0.181-0.07-0.396-0.105-0.643-0.105c-0.508,0-0.896,0.195-1.167,0.585
			c-0.271,0.391-0.406,0.957-0.406,1.698c0,0.371,0.035,0.696,0.105,0.976s0.174,0.513,0.31,0.701
			c0.137,0.188,0.305,0.327,0.503,0.419s0.425,0.137,0.681,0.137c0.243,0,0.456-0.038,0.64-0.115
			c0.184-0.077,0.343-0.161,0.477-0.252c0.135-0.092,0.247-0.175,0.339-0.25c0.092-0.074,0.163-0.112,0.215-0.112
			c0.029,0,0.055,0.009,0.076,0.025c0.021,0.017,0.04,0.046,0.055,0.086s0.025,0.092,0.032,0.154
			C138.49,9.912,138.494,9.985,138.494,10.071z"/>
		<path fill="#181716" d="M144.306,10.953c0,0.051-0.017,0.09-0.051,0.115s-0.081,0.045-0.141,0.058s-0.147,0.019-0.263,0.019
			c-0.11,0-0.199-0.006-0.265-0.019c-0.066-0.013-0.115-0.032-0.145-0.058s-0.045-0.064-0.045-0.115v-0.576
			c-0.251,0.269-0.532,0.478-0.841,0.627c-0.31,0.149-0.637,0.224-0.982,0.224c-0.303,0-0.576-0.04-0.821-0.119
			c-0.245-0.079-0.454-0.193-0.627-0.342c-0.173-0.149-0.308-0.333-0.403-0.55c-0.096-0.218-0.144-0.465-0.144-0.742
			c0-0.324,0.066-0.605,0.198-0.844s0.322-0.437,0.569-0.595s0.55-0.276,0.908-0.355c0.358-0.079,0.761-0.119,1.209-0.119h0.793
			V7.115c0-0.222-0.023-0.417-0.07-0.588c-0.047-0.17-0.123-0.312-0.227-0.425c-0.105-0.113-0.24-0.198-0.406-0.256
			c-0.167-0.058-0.371-0.086-0.614-0.086c-0.261,0-0.494,0.031-0.7,0.093c-0.207,0.062-0.389,0.13-0.544,0.205
			c-0.156,0.075-0.286,0.143-0.391,0.205c-0.104,0.062-0.182,0.093-0.233,0.093c-0.034,0-0.063-0.009-0.089-0.026
			c-0.026-0.017-0.049-0.042-0.067-0.077c-0.02-0.034-0.033-0.078-0.042-0.131c-0.009-0.053-0.013-0.112-0.013-0.176
			c0-0.106,0.008-0.191,0.022-0.252c0.015-0.062,0.051-0.121,0.108-0.176c0.058-0.055,0.157-0.12,0.298-0.195
			s0.303-0.143,0.486-0.205c0.183-0.062,0.384-0.113,0.601-0.154c0.218-0.041,0.438-0.061,0.659-0.061
			c0.413,0,0.766,0.047,1.056,0.141s0.524,0.231,0.703,0.413c0.18,0.181,0.31,0.406,0.391,0.675s0.121,0.582,0.121,0.94V10.953z
			 M143.257,8.324h-0.901c-0.29,0-0.542,0.025-0.755,0.074c-0.214,0.049-0.391,0.122-0.531,0.217
			c-0.141,0.096-0.244,0.211-0.311,0.346s-0.099,0.289-0.099,0.463c0,0.299,0.095,0.537,0.284,0.713
			c0.189,0.177,0.455,0.266,0.797,0.266c0.277,0,0.534-0.07,0.771-0.211c0.236-0.141,0.485-0.356,0.745-0.646V8.324z"/>
		<path fill="#181716" d="M154.967,10.947c0,0.034-0.009,0.063-0.025,0.086c-0.018,0.023-0.045,0.044-0.083,0.061
			c-0.039,0.017-0.092,0.03-0.16,0.039c-0.068,0.009-0.153,0.013-0.256,0.013c-0.106,0-0.194-0.004-0.263-0.013
			c-0.068-0.008-0.122-0.021-0.163-0.039c-0.04-0.017-0.069-0.037-0.086-0.061c-0.018-0.023-0.025-0.052-0.025-0.086V7.448
			c0-0.243-0.021-0.465-0.064-0.666c-0.043-0.2-0.111-0.373-0.204-0.518c-0.095-0.145-0.214-0.256-0.358-0.333
			c-0.146-0.077-0.315-0.115-0.512-0.115c-0.243,0-0.487,0.094-0.732,0.282c-0.245,0.188-0.516,0.462-0.81,0.825v4.023
			c0,0.034-0.009,0.063-0.025,0.086s-0.046,0.044-0.086,0.061c-0.041,0.017-0.096,0.03-0.163,0.039
			c-0.068,0.009-0.154,0.013-0.256,0.013c-0.099,0-0.183-0.004-0.253-0.013c-0.07-0.008-0.126-0.021-0.166-0.039
			c-0.041-0.017-0.068-0.037-0.084-0.061c-0.015-0.023-0.022-0.052-0.022-0.086V7.448c0-0.243-0.023-0.465-0.07-0.666
			c-0.047-0.2-0.117-0.373-0.211-0.518s-0.212-0.256-0.354-0.333c-0.144-0.077-0.312-0.115-0.509-0.115
			c-0.243,0-0.488,0.094-0.735,0.282c-0.247,0.188-0.517,0.462-0.806,0.825v4.023c0,0.034-0.009,0.063-0.026,0.086
			c-0.017,0.023-0.044,0.044-0.083,0.061c-0.038,0.017-0.092,0.03-0.16,0.039c-0.068,0.009-0.155,0.013-0.262,0.013
			c-0.103,0-0.188-0.004-0.256-0.013c-0.068-0.008-0.123-0.021-0.163-0.039c-0.041-0.017-0.068-0.037-0.083-0.061
			c-0.016-0.023-0.022-0.052-0.022-0.086V5.19c0-0.034,0.006-0.063,0.019-0.086c0.014-0.023,0.039-0.044,0.077-0.064
			c0.038-0.019,0.087-0.032,0.147-0.038c0.06-0.006,0.139-0.01,0.236-0.01c0.094,0,0.172,0.003,0.233,0.01s0.109,0.019,0.144,0.038
			c0.034,0.02,0.059,0.041,0.074,0.064c0.015,0.023,0.022,0.052,0.022,0.086v0.761c0.323-0.362,0.638-0.628,0.943-0.796
			c0.305-0.168,0.613-0.252,0.924-0.252c0.239,0,0.453,0.028,0.644,0.083c0.189,0.056,0.356,0.133,0.502,0.233
			c0.145,0.101,0.269,0.22,0.371,0.358c0.102,0.139,0.188,0.293,0.256,0.464c0.191-0.209,0.374-0.386,0.547-0.531
			c0.172-0.145,0.339-0.262,0.499-0.352c0.159-0.09,0.315-0.155,0.467-0.195s0.304-0.061,0.457-0.061
			c0.371,0,0.683,0.065,0.934,0.195c0.252,0.13,0.455,0.304,0.611,0.521c0.155,0.217,0.267,0.472,0.333,0.764
			c0.065,0.292,0.099,0.601,0.099,0.924V10.947z"/>
		<path fill="#181716" d="M162.372,7.979c0,0.503-0.055,0.955-0.163,1.356c-0.109,0.401-0.269,0.741-0.479,1.02
			c-0.212,0.28-0.473,0.495-0.784,0.646c-0.312,0.151-0.667,0.227-1.068,0.227c-0.17,0-0.328-0.017-0.474-0.051
			c-0.145-0.034-0.286-0.087-0.425-0.16c-0.139-0.072-0.276-0.164-0.413-0.275c-0.136-0.111-0.281-0.241-0.435-0.39v2.878
			c0,0.034-0.009,0.064-0.025,0.089c-0.018,0.026-0.045,0.047-0.083,0.064c-0.039,0.017-0.092,0.03-0.16,0.039
			c-0.068,0.008-0.156,0.013-0.262,0.013c-0.103,0-0.188-0.004-0.257-0.013c-0.067-0.009-0.122-0.021-0.163-0.039
			c-0.04-0.017-0.067-0.038-0.083-0.064c-0.015-0.025-0.022-0.055-0.022-0.089V5.19c0-0.038,0.007-0.069,0.02-0.093
			s0.038-0.043,0.077-0.061c0.038-0.017,0.087-0.029,0.146-0.035s0.133-0.01,0.218-0.01c0.09,0,0.163,0.003,0.221,0.01
			s0.105,0.018,0.144,0.035s0.065,0.037,0.08,0.061s0.022,0.055,0.022,0.093v0.774c0.175-0.179,0.344-0.334,0.506-0.467
			c0.162-0.132,0.324-0.242,0.489-0.33c0.164-0.087,0.332-0.153,0.505-0.198c0.173-0.044,0.355-0.067,0.547-0.067
			c0.418,0,0.774,0.081,1.068,0.243s0.534,0.384,0.72,0.665s0.32,0.609,0.406,0.982C162.329,7.166,162.372,7.561,162.372,7.979z
			 M161.278,8.101c0-0.294-0.023-0.579-0.068-0.854s-0.122-0.519-0.231-0.732s-0.256-0.384-0.44-0.512s-0.414-0.192-0.688-0.192
			c-0.138,0-0.272,0.02-0.406,0.061c-0.133,0.041-0.268,0.104-0.405,0.192c-0.137,0.087-0.281,0.202-0.431,0.345
			c-0.15,0.143-0.31,0.319-0.477,0.528v2.29c0.292,0.354,0.568,0.625,0.83,0.812s0.536,0.281,0.824,0.281
			c0.266,0,0.494-0.064,0.685-0.192c0.191-0.128,0.346-0.298,0.464-0.512c0.118-0.213,0.205-0.452,0.261-0.716
			C161.25,8.636,161.278,8.369,161.278,8.101z"/>
		<path fill="#181716" d="M67.845,18.984c0,0.133-0.009,0.245-0.025,0.336s-0.039,0.165-0.066,0.22s-0.062,0.095-0.104,0.121
			c-0.042,0.024-0.084,0.037-0.129,0.037h-0.945l-0.282,2.364h0.813c0.094,0,0.17,0.054,0.228,0.162
			c0.059,0.107,0.087,0.289,0.087,0.543c0,0.133-0.008,0.247-0.024,0.34c-0.017,0.094-0.039,0.169-0.066,0.224
			c-0.028,0.055-0.062,0.095-0.104,0.12c-0.042,0.025-0.085,0.038-0.129,0.038H66.11l-0.307,2.597
			c-0.006,0.05-0.021,0.093-0.046,0.128c-0.024,0.036-0.069,0.068-0.133,0.096s-0.149,0.047-0.257,0.059
			c-0.108,0.011-0.245,0.017-0.411,0.017c-0.177,0-0.319-0.006-0.427-0.017c-0.108-0.012-0.189-0.031-0.245-0.059
			s-0.093-0.06-0.112-0.096c-0.02-0.035-0.025-0.078-0.021-0.128l0.315-2.597h-1.858l-0.307,2.597
			c-0.006,0.044-0.021,0.086-0.046,0.124c-0.024,0.039-0.067,0.072-0.129,0.1c-0.061,0.027-0.145,0.047-0.253,0.059
			c-0.107,0.011-0.25,0.017-0.427,0.017c-0.172,0-0.31-0.006-0.415-0.017c-0.105-0.012-0.187-0.031-0.245-0.059
			c-0.058-0.027-0.097-0.06-0.115-0.096c-0.02-0.035-0.024-0.078-0.013-0.128l0.299-2.597h-0.788c-0.095,0-0.171-0.053-0.229-0.158
			c-0.059-0.105-0.087-0.288-0.087-0.548c0-0.133,0.008-0.246,0.024-0.34s0.039-0.169,0.066-0.224s0.061-0.095,0.1-0.12
			s0.083-0.038,0.133-0.038h0.963l0.281-2.364h-0.838c-0.094,0-0.17-0.053-0.228-0.158c-0.059-0.105-0.088-0.288-0.088-0.547
			c0-0.266,0.031-0.451,0.092-0.556c0.061-0.105,0.138-0.157,0.232-0.157h0.995l0.299-2.423c0-0.05,0.014-0.092,0.042-0.128
			c0.027-0.036,0.074-0.067,0.141-0.095s0.154-0.048,0.266-0.062c0.11-0.014,0.251-0.021,0.423-0.021s0.31,0.007,0.415,0.021
			c0.104,0.014,0.185,0.035,0.24,0.062s0.09,0.06,0.104,0.095c0.014,0.036,0.021,0.076,0.021,0.12l-0.308,2.431h1.858l0.282-2.423
			c0.006-0.044,0.022-0.085,0.05-0.124c0.027-0.039,0.073-0.072,0.137-0.1s0.15-0.048,0.262-0.062
			c0.11-0.014,0.254-0.021,0.431-0.021c0.172,0,0.311,0.007,0.415,0.021c0.105,0.014,0.186,0.035,0.241,0.062
			c0.055,0.028,0.09,0.06,0.104,0.095c0.014,0.036,0.018,0.076,0.012,0.12l-0.29,2.431h0.797c0.094,0,0.17,0.054,0.228,0.162
			C67.815,18.549,67.845,18.73,67.845,18.984z M63.065,19.698l-0.281,2.364h1.85l0.29-2.364H63.065z"/>
		<path fill="#181716" d="M75.391,25.422c0,0.166-0.007,0.306-0.021,0.419s-0.034,0.208-0.062,0.282
			c-0.027,0.074-0.062,0.129-0.104,0.162c-0.041,0.033-0.09,0.05-0.145,0.05h-4.92c-0.183,0-0.336-0.055-0.461-0.162
			c-0.124-0.108-0.187-0.283-0.187-0.526v-9.749c0-0.055,0.019-0.105,0.054-0.149c0.036-0.044,0.096-0.08,0.179-0.108
			s0.195-0.05,0.336-0.066c0.142-0.017,0.316-0.025,0.527-0.025c0.216,0,0.393,0.008,0.53,0.025
			c0.139,0.017,0.249,0.039,0.332,0.066s0.143,0.063,0.179,0.108c0.036,0.044,0.054,0.094,0.054,0.149v8.636h3.377
			c0.055,0,0.104,0.016,0.145,0.046c0.042,0.03,0.076,0.08,0.104,0.149c0.028,0.069,0.049,0.16,0.062,0.273
			C75.384,25.117,75.391,25.256,75.391,25.422z"/>
		<path fill="#181716" d="M83.626,22.137c0,0.254-0.057,0.442-0.17,0.564c-0.113,0.122-0.27,0.182-0.469,0.182h-4.505
			c0,0.315,0.038,0.602,0.112,0.859c0.074,0.257,0.193,0.476,0.356,0.655s0.374,0.317,0.631,0.411
			c0.257,0.094,0.565,0.141,0.925,0.141c0.365,0,0.686-0.026,0.963-0.079c0.276-0.052,0.516-0.11,0.717-0.174
			c0.202-0.063,0.369-0.122,0.502-0.174s0.241-0.079,0.324-0.079c0.05,0,0.091,0.01,0.124,0.029s0.061,0.054,0.083,0.104
			s0.037,0.121,0.046,0.212c0.008,0.091,0.013,0.206,0.013,0.344c0,0.122-0.003,0.225-0.009,0.311
			c-0.006,0.086-0.014,0.159-0.024,0.221c-0.012,0.061-0.028,0.111-0.05,0.153c-0.022,0.041-0.052,0.081-0.088,0.12
			s-0.134,0.091-0.294,0.157c-0.161,0.066-0.365,0.132-0.614,0.195s-0.533,0.119-0.854,0.166c-0.32,0.047-0.663,0.07-1.028,0.07
			c-0.658,0-1.235-0.083-1.729-0.249c-0.495-0.166-0.909-0.417-1.24-0.755c-0.332-0.337-0.58-0.763-0.743-1.277
			c-0.163-0.515-0.244-1.117-0.244-1.809c0-0.658,0.085-1.251,0.257-1.78c0.171-0.528,0.42-0.976,0.746-1.344
			c0.327-0.368,0.724-0.648,1.191-0.842c0.467-0.193,0.994-0.29,1.58-0.29c0.619,0,1.148,0.091,1.589,0.273
			c0.439,0.183,0.8,0.436,1.082,0.759s0.49,0.707,0.622,1.149c0.133,0.442,0.199,0.924,0.199,1.444V22.137z M81.603,21.54
			c0.016-0.586-0.102-1.047-0.354-1.381c-0.251-0.334-0.64-0.502-1.165-0.502c-0.266,0-0.497,0.05-0.692,0.149
			c-0.197,0.1-0.36,0.233-0.49,0.402c-0.13,0.168-0.229,0.368-0.299,0.597c-0.068,0.229-0.108,0.475-0.12,0.734H81.603z"/>
		<path fill="#181716" d="M91.887,26.077c0,0.078-0.028,0.139-0.083,0.183c-0.056,0.045-0.143,0.076-0.262,0.096
			s-0.294,0.029-0.526,0.029c-0.249,0-0.431-0.01-0.544-0.029s-0.193-0.051-0.24-0.096c-0.047-0.044-0.07-0.104-0.07-0.183v-0.589
			c-0.305,0.326-0.651,0.581-1.041,0.764c-0.391,0.183-0.823,0.273-1.299,0.273c-0.393,0-0.754-0.051-1.082-0.153
			c-0.33-0.103-0.614-0.255-0.855-0.456c-0.24-0.202-0.427-0.452-0.56-0.751s-0.199-0.647-0.199-1.045
			c0-0.432,0.084-0.806,0.253-1.124c0.169-0.318,0.421-0.581,0.755-0.789c0.335-0.207,0.751-0.36,1.249-0.46
			s1.075-0.149,1.733-0.149h0.722v-0.448c0-0.232-0.023-0.436-0.07-0.61c-0.047-0.174-0.124-0.319-0.232-0.436
			c-0.107-0.116-0.251-0.202-0.432-0.257c-0.18-0.055-0.402-0.083-0.667-0.083c-0.349,0-0.66,0.039-0.934,0.116
			s-0.516,0.163-0.726,0.257c-0.211,0.094-0.386,0.18-0.527,0.257c-0.141,0.078-0.256,0.116-0.344,0.116
			c-0.062,0-0.115-0.02-0.162-0.058s-0.086-0.094-0.116-0.166c-0.03-0.072-0.054-0.16-0.07-0.265s-0.025-0.221-0.025-0.349
			c0-0.171,0.014-0.307,0.042-0.407c0.027-0.099,0.08-0.189,0.157-0.27c0.078-0.08,0.213-0.168,0.407-0.265
			c0.193-0.097,0.42-0.187,0.68-0.27c0.26-0.083,0.544-0.15,0.851-0.203c0.307-0.052,0.623-0.079,0.95-0.079
			c0.58,0,1.077,0.057,1.488,0.17c0.412,0.113,0.751,0.288,1.017,0.522c0.266,0.235,0.459,0.538,0.581,0.909
			c0.121,0.371,0.183,0.81,0.183,1.319V26.077z M89.837,22.908h-0.796c-0.338,0-0.625,0.025-0.863,0.075
			c-0.237,0.05-0.431,0.125-0.58,0.224s-0.259,0.22-0.328,0.361s-0.104,0.303-0.104,0.485c0,0.31,0.098,0.553,0.294,0.73
			c0.197,0.177,0.469,0.266,0.817,0.266c0.293,0,0.563-0.075,0.81-0.224c0.245-0.149,0.496-0.368,0.75-0.655V22.908z"/>
		<path fill="#181716" d="M101.225,26.053c0,0.061-0.014,0.111-0.041,0.153c-0.027,0.041-0.074,0.076-0.141,0.104
			s-0.156,0.047-0.271,0.059c-0.113,0.011-0.253,0.017-0.419,0.017c-0.177,0-0.32-0.006-0.431-0.017
			c-0.111-0.012-0.201-0.031-0.27-0.059c-0.069-0.027-0.119-0.062-0.149-0.104c-0.03-0.042-0.046-0.093-0.046-0.153v-0.822
			c-0.382,0.41-0.781,0.728-1.199,0.955c-0.417,0.227-0.88,0.34-1.389,0.34c-0.564,0-1.042-0.109-1.432-0.328
			c-0.39-0.218-0.708-0.513-0.954-0.883c-0.246-0.37-0.425-0.803-0.535-1.298c-0.11-0.495-0.166-1.016-0.166-1.563
			c0-0.658,0.071-1.25,0.212-1.775s0.347-0.974,0.618-1.344c0.271-0.37,0.608-0.655,1.012-0.854
			c0.404-0.199,0.868-0.298,1.394-0.298c0.415,0,0.791,0.084,1.129,0.253c0.337,0.169,0.672,0.416,1.004,0.743v-4.007
			c0-0.055,0.015-0.105,0.045-0.149c0.031-0.044,0.086-0.082,0.166-0.112s0.188-0.054,0.319-0.07
			c0.133-0.017,0.302-0.025,0.507-0.025c0.204,0,0.373,0.008,0.506,0.025s0.237,0.04,0.315,0.07c0.077,0.03,0.132,0.068,0.165,0.112
			c0.033,0.044,0.05,0.094,0.05,0.149V26.053z M99.151,21.108c-0.299-0.376-0.585-0.664-0.859-0.863
			c-0.273-0.199-0.56-0.298-0.858-0.298c-0.271,0-0.505,0.068-0.701,0.203c-0.196,0.136-0.354,0.317-0.473,0.543
			s-0.207,0.48-0.266,0.759c-0.058,0.279-0.087,0.566-0.087,0.859c0,0.31,0.025,0.611,0.075,0.904s0.131,0.555,0.244,0.784
			c0.113,0.23,0.265,0.414,0.452,0.552c0.188,0.139,0.426,0.208,0.714,0.208c0.144,0,0.283-0.021,0.419-0.062
			c0.135-0.042,0.273-0.109,0.414-0.204c0.142-0.094,0.287-0.217,0.436-0.369c0.149-0.152,0.312-0.338,0.49-0.56V21.108z"/>
		<path fill="#181716" d="M110.397,22.137c0,0.254-0.057,0.442-0.17,0.564c-0.113,0.122-0.27,0.182-0.469,0.182h-4.505
			c0,0.315,0.038,0.602,0.112,0.859c0.074,0.257,0.193,0.476,0.356,0.655s0.374,0.317,0.631,0.411
			c0.257,0.094,0.565,0.141,0.925,0.141c0.365,0,0.686-0.026,0.963-0.079c0.276-0.052,0.516-0.11,0.717-0.174
			c0.202-0.063,0.369-0.122,0.502-0.174s0.241-0.079,0.324-0.079c0.05,0,0.091,0.01,0.124,0.029s0.061,0.054,0.083,0.104
			s0.037,0.121,0.046,0.212c0.008,0.091,0.013,0.206,0.013,0.344c0,0.122-0.003,0.225-0.009,0.311
			c-0.006,0.086-0.014,0.159-0.024,0.221c-0.012,0.061-0.028,0.111-0.05,0.153c-0.022,0.041-0.052,0.081-0.088,0.12
			c-0.035,0.039-0.134,0.091-0.294,0.157s-0.365,0.132-0.614,0.195s-0.533,0.119-0.854,0.166c-0.32,0.047-0.663,0.07-1.028,0.07
			c-0.658,0-1.235-0.083-1.729-0.249c-0.495-0.166-0.909-0.417-1.24-0.755c-0.332-0.337-0.58-0.763-0.743-1.277
			c-0.163-0.515-0.244-1.117-0.244-1.809c0-0.658,0.085-1.251,0.257-1.78c0.172-0.528,0.42-0.976,0.747-1.344
			c0.326-0.368,0.723-0.648,1.19-0.842c0.467-0.193,0.994-0.29,1.58-0.29c0.619,0,1.149,0.091,1.589,0.273
			c0.439,0.183,0.801,0.436,1.082,0.759c0.282,0.324,0.49,0.707,0.622,1.149c0.133,0.442,0.199,0.924,0.199,1.444V22.137z
			 M108.374,21.54c0.016-0.586-0.102-1.047-0.354-1.381c-0.251-0.334-0.64-0.502-1.165-0.502c-0.266,0-0.496,0.05-0.692,0.149
			s-0.36,0.233-0.49,0.402c-0.13,0.168-0.229,0.368-0.298,0.597c-0.069,0.229-0.109,0.475-0.121,0.734H108.374z"/>
		<path fill="#181716" d="M117.106,19.341c0,0.199-0.006,0.362-0.017,0.49s-0.027,0.227-0.05,0.298
			c-0.021,0.072-0.051,0.122-0.087,0.149c-0.036,0.028-0.082,0.042-0.137,0.042c-0.045,0-0.095-0.009-0.149-0.029
			c-0.056-0.02-0.117-0.04-0.187-0.062c-0.069-0.022-0.146-0.042-0.229-0.062s-0.174-0.029-0.273-0.029
			c-0.116,0-0.232,0.023-0.349,0.07s-0.236,0.12-0.361,0.22c-0.124,0.1-0.254,0.232-0.39,0.398s-0.28,0.371-0.436,0.614v4.613
			c0,0.055-0.017,0.104-0.05,0.145c-0.033,0.042-0.09,0.076-0.17,0.104c-0.08,0.027-0.187,0.048-0.319,0.062
			c-0.133,0.015-0.302,0.021-0.506,0.021c-0.205,0-0.374-0.007-0.506-0.021c-0.133-0.014-0.239-0.034-0.319-0.062
			c-0.081-0.028-0.138-0.062-0.171-0.104c-0.033-0.041-0.05-0.09-0.05-0.145v-7.4c0-0.055,0.014-0.104,0.042-0.145
			c0.027-0.042,0.077-0.076,0.149-0.104c0.071-0.027,0.164-0.048,0.277-0.062s0.256-0.021,0.428-0.021
			c0.177,0,0.323,0.007,0.439,0.021s0.206,0.035,0.27,0.062c0.063,0.028,0.109,0.062,0.137,0.104
			c0.028,0.042,0.042,0.09,0.042,0.145v0.921c0.193-0.276,0.376-0.504,0.548-0.685c0.171-0.18,0.334-0.322,0.489-0.427
			c0.154-0.105,0.31-0.178,0.464-0.22c0.155-0.042,0.311-0.062,0.465-0.062c0.072,0,0.149,0.004,0.232,0.012
			s0.169,0.022,0.257,0.042c0.089,0.02,0.166,0.042,0.232,0.066s0.115,0.051,0.146,0.079c0.03,0.027,0.053,0.058,0.066,0.091
			s0.026,0.079,0.037,0.137s0.02,0.145,0.025,0.261C117.104,18.984,117.106,19.142,117.106,19.341z"/>
		<path fill="#181716" d="M123.633,23.962c0,0.42-0.079,0.791-0.236,1.112s-0.381,0.589-0.668,0.804
			c-0.287,0.216-0.628,0.378-1.021,0.485c-0.393,0.108-0.818,0.162-1.277,0.162c-0.276,0-0.541-0.021-0.792-0.062
			c-0.252-0.041-0.478-0.094-0.677-0.157s-0.365-0.129-0.497-0.195c-0.133-0.066-0.229-0.128-0.291-0.187
			c-0.061-0.058-0.107-0.149-0.141-0.273c-0.033-0.125-0.05-0.309-0.05-0.552c0-0.161,0.005-0.289,0.017-0.386
			c0.011-0.097,0.027-0.174,0.05-0.232c0.021-0.058,0.05-0.097,0.083-0.116c0.033-0.019,0.074-0.029,0.124-0.029
			c0.061,0,0.15,0.034,0.27,0.104s0.268,0.145,0.444,0.228s0.383,0.161,0.618,0.232c0.234,0.072,0.502,0.108,0.8,0.108
			c0.188,0,0.355-0.02,0.502-0.058s0.274-0.094,0.382-0.166c0.108-0.072,0.189-0.163,0.245-0.274
			c0.055-0.11,0.083-0.238,0.083-0.381c0-0.166-0.052-0.309-0.153-0.427c-0.103-0.119-0.238-0.223-0.407-0.311
			c-0.168-0.088-0.359-0.171-0.572-0.249s-0.432-0.163-0.655-0.257c-0.224-0.094-0.442-0.202-0.655-0.323s-0.404-0.271-0.572-0.448
			c-0.169-0.177-0.305-0.39-0.406-0.639c-0.103-0.249-0.154-0.547-0.154-0.896c0-0.354,0.069-0.679,0.208-0.975
			c0.138-0.296,0.337-0.549,0.597-0.759c0.26-0.21,0.577-0.374,0.95-0.489c0.373-0.116,0.792-0.174,1.257-0.174
			c0.232,0,0.458,0.017,0.676,0.05c0.219,0.033,0.416,0.075,0.594,0.125c0.177,0.049,0.326,0.104,0.448,0.162
			c0.121,0.058,0.208,0.108,0.261,0.149s0.09,0.083,0.112,0.124c0.021,0.042,0.038,0.091,0.05,0.149
			c0.011,0.058,0.021,0.13,0.029,0.216c0.008,0.086,0.012,0.192,0.012,0.319c0,0.149-0.004,0.271-0.012,0.365
			c-0.009,0.094-0.022,0.168-0.042,0.224c-0.02,0.056-0.046,0.093-0.079,0.112s-0.071,0.029-0.116,0.029
			c-0.05,0-0.127-0.029-0.231-0.087c-0.105-0.058-0.237-0.12-0.395-0.187s-0.34-0.129-0.548-0.187
			c-0.207-0.058-0.443-0.087-0.709-0.087c-0.188,0-0.352,0.02-0.489,0.058c-0.139,0.039-0.252,0.094-0.34,0.166
			c-0.089,0.072-0.155,0.156-0.199,0.253c-0.045,0.097-0.066,0.201-0.066,0.311c0,0.171,0.053,0.315,0.157,0.432
			c0.105,0.116,0.243,0.218,0.415,0.307c0.171,0.089,0.366,0.171,0.585,0.249c0.218,0.078,0.439,0.162,0.663,0.253
			c0.225,0.091,0.445,0.198,0.664,0.319c0.219,0.122,0.413,0.271,0.585,0.448c0.171,0.177,0.31,0.389,0.415,0.635
			C123.58,23.333,123.633,23.625,123.633,23.962z"/>
		<path fill="#181716" d="M132.507,26.053c0,0.055-0.017,0.104-0.05,0.145c-0.033,0.042-0.089,0.076-0.166,0.104
			c-0.077,0.027-0.184,0.048-0.319,0.062c-0.136,0.015-0.303,0.021-0.502,0.021c-0.204,0-0.374-0.007-0.51-0.021
			c-0.136-0.014-0.242-0.034-0.319-0.062c-0.078-0.028-0.133-0.062-0.166-0.104c-0.033-0.041-0.05-0.09-0.05-0.145V21.83
			c0-0.36-0.026-0.642-0.079-0.847c-0.053-0.204-0.128-0.38-0.228-0.526s-0.229-0.26-0.387-0.34c-0.157-0.08-0.341-0.12-0.551-0.12
			c-0.266,0-0.534,0.097-0.805,0.29c-0.271,0.194-0.554,0.476-0.847,0.846v4.92c0,0.055-0.017,0.104-0.05,0.145
			c-0.033,0.042-0.09,0.076-0.17,0.104c-0.08,0.027-0.187,0.048-0.319,0.062c-0.133,0.015-0.302,0.021-0.506,0.021
			c-0.205,0-0.374-0.007-0.507-0.021c-0.133-0.014-0.239-0.034-0.319-0.062c-0.08-0.028-0.137-0.062-0.17-0.104
			c-0.033-0.041-0.05-0.09-0.05-0.145v-10.91c0-0.055,0.017-0.105,0.05-0.149c0.033-0.044,0.09-0.082,0.17-0.112
			s0.187-0.054,0.319-0.07s0.302-0.025,0.507-0.025c0.204,0,0.373,0.008,0.506,0.025s0.239,0.04,0.319,0.07s0.137,0.068,0.17,0.112
			c0.033,0.044,0.05,0.094,0.05,0.149v4.09c0.359-0.354,0.726-0.618,1.1-0.792c0.373-0.174,0.762-0.261,1.165-0.261
			c0.504,0,0.928,0.083,1.273,0.249c0.346,0.166,0.625,0.393,0.838,0.68s0.366,0.624,0.461,1.008
			c0.094,0.384,0.141,0.85,0.141,1.398V26.053z"/>
		<path fill="#181716" d="M137.042,16.147c0,0.42-0.086,0.711-0.257,0.871c-0.172,0.161-0.489,0.241-0.954,0.241
			c-0.471,0-0.787-0.078-0.95-0.232s-0.244-0.434-0.244-0.838c0-0.42,0.084-0.712,0.253-0.875c0.168-0.163,0.487-0.245,0.958-0.245
			c0.465,0,0.779,0.079,0.945,0.237C136.959,15.462,137.042,15.743,137.042,16.147z M136.885,26.053c0,0.055-0.017,0.104-0.05,0.145
			c-0.033,0.042-0.09,0.076-0.17,0.104c-0.08,0.027-0.188,0.048-0.319,0.062c-0.133,0.015-0.302,0.021-0.507,0.021
			c-0.204,0-0.373-0.007-0.506-0.021c-0.133-0.014-0.239-0.034-0.319-0.062c-0.08-0.028-0.137-0.062-0.17-0.104
			c-0.033-0.041-0.05-0.09-0.05-0.145v-7.384c0-0.055,0.017-0.104,0.05-0.145s0.09-0.078,0.17-0.108s0.187-0.054,0.319-0.07
			c0.133-0.017,0.302-0.025,0.506-0.025c0.205,0,0.374,0.009,0.507,0.025c0.132,0.016,0.239,0.04,0.319,0.07s0.137,0.066,0.17,0.108
			s0.05,0.09,0.05,0.145V26.053z"/>
		<path fill="#181716" d="M146.654,22.245c0,0.658-0.07,1.251-0.211,1.78c-0.142,0.528-0.348,0.978-0.618,1.348
			c-0.271,0.371-0.608,0.655-1.013,0.854c-0.403,0.199-0.865,0.299-1.385,0.299c-0.216,0-0.414-0.021-0.594-0.062
			c-0.18-0.041-0.354-0.104-0.522-0.19s-0.336-0.192-0.502-0.319s-0.337-0.276-0.514-0.448v3.484c0,0.056-0.018,0.105-0.051,0.149
			c-0.032,0.044-0.09,0.081-0.17,0.112c-0.08,0.03-0.187,0.054-0.319,0.07s-0.301,0.024-0.506,0.024
			c-0.204,0-0.373-0.008-0.506-0.024s-0.239-0.04-0.319-0.07c-0.08-0.031-0.137-0.068-0.17-0.112s-0.05-0.094-0.05-0.149V18.652
			c0-0.055,0.014-0.104,0.041-0.145c0.028-0.042,0.076-0.076,0.146-0.104c0.069-0.027,0.16-0.048,0.273-0.062
			s0.256-0.021,0.428-0.021c0.166,0,0.305,0.007,0.419,0.021c0.113,0.014,0.204,0.035,0.273,0.062
			c0.069,0.028,0.117,0.062,0.146,0.104c0.027,0.042,0.041,0.09,0.041,0.145v0.871c0.216-0.221,0.428-0.416,0.635-0.585
			c0.207-0.168,0.419-0.31,0.635-0.423s0.438-0.198,0.668-0.253s0.474-0.083,0.734-0.083c0.542,0,1.004,0.106,1.385,0.319
			c0.382,0.213,0.693,0.505,0.934,0.875c0.24,0.371,0.416,0.802,0.527,1.294C146.6,21.161,146.654,21.686,146.654,22.245z
			 M144.481,22.394c0-0.315-0.023-0.618-0.07-0.909c-0.048-0.29-0.128-0.549-0.241-0.775s-0.263-0.408-0.448-0.543
			c-0.185-0.136-0.416-0.203-0.692-0.203c-0.139,0-0.275,0.021-0.41,0.062c-0.136,0.042-0.274,0.109-0.415,0.203
			c-0.142,0.094-0.286,0.216-0.436,0.365s-0.308,0.334-0.473,0.556v2.439c0.293,0.371,0.572,0.657,0.838,0.859
			c0.265,0.202,0.541,0.303,0.829,0.303c0.271,0,0.502-0.069,0.692-0.208c0.191-0.138,0.348-0.319,0.469-0.543
			c0.122-0.224,0.212-0.477,0.27-0.759C144.452,22.958,144.481,22.676,144.481,22.394z"/>
		<path fill="#181716" d="M156.109,24.708c0,0.138-0.004,0.256-0.013,0.353c-0.008,0.097-0.021,0.18-0.037,0.249
			c-0.017,0.069-0.039,0.128-0.066,0.178s-0.072,0.106-0.133,0.17s-0.178,0.146-0.353,0.245c-0.174,0.1-0.387,0.195-0.639,0.286
			s-0.539,0.167-0.863,0.229c-0.323,0.061-0.673,0.091-1.049,0.091c-0.735,0-1.399-0.113-1.991-0.34s-1.095-0.565-1.51-1.017
			c-0.415-0.451-0.732-1.013-0.954-1.688s-0.332-1.46-0.332-2.356c0-0.913,0.122-1.723,0.365-2.431s0.583-1.302,1.021-1.784
			c0.437-0.481,0.961-0.846,1.572-1.095c0.61-0.249,1.284-0.373,2.02-0.373c0.299,0,0.586,0.025,0.863,0.075
			c0.276,0.05,0.532,0.115,0.768,0.195c0.234,0.08,0.446,0.173,0.634,0.278c0.188,0.105,0.319,0.195,0.395,0.27
			c0.074,0.075,0.126,0.137,0.153,0.187s0.05,0.113,0.066,0.191c0.017,0.077,0.029,0.168,0.037,0.273
			c0.009,0.105,0.013,0.235,0.013,0.39c0,0.166-0.006,0.307-0.017,0.423s-0.03,0.21-0.058,0.282c-0.028,0.072-0.062,0.125-0.1,0.158
			c-0.039,0.033-0.083,0.05-0.133,0.05c-0.083,0-0.188-0.048-0.315-0.146c-0.127-0.097-0.292-0.205-0.494-0.323
			c-0.201-0.119-0.442-0.227-0.722-0.324s-0.612-0.145-0.999-0.145c-0.426,0-0.807,0.087-1.141,0.261
			c-0.335,0.174-0.62,0.423-0.854,0.747c-0.235,0.324-0.414,0.715-0.535,1.174c-0.122,0.459-0.183,0.977-0.183,1.552
			c0,0.63,0.064,1.176,0.194,1.638s0.315,0.842,0.557,1.141c0.24,0.299,0.53,0.521,0.87,0.668c0.341,0.146,0.724,0.22,1.149,0.22
			c0.388,0,0.722-0.045,1.004-0.137s0.524-0.192,0.726-0.303c0.202-0.111,0.368-0.21,0.498-0.299s0.23-0.133,0.303-0.133
			c0.056,0,0.1,0.011,0.133,0.033c0.033,0.022,0.061,0.066,0.083,0.133s0.039,0.159,0.05,0.278
			C156.104,24.351,156.109,24.509,156.109,24.708z"/>
		<path fill="#181716" d="M160.039,16.147c0,0.42-0.086,0.711-0.257,0.871c-0.172,0.161-0.49,0.241-0.954,0.241
			c-0.471,0-0.787-0.078-0.95-0.232s-0.245-0.434-0.245-0.838c0-0.42,0.085-0.712,0.253-0.875c0.169-0.163,0.488-0.245,0.959-0.245
			c0.464,0,0.779,0.079,0.945,0.237C159.956,15.462,160.039,15.743,160.039,16.147z M159.882,26.053
			c0,0.055-0.017,0.104-0.051,0.145c-0.032,0.042-0.09,0.076-0.17,0.104c-0.08,0.027-0.187,0.048-0.319,0.062
			c-0.133,0.015-0.301,0.021-0.506,0.021c-0.204,0-0.373-0.007-0.506-0.021c-0.133-0.014-0.239-0.034-0.319-0.062
			c-0.08-0.028-0.137-0.062-0.17-0.104c-0.033-0.041-0.05-0.09-0.05-0.145v-7.384c0-0.055,0.017-0.104,0.05-0.145
			s0.09-0.078,0.17-0.108s0.187-0.054,0.319-0.07c0.133-0.017,0.302-0.025,0.506-0.025c0.205,0,0.373,0.009,0.506,0.025
			c0.133,0.016,0.239,0.04,0.319,0.07s0.138,0.066,0.17,0.108c0.034,0.042,0.051,0.09,0.051,0.145V26.053z"/>
		<path fill="#181716" d="M166.955,19.341c0,0.199-0.006,0.362-0.017,0.49s-0.027,0.227-0.05,0.298
			c-0.022,0.072-0.051,0.122-0.087,0.149c-0.036,0.028-0.082,0.042-0.137,0.042c-0.045,0-0.095-0.009-0.149-0.029
			c-0.056-0.02-0.118-0.04-0.187-0.062c-0.069-0.022-0.146-0.042-0.229-0.062s-0.174-0.029-0.273-0.029
			c-0.116,0-0.232,0.023-0.349,0.07s-0.236,0.12-0.361,0.22c-0.124,0.1-0.254,0.232-0.39,0.398s-0.28,0.371-0.436,0.614v4.613
			c0,0.055-0.017,0.104-0.05,0.145c-0.033,0.042-0.09,0.076-0.17,0.104c-0.08,0.027-0.187,0.048-0.319,0.062
			c-0.133,0.015-0.302,0.021-0.506,0.021c-0.205,0-0.373-0.007-0.506-0.021c-0.133-0.014-0.24-0.034-0.32-0.062
			c-0.08-0.028-0.137-0.062-0.17-0.104c-0.033-0.041-0.05-0.09-0.05-0.145v-7.4c0-0.055,0.014-0.104,0.042-0.145
			c0.027-0.042,0.077-0.076,0.149-0.104c0.071-0.027,0.164-0.048,0.277-0.062s0.256-0.021,0.428-0.021
			c0.177,0,0.323,0.007,0.439,0.021s0.206,0.035,0.27,0.062c0.063,0.028,0.109,0.062,0.137,0.104
			c0.028,0.042,0.042,0.09,0.042,0.145v0.921c0.193-0.276,0.376-0.504,0.548-0.685c0.171-0.18,0.334-0.322,0.489-0.427
			c0.154-0.105,0.31-0.178,0.464-0.22c0.155-0.042,0.31-0.062,0.465-0.062c0.072,0,0.149,0.004,0.232,0.012s0.169,0.022,0.257,0.042
			c0.089,0.02,0.166,0.042,0.232,0.066s0.115,0.051,0.146,0.079c0.03,0.027,0.053,0.058,0.066,0.091s0.026,0.079,0.037,0.137
			s0.02,0.145,0.024,0.261C166.952,18.984,166.955,19.142,166.955,19.341z"/>
		<path fill="#181716" d="M173.838,24.875c0,0.144-0.004,0.264-0.012,0.361c-0.009,0.097-0.02,0.179-0.033,0.245
			c-0.015,0.066-0.031,0.12-0.05,0.161c-0.02,0.042-0.062,0.095-0.129,0.158s-0.18,0.141-0.34,0.232
			c-0.161,0.091-0.344,0.173-0.548,0.244c-0.205,0.072-0.427,0.13-0.668,0.175c-0.24,0.044-0.488,0.066-0.742,0.066
			c-0.57,0-1.074-0.089-1.515-0.266c-0.439-0.178-0.809-0.438-1.107-0.784c-0.298-0.346-0.523-0.768-0.676-1.265
			c-0.152-0.498-0.229-1.067-0.229-1.709c0-0.741,0.093-1.381,0.278-1.921c0.186-0.539,0.444-0.985,0.775-1.339
			c0.332-0.354,0.725-0.617,1.179-0.789c0.453-0.171,0.951-0.257,1.493-0.257c0.221,0,0.438,0.02,0.651,0.058
			s0.412,0.091,0.597,0.157c0.186,0.066,0.352,0.141,0.498,0.224s0.25,0.155,0.312,0.216c0.061,0.061,0.104,0.112,0.128,0.153
			c0.025,0.042,0.044,0.096,0.059,0.162c0.014,0.066,0.024,0.148,0.033,0.245c0.008,0.097,0.012,0.214,0.012,0.353
			c0,0.321-0.027,0.546-0.083,0.676c-0.055,0.13-0.127,0.195-0.215,0.195c-0.095,0-0.194-0.039-0.299-0.116
			c-0.105-0.077-0.229-0.163-0.374-0.257c-0.144-0.094-0.314-0.18-0.514-0.257c-0.199-0.078-0.438-0.116-0.714-0.116
			c-0.542,0-0.957,0.208-1.244,0.626c-0.288,0.417-0.432,1.03-0.432,1.837c0,0.398,0.036,0.75,0.108,1.054
			c0.071,0.304,0.178,0.559,0.319,0.763c0.141,0.205,0.317,0.358,0.53,0.46s0.461,0.153,0.743,0.153
			c0.287,0,0.535-0.042,0.742-0.128s0.389-0.181,0.543-0.287c0.155-0.104,0.285-0.2,0.391-0.286
			c0.104-0.085,0.193-0.128,0.266-0.128c0.049,0,0.091,0.014,0.124,0.042c0.033,0.028,0.06,0.079,0.079,0.153
			c0.019,0.075,0.034,0.17,0.045,0.287C173.833,24.542,173.838,24.692,173.838,24.875z"/>
		<path fill="#181716" d="M177.677,26.053c0,0.055-0.017,0.104-0.05,0.145c-0.033,0.042-0.09,0.076-0.17,0.104
			c-0.08,0.027-0.187,0.048-0.319,0.062c-0.133,0.015-0.302,0.021-0.507,0.021c-0.204,0-0.373-0.007-0.506-0.021
			c-0.133-0.014-0.239-0.034-0.319-0.062c-0.08-0.028-0.137-0.062-0.17-0.104c-0.033-0.041-0.05-0.09-0.05-0.145v-10.91
			c0-0.055,0.017-0.105,0.05-0.149c0.033-0.044,0.09-0.082,0.17-0.112s0.187-0.054,0.319-0.07s0.302-0.025,0.506-0.025
			c0.205,0,0.374,0.008,0.507,0.025s0.239,0.04,0.319,0.07s0.137,0.068,0.17,0.112c0.033,0.044,0.05,0.094,0.05,0.149V26.053z"/>
		<path fill="#181716" d="M186.833,22.137c0,0.254-0.057,0.442-0.17,0.564c-0.114,0.122-0.271,0.182-0.469,0.182h-4.505
			c0,0.315,0.037,0.602,0.111,0.859c0.075,0.257,0.194,0.476,0.357,0.655s0.373,0.317,0.63,0.411
			c0.258,0.094,0.565,0.141,0.926,0.141c0.364,0,0.686-0.026,0.962-0.079c0.276-0.052,0.516-0.11,0.718-0.174
			c0.201-0.063,0.369-0.122,0.502-0.174s0.24-0.079,0.323-0.079c0.05,0,0.091,0.01,0.124,0.029s0.062,0.054,0.083,0.104
			c0.022,0.05,0.038,0.121,0.046,0.212c0.009,0.091,0.013,0.206,0.013,0.344c0,0.122-0.003,0.225-0.009,0.311
			c-0.005,0.086-0.014,0.159-0.024,0.221c-0.011,0.061-0.028,0.111-0.05,0.153c-0.022,0.041-0.051,0.081-0.087,0.12
			s-0.135,0.091-0.295,0.157s-0.365,0.132-0.614,0.195c-0.248,0.063-0.533,0.119-0.854,0.166c-0.321,0.047-0.664,0.07-1.029,0.07
			c-0.658,0-1.234-0.083-1.729-0.249s-0.908-0.417-1.24-0.755c-0.332-0.337-0.579-0.763-0.743-1.277
			c-0.163-0.515-0.244-1.117-0.244-1.809c0-0.658,0.086-1.251,0.257-1.78c0.172-0.528,0.421-0.976,0.747-1.344
			s0.723-0.648,1.19-0.842c0.467-0.193,0.994-0.29,1.58-0.29c0.62,0,1.149,0.091,1.589,0.273c0.439,0.183,0.801,0.436,1.083,0.759
			c0.281,0.324,0.489,0.707,0.622,1.149s0.199,0.924,0.199,1.444V22.137z M184.809,21.54c0.017-0.586-0.101-1.047-0.353-1.381
			s-0.641-0.502-1.166-0.502c-0.266,0-0.496,0.05-0.692,0.149s-0.359,0.233-0.489,0.402c-0.131,0.168-0.229,0.368-0.299,0.597
			s-0.109,0.475-0.12,0.734H184.809z"/>
		<path fill="#181716" d="M193.998,23.962c0,0.42-0.079,0.791-0.236,1.112c-0.158,0.321-0.381,0.589-0.668,0.804
			c-0.288,0.216-0.628,0.378-1.021,0.485c-0.393,0.108-0.818,0.162-1.277,0.162c-0.277,0-0.541-0.021-0.793-0.062
			c-0.252-0.041-0.477-0.094-0.676-0.157s-0.365-0.129-0.498-0.195s-0.229-0.128-0.29-0.187c-0.061-0.058-0.108-0.149-0.141-0.273
			c-0.034-0.125-0.05-0.309-0.05-0.552c0-0.161,0.005-0.289,0.016-0.386c0.012-0.097,0.028-0.174,0.05-0.232
			c0.022-0.058,0.05-0.097,0.083-0.116c0.033-0.019,0.075-0.029,0.125-0.029c0.061,0,0.15,0.034,0.27,0.104s0.267,0.145,0.443,0.228
			c0.178,0.083,0.384,0.161,0.618,0.232c0.235,0.072,0.502,0.108,0.801,0.108c0.188,0,0.355-0.02,0.502-0.058
			s0.273-0.094,0.382-0.166c0.107-0.072,0.189-0.163,0.244-0.274c0.056-0.11,0.084-0.238,0.084-0.381
			c0-0.166-0.052-0.309-0.154-0.427c-0.103-0.119-0.237-0.223-0.406-0.311s-0.359-0.171-0.572-0.249s-0.432-0.163-0.655-0.257
			c-0.225-0.094-0.442-0.202-0.655-0.323s-0.404-0.271-0.573-0.448c-0.168-0.177-0.304-0.39-0.406-0.639s-0.153-0.547-0.153-0.896
			c0-0.354,0.069-0.679,0.207-0.975c0.139-0.296,0.338-0.549,0.598-0.759c0.26-0.21,0.576-0.374,0.95-0.489
			c0.373-0.116,0.792-0.174,1.257-0.174c0.232,0,0.457,0.017,0.676,0.05s0.416,0.075,0.594,0.125
			c0.177,0.049,0.326,0.104,0.447,0.162c0.122,0.058,0.209,0.108,0.262,0.149s0.09,0.083,0.112,0.124
			c0.021,0.042,0.038,0.091,0.05,0.149c0.011,0.058,0.021,0.13,0.028,0.216c0.009,0.086,0.013,0.192,0.013,0.319
			c0,0.149-0.004,0.271-0.013,0.365c-0.008,0.094-0.022,0.168-0.041,0.224c-0.02,0.056-0.046,0.093-0.079,0.112
			s-0.072,0.029-0.116,0.029c-0.05,0-0.127-0.029-0.232-0.087c-0.104-0.058-0.236-0.12-0.394-0.187
			c-0.158-0.066-0.341-0.129-0.548-0.187s-0.443-0.087-0.709-0.087c-0.188,0-0.352,0.02-0.489,0.058
			c-0.139,0.039-0.252,0.094-0.341,0.166s-0.154,0.156-0.199,0.253c-0.044,0.097-0.066,0.201-0.066,0.311
			c0,0.171,0.053,0.315,0.158,0.432c0.104,0.116,0.243,0.218,0.415,0.307c0.171,0.089,0.366,0.171,0.584,0.249
			c0.219,0.078,0.44,0.162,0.664,0.253s0.445,0.198,0.664,0.319c0.218,0.122,0.413,0.271,0.585,0.448
			c0.171,0.177,0.31,0.389,0.414,0.635C193.945,23.333,193.998,23.625,193.998,23.962z"/>
		<path fill="#181716" d="M198.425,19.781c0,0.232-0.02,0.426-0.058,0.581c-0.039,0.155-0.104,0.282-0.195,0.382
			c-0.091,0.1-0.211,0.17-0.36,0.211s-0.338,0.062-0.564,0.062s-0.415-0.021-0.564-0.062c-0.148-0.042-0.27-0.112-0.36-0.211
			c-0.092-0.1-0.153-0.227-0.187-0.382s-0.05-0.348-0.05-0.581c0-0.238,0.017-0.437,0.05-0.597c0.033-0.161,0.095-0.291,0.187-0.39
			c0.091-0.1,0.212-0.171,0.36-0.216c0.149-0.044,0.338-0.066,0.564-0.066s0.415,0.022,0.564,0.066
			c0.149,0.044,0.27,0.116,0.36,0.216c0.092,0.1,0.156,0.229,0.195,0.39C198.405,19.344,198.425,19.543,198.425,19.781z
			 M198.425,25.198c0,0.232-0.02,0.427-0.058,0.585c-0.039,0.157-0.104,0.286-0.195,0.386c-0.091,0.1-0.211,0.17-0.36,0.211
			c-0.149,0.042-0.338,0.062-0.564,0.062s-0.415-0.021-0.564-0.062c-0.148-0.041-0.27-0.111-0.36-0.211
			c-0.092-0.1-0.153-0.229-0.187-0.386c-0.033-0.158-0.05-0.353-0.05-0.585s0.017-0.43,0.05-0.593s0.095-0.294,0.187-0.394
			c0.091-0.1,0.212-0.17,0.36-0.212c0.149-0.041,0.338-0.062,0.564-0.062s0.415,0.021,0.564,0.062
			c0.149,0.042,0.27,0.112,0.36,0.212c0.092,0.1,0.156,0.231,0.195,0.394C198.405,24.768,198.425,24.966,198.425,25.198z"/>
		<path fill="#181716" d="M66.974,41.306c0,0.077-0.028,0.138-0.083,0.182c-0.056,0.045-0.143,0.076-0.262,0.096
			s-0.295,0.029-0.526,0.029c-0.249,0-0.431-0.01-0.544-0.029s-0.193-0.051-0.24-0.096c-0.047-0.044-0.07-0.104-0.07-0.182v-0.59
			c-0.305,0.327-0.651,0.581-1.042,0.764c-0.39,0.183-0.822,0.273-1.298,0.273c-0.393,0-0.754-0.051-1.083-0.153
			s-0.613-0.254-0.854-0.456c-0.24-0.202-0.427-0.452-0.56-0.751s-0.199-0.647-0.199-1.045c0-0.432,0.084-0.807,0.253-1.124
			c0.169-0.318,0.421-0.581,0.755-0.788c0.335-0.208,0.751-0.361,1.249-0.461c0.497-0.1,1.075-0.149,1.733-0.149h0.722v-0.447
			c0-0.232-0.023-0.437-0.07-0.61s-0.124-0.319-0.232-0.436c-0.107-0.116-0.252-0.202-0.432-0.257
			c-0.18-0.056-0.402-0.083-0.667-0.083c-0.349,0-0.66,0.038-0.934,0.116c-0.273,0.077-0.516,0.163-0.727,0.257
			c-0.21,0.095-0.385,0.18-0.526,0.257c-0.141,0.078-0.256,0.116-0.344,0.116c-0.062,0-0.115-0.019-0.162-0.058
			s-0.086-0.094-0.116-0.166s-0.054-0.16-0.07-0.266c-0.017-0.104-0.025-0.221-0.025-0.349c0-0.171,0.014-0.307,0.042-0.406
			c0.027-0.1,0.08-0.189,0.157-0.27s0.213-0.169,0.406-0.266c0.194-0.097,0.421-0.187,0.681-0.27s0.543-0.15,0.851-0.203
			c0.307-0.053,0.623-0.079,0.949-0.079c0.581,0,1.077,0.057,1.489,0.17s0.751,0.288,1.017,0.523
			c0.266,0.234,0.459,0.537,0.581,0.908c0.121,0.37,0.183,0.811,0.183,1.318V41.306z M64.924,38.136h-0.796
			c-0.338,0-0.625,0.025-0.863,0.075c-0.237,0.05-0.432,0.124-0.58,0.224c-0.149,0.1-0.259,0.22-0.328,0.361
			c-0.069,0.141-0.104,0.303-0.104,0.485c0,0.31,0.098,0.553,0.294,0.729c0.196,0.178,0.469,0.266,0.817,0.266
			c0.293,0,0.562-0.074,0.809-0.224s0.497-0.368,0.751-0.655V38.136z"/>
		<path fill="#181716" d="M75.964,34.395c0,0.266-0.031,0.462-0.092,0.589c-0.061,0.128-0.136,0.191-0.224,0.191h-0.871
			c0.121,0.133,0.208,0.283,0.261,0.452c0.053,0.168,0.079,0.344,0.079,0.526c0,0.432-0.072,0.814-0.216,1.149
			c-0.144,0.334-0.35,0.616-0.618,0.846c-0.268,0.229-0.592,0.404-0.971,0.522c-0.379,0.119-0.8,0.179-1.265,0.179
			c-0.238,0-0.465-0.029-0.681-0.087c-0.216-0.059-0.382-0.126-0.497-0.203c-0.066,0.071-0.126,0.157-0.179,0.257
			s-0.079,0.21-0.079,0.332c0,0.16,0.07,0.292,0.212,0.394c0.141,0.103,0.339,0.159,0.593,0.171l1.801,0.065
			c0.42,0.018,0.795,0.076,1.124,0.179s0.605,0.246,0.829,0.432c0.225,0.186,0.396,0.408,0.515,0.668s0.179,0.556,0.179,0.888
			c0,0.364-0.081,0.709-0.241,1.032c-0.16,0.324-0.4,0.604-0.722,0.843c-0.32,0.237-0.723,0.426-1.207,0.563
			c-0.484,0.139-1.049,0.208-1.696,0.208c-0.631,0-1.169-0.05-1.613-0.149c-0.445-0.1-0.811-0.238-1.096-0.415
			c-0.284-0.177-0.492-0.389-0.622-0.635s-0.195-0.516-0.195-0.809c0-0.183,0.023-0.357,0.071-0.522
			c0.047-0.166,0.116-0.325,0.207-0.478c0.091-0.151,0.203-0.297,0.336-0.436c0.133-0.138,0.285-0.271,0.456-0.398
			c-0.237-0.127-0.422-0.3-0.552-0.519c-0.13-0.218-0.194-0.457-0.194-0.717c0-0.326,0.074-0.624,0.224-0.893
			c0.149-0.268,0.343-0.51,0.581-0.726c-0.194-0.193-0.349-0.426-0.465-0.697c-0.116-0.271-0.174-0.607-0.174-1.012
			c0-0.432,0.075-0.817,0.228-1.157s0.364-0.628,0.635-0.863c0.271-0.234,0.595-0.414,0.971-0.539
			c0.376-0.124,0.791-0.187,1.244-0.187c0.232,0,0.455,0.014,0.668,0.042c0.213,0.027,0.411,0.066,0.594,0.116h2.348
			c0.094,0,0.17,0.061,0.228,0.182C75.935,33.902,75.964,34.107,75.964,34.395z M73.773,42.052c0-0.249-0.1-0.439-0.299-0.572
			s-0.473-0.204-0.821-0.216l-1.485-0.041c-0.144,0.104-0.258,0.206-0.344,0.303s-0.155,0.189-0.208,0.277
			c-0.053,0.089-0.087,0.175-0.104,0.258s-0.024,0.168-0.024,0.257c0,0.276,0.14,0.486,0.419,0.631
			c0.279,0.144,0.673,0.215,1.182,0.215c0.315,0,0.581-0.031,0.797-0.095s0.39-0.148,0.522-0.253
			c0.133-0.105,0.227-0.223,0.282-0.353C73.745,42.333,73.773,42.195,73.773,42.052z M73.284,36.146c0-0.398-0.111-0.708-0.332-0.93
			c-0.222-0.221-0.534-0.332-0.938-0.332c-0.205,0-0.385,0.035-0.539,0.104c-0.155,0.068-0.284,0.163-0.386,0.281
			c-0.103,0.119-0.179,0.258-0.229,0.415c-0.05,0.158-0.074,0.322-0.074,0.494c0,0.376,0.11,0.673,0.331,0.892
			c0.222,0.219,0.528,0.327,0.921,0.327c0.21,0,0.393-0.033,0.548-0.1c0.154-0.065,0.283-0.157,0.386-0.273s0.18-0.25,0.232-0.402
			S73.284,36.312,73.284,36.146z"/>
		<path fill="#181716" d="M79.835,31.375c0,0.42-0.086,0.711-0.257,0.871c-0.172,0.16-0.49,0.24-0.954,0.24
			c-0.471,0-0.787-0.077-0.95-0.232c-0.163-0.154-0.245-0.434-0.245-0.838c0-0.42,0.085-0.712,0.254-0.875
			c0.168-0.163,0.487-0.245,0.958-0.245c0.464,0,0.779,0.079,0.945,0.237C79.752,30.69,79.835,30.972,79.835,31.375z M79.678,41.28
			c0,0.056-0.017,0.104-0.05,0.146c-0.033,0.041-0.09,0.076-0.17,0.104c-0.081,0.027-0.188,0.049-0.32,0.062
			s-0.301,0.021-0.506,0.021c-0.204,0-0.373-0.007-0.506-0.021s-0.239-0.035-0.319-0.062s-0.137-0.062-0.17-0.104
			c-0.033-0.042-0.05-0.09-0.05-0.146v-7.384c0-0.055,0.017-0.104,0.05-0.145c0.033-0.042,0.09-0.077,0.17-0.108
			c0.08-0.03,0.187-0.054,0.319-0.07s0.302-0.024,0.506-0.024c0.205,0,0.373,0.008,0.506,0.024s0.239,0.04,0.32,0.07
			c0.08,0.031,0.137,0.066,0.17,0.108c0.033,0.041,0.05,0.09,0.05,0.145V41.28z"/>
		<path fill="#181716" d="M84.088,41.28c0,0.056-0.017,0.104-0.05,0.146c-0.033,0.041-0.09,0.076-0.17,0.104
			s-0.187,0.049-0.319,0.062s-0.302,0.021-0.506,0.021c-0.205,0-0.373-0.007-0.506-0.021s-0.239-0.035-0.319-0.062
			s-0.138-0.062-0.17-0.104c-0.033-0.042-0.051-0.09-0.051-0.146V30.371c0-0.056,0.018-0.105,0.051-0.149
			c0.032-0.044,0.09-0.081,0.17-0.112c0.08-0.03,0.187-0.054,0.319-0.07s0.301-0.024,0.506-0.024c0.204,0,0.373,0.008,0.506,0.024
			s0.239,0.04,0.319,0.07c0.08,0.031,0.137,0.068,0.17,0.112s0.05,0.094,0.05,0.149V41.28z"/>
		<path fill="#181716" d="M93.244,37.364c0,0.255-0.057,0.443-0.17,0.564c-0.113,0.122-0.27,0.183-0.469,0.183h-4.505
			c0,0.315,0.037,0.602,0.112,0.858c0.074,0.258,0.193,0.476,0.356,0.655c0.163,0.181,0.373,0.317,0.631,0.411
			c0.257,0.094,0.565,0.141,0.925,0.141c0.365,0,0.686-0.026,0.962-0.078c0.277-0.053,0.516-0.111,0.718-0.175
			s0.369-0.121,0.502-0.174s0.241-0.079,0.323-0.079c0.05,0,0.092,0.01,0.125,0.029s0.061,0.054,0.083,0.104
			c0.021,0.05,0.037,0.12,0.046,0.212c0.008,0.091,0.012,0.206,0.012,0.344c0,0.122-0.003,0.226-0.008,0.312
			c-0.006,0.086-0.014,0.159-0.025,0.22c-0.011,0.061-0.027,0.112-0.05,0.153c-0.021,0.041-0.051,0.082-0.087,0.12
			c-0.036,0.039-0.134,0.092-0.294,0.158c-0.161,0.066-0.365,0.131-0.614,0.194s-0.534,0.119-0.854,0.166
			c-0.321,0.047-0.664,0.07-1.028,0.07c-0.658,0-1.235-0.083-1.73-0.248c-0.495-0.166-0.908-0.418-1.24-0.756
			c-0.332-0.337-0.579-0.763-0.742-1.277c-0.163-0.514-0.245-1.117-0.245-1.809c0-0.658,0.086-1.251,0.258-1.779
			c0.171-0.528,0.42-0.976,0.746-1.344s0.724-0.648,1.19-0.842c0.468-0.194,0.994-0.291,1.58-0.291c0.62,0,1.149,0.092,1.589,0.273
			c0.44,0.183,0.801,0.437,1.083,0.76s0.489,0.706,0.622,1.148c0.133,0.443,0.199,0.924,0.199,1.444V37.364z M91.22,36.768
			c0.017-0.587-0.101-1.047-0.353-1.382c-0.252-0.334-0.64-0.502-1.165-0.502c-0.266,0-0.497,0.05-0.693,0.149
			s-0.359,0.234-0.489,0.402c-0.13,0.169-0.229,0.368-0.299,0.598s-0.109,0.475-0.12,0.734H91.22z"/>
		<path fill="#181716" d="M105.426,31.724c0,0.166-0.007,0.306-0.021,0.419s-0.036,0.203-0.066,0.27s-0.065,0.116-0.104,0.149
			c-0.039,0.033-0.083,0.05-0.133,0.05h-3.51v2.887h3.294c0.05,0,0.094,0.014,0.133,0.042c0.038,0.027,0.073,0.074,0.104,0.141
			s0.053,0.155,0.066,0.266s0.021,0.249,0.021,0.414c0,0.166-0.007,0.305-0.021,0.415c-0.014,0.111-0.036,0.202-0.066,0.274
			c-0.03,0.071-0.065,0.123-0.104,0.153c-0.039,0.03-0.083,0.046-0.133,0.046h-3.294v3.998c0,0.061-0.017,0.113-0.05,0.158
			c-0.033,0.044-0.093,0.081-0.178,0.111c-0.086,0.03-0.198,0.054-0.336,0.07c-0.139,0.017-0.315,0.025-0.531,0.025
			c-0.21,0-0.386-0.009-0.526-0.025c-0.142-0.017-0.254-0.04-0.337-0.07s-0.142-0.067-0.178-0.111
			c-0.036-0.045-0.054-0.098-0.054-0.158v-9.731c0-0.243,0.062-0.419,0.187-0.526c0.124-0.107,0.277-0.162,0.46-0.162h5.053
			c0.05,0,0.094,0.016,0.133,0.046c0.038,0.03,0.073,0.08,0.104,0.149s0.053,0.162,0.066,0.277
			C105.419,31.416,105.426,31.558,105.426,31.724z"/>
		<path fill="#181716" d="M114.333,41.28c0,0.056-0.014,0.104-0.041,0.146c-0.028,0.041-0.076,0.076-0.146,0.104
			s-0.161,0.049-0.274,0.062s-0.256,0.021-0.427,0.021c-0.183,0-0.331-0.007-0.444-0.021s-0.203-0.035-0.27-0.062
			s-0.113-0.062-0.141-0.104c-0.027-0.042-0.041-0.09-0.041-0.146v-0.854c-0.41,0.442-0.826,0.774-1.249,0.996
			c-0.423,0.221-0.861,0.331-1.315,0.331c-0.509,0-0.936-0.083-1.281-0.248c-0.346-0.166-0.625-0.394-0.838-0.681
			c-0.213-0.288-0.365-0.621-0.456-1c-0.092-0.379-0.137-0.851-0.137-1.414v-4.53c0-0.055,0.015-0.104,0.045-0.145
			c0.03-0.042,0.086-0.076,0.166-0.104c0.08-0.028,0.188-0.049,0.323-0.062c0.136-0.014,0.304-0.021,0.502-0.021
			c0.205,0,0.374,0.007,0.507,0.021s0.239,0.034,0.319,0.062c0.08,0.027,0.137,0.062,0.17,0.104c0.033,0.041,0.05,0.09,0.05,0.145
			v4.182c0,0.387,0.024,0.683,0.074,0.888s0.126,0.38,0.229,0.526c0.103,0.147,0.232,0.261,0.39,0.341
			c0.158,0.08,0.342,0.12,0.552,0.12c0.266,0,0.532-0.097,0.801-0.29c0.269-0.194,0.555-0.476,0.858-0.847v-4.92
			c0-0.055,0.016-0.104,0.046-0.145c0.03-0.042,0.086-0.076,0.166-0.104c0.08-0.028,0.187-0.049,0.319-0.062
			s0.301-0.021,0.506-0.021s0.373,0.007,0.506,0.021s0.238,0.034,0.315,0.062c0.077,0.027,0.133,0.062,0.166,0.104
			c0.033,0.041,0.05,0.09,0.05,0.145V41.28z M110.26,31.383c0,0.388-0.073,0.657-0.22,0.81s-0.425,0.228-0.834,0.228
			c-0.415,0-0.694-0.073-0.838-0.22s-0.216-0.405-0.216-0.775c0-0.398,0.075-0.672,0.224-0.821c0.149-0.149,0.426-0.225,0.83-0.225
			c0.42,0,0.701,0.074,0.842,0.221C110.189,30.746,110.26,31.007,110.26,31.383z M113.503,31.383c0,0.388-0.073,0.657-0.22,0.81
			s-0.427,0.228-0.842,0.228c-0.409,0-0.686-0.073-0.829-0.22c-0.145-0.146-0.216-0.405-0.216-0.775c0-0.398,0.073-0.672,0.22-0.821
			s0.424-0.225,0.834-0.225c0.414,0,0.693,0.074,0.838,0.221C113.432,30.746,113.503,31.007,113.503,31.383z"/>
		<path fill="#181716" d="M123.738,41.28c0,0.056-0.017,0.104-0.05,0.146c-0.033,0.041-0.089,0.076-0.166,0.104
			c-0.078,0.027-0.184,0.049-0.319,0.062s-0.303,0.021-0.502,0.021c-0.205,0-0.375-0.007-0.511-0.021
			c-0.135-0.014-0.241-0.035-0.319-0.062c-0.077-0.027-0.133-0.062-0.165-0.104c-0.034-0.042-0.051-0.09-0.051-0.146v-4.223
			c0-0.359-0.025-0.642-0.078-0.846c-0.053-0.205-0.129-0.381-0.229-0.527s-0.229-0.26-0.386-0.34s-0.342-0.12-0.552-0.12
			c-0.266,0-0.533,0.097-0.805,0.29c-0.271,0.193-0.553,0.476-0.846,0.846v4.92c0,0.056-0.017,0.104-0.05,0.146
			c-0.033,0.041-0.091,0.076-0.171,0.104s-0.187,0.049-0.318,0.062c-0.133,0.014-0.302,0.021-0.507,0.021
			c-0.204,0-0.373-0.007-0.506-0.021s-0.239-0.035-0.319-0.062s-0.137-0.062-0.17-0.104c-0.033-0.042-0.05-0.09-0.05-0.146V30.371
			c0-0.056,0.017-0.105,0.05-0.149s0.09-0.081,0.17-0.112c0.08-0.03,0.187-0.054,0.319-0.07s0.302-0.024,0.506-0.024
			c0.205,0,0.374,0.008,0.507,0.024c0.132,0.017,0.238,0.04,0.318,0.07c0.08,0.031,0.138,0.068,0.171,0.112s0.05,0.094,0.05,0.149
			v4.09c0.359-0.354,0.726-0.618,1.099-0.792c0.374-0.175,0.762-0.262,1.166-0.262c0.503,0,0.928,0.083,1.273,0.249
			s0.625,0.393,0.838,0.681c0.213,0.287,0.366,0.623,0.46,1.008c0.095,0.385,0.142,0.851,0.142,1.397V41.28z"/>
		<path fill="#181716" d="M130.778,34.569c0,0.198-0.006,0.361-0.017,0.489c-0.011,0.127-0.027,0.227-0.05,0.299
			c-0.021,0.071-0.051,0.121-0.087,0.148c-0.036,0.028-0.082,0.042-0.137,0.042c-0.044,0-0.094-0.01-0.149-0.029
			s-0.117-0.04-0.187-0.062c-0.069-0.022-0.146-0.043-0.229-0.062s-0.174-0.029-0.273-0.029c-0.116,0-0.232,0.023-0.349,0.07
			s-0.236,0.12-0.36,0.22c-0.125,0.1-0.255,0.232-0.391,0.398s-0.28,0.371-0.436,0.614v4.612c0,0.056-0.017,0.104-0.05,0.146
			c-0.033,0.041-0.09,0.076-0.17,0.104s-0.187,0.049-0.319,0.062s-0.302,0.021-0.506,0.021c-0.205,0-0.373-0.007-0.506-0.021
			s-0.239-0.035-0.319-0.062s-0.138-0.062-0.17-0.104c-0.033-0.042-0.05-0.09-0.05-0.146v-7.4c0-0.055,0.014-0.104,0.041-0.145
			c0.027-0.042,0.077-0.076,0.149-0.104c0.071-0.028,0.164-0.049,0.278-0.062c0.113-0.014,0.255-0.021,0.427-0.021
			c0.177,0,0.323,0.007,0.439,0.021s0.206,0.034,0.27,0.062c0.063,0.027,0.109,0.062,0.138,0.104
			c0.027,0.041,0.041,0.09,0.041,0.145v0.921c0.193-0.276,0.376-0.504,0.548-0.684c0.171-0.18,0.334-0.322,0.489-0.428
			c0.154-0.104,0.31-0.179,0.465-0.22c0.154-0.042,0.31-0.062,0.464-0.062c0.072,0,0.149,0.004,0.232,0.013
			c0.083,0.008,0.169,0.022,0.258,0.041c0.088,0.02,0.166,0.042,0.232,0.066c0.065,0.025,0.114,0.052,0.145,0.079
			s0.053,0.059,0.066,0.092s0.026,0.078,0.037,0.137c0.012,0.058,0.02,0.145,0.025,0.261
			C130.775,34.212,130.778,34.37,130.778,34.569z"/>
		<path fill="#181716" d="M139.321,41.28c0,0.056-0.015,0.104-0.042,0.146c-0.027,0.041-0.076,0.076-0.146,0.104
			c-0.068,0.027-0.16,0.049-0.273,0.062s-0.256,0.021-0.427,0.021c-0.183,0-0.331-0.007-0.444-0.021s-0.203-0.035-0.27-0.062
			s-0.113-0.062-0.141-0.104c-0.028-0.042-0.042-0.09-0.042-0.146v-0.854c-0.409,0.442-0.825,0.774-1.249,0.996
			c-0.423,0.221-0.861,0.331-1.314,0.331c-0.509,0-0.937-0.083-1.281-0.248c-0.346-0.166-0.625-0.394-0.838-0.681
			c-0.214-0.288-0.365-0.621-0.457-1c-0.091-0.379-0.137-0.851-0.137-1.414v-4.53c0-0.055,0.016-0.104,0.046-0.145
			c0.03-0.042,0.085-0.076,0.166-0.104c0.08-0.028,0.188-0.049,0.323-0.062s0.303-0.021,0.502-0.021
			c0.205,0,0.373,0.007,0.506,0.021s0.239,0.034,0.319,0.062c0.08,0.027,0.137,0.062,0.171,0.104
			c0.032,0.041,0.049,0.09,0.049,0.145v4.182c0,0.387,0.025,0.683,0.075,0.888s0.126,0.38,0.228,0.526
			c0.103,0.147,0.232,0.261,0.391,0.341c0.157,0.08,0.341,0.12,0.552,0.12c0.266,0,0.532-0.097,0.8-0.29
			c0.269-0.194,0.555-0.476,0.859-0.847v-4.92c0-0.055,0.015-0.104,0.045-0.145c0.031-0.042,0.086-0.076,0.166-0.104
			c0.08-0.028,0.188-0.049,0.319-0.062c0.133-0.014,0.302-0.021,0.507-0.021c0.204,0,0.373,0.007,0.506,0.021
			s0.237,0.034,0.315,0.062c0.077,0.027,0.132,0.062,0.166,0.104c0.032,0.041,0.05,0.09,0.05,0.145V41.28z"/>
		<path fill="#181716" d="M148.726,41.28c0,0.056-0.017,0.104-0.05,0.146c-0.033,0.041-0.088,0.076-0.166,0.104
			c-0.077,0.027-0.184,0.049-0.319,0.062c-0.135,0.014-0.303,0.021-0.502,0.021c-0.204,0-0.374-0.007-0.51-0.021
			s-0.242-0.035-0.319-0.062s-0.133-0.062-0.166-0.104c-0.033-0.042-0.05-0.09-0.05-0.146v-4.223c0-0.359-0.026-0.642-0.079-0.846
			c-0.053-0.205-0.128-0.381-0.228-0.527s-0.229-0.26-0.386-0.34c-0.158-0.08-0.342-0.12-0.552-0.12
			c-0.266,0-0.534,0.097-0.805,0.29c-0.271,0.193-0.554,0.476-0.847,0.846v4.92c0,0.056-0.017,0.104-0.05,0.146
			c-0.033,0.041-0.09,0.076-0.17,0.104s-0.187,0.049-0.319,0.062s-0.302,0.021-0.506,0.021c-0.205,0-0.373-0.007-0.506-0.021
			s-0.239-0.035-0.319-0.062c-0.081-0.027-0.138-0.062-0.171-0.104c-0.033-0.042-0.05-0.09-0.05-0.146v-7.4
			c0-0.055,0.014-0.104,0.042-0.145c0.027-0.042,0.077-0.076,0.149-0.104c0.071-0.028,0.164-0.049,0.277-0.062
			s0.256-0.021,0.428-0.021c0.177,0,0.323,0.007,0.439,0.021s0.206,0.034,0.27,0.062c0.063,0.027,0.109,0.062,0.137,0.104
			c0.028,0.041,0.042,0.09,0.042,0.145v0.854c0.409-0.442,0.825-0.773,1.249-0.995c0.423-0.221,0.863-0.332,1.322-0.332
			c0.504,0,0.928,0.083,1.273,0.249s0.625,0.392,0.838,0.676c0.213,0.285,0.367,0.618,0.461,1s0.141,0.841,0.141,1.377V41.28z"/>
		<path fill="#181716" d="M157.683,34.395c0,0.266-0.03,0.462-0.091,0.589c-0.062,0.128-0.136,0.191-0.224,0.191h-0.872
			c0.122,0.133,0.209,0.283,0.262,0.452c0.053,0.168,0.079,0.344,0.079,0.526c0,0.432-0.072,0.814-0.216,1.149
			c-0.144,0.334-0.35,0.616-0.618,0.846s-0.592,0.404-0.971,0.522c-0.379,0.119-0.801,0.179-1.266,0.179
			c-0.237,0-0.464-0.029-0.68-0.087c-0.216-0.059-0.382-0.126-0.498-0.203c-0.066,0.071-0.126,0.157-0.178,0.257
			c-0.053,0.1-0.079,0.21-0.079,0.332c0,0.16,0.07,0.292,0.212,0.394c0.141,0.103,0.338,0.159,0.593,0.171l1.8,0.065
			c0.421,0.018,0.795,0.076,1.125,0.179c0.328,0.103,0.605,0.246,0.829,0.432s0.396,0.408,0.515,0.668
			c0.118,0.26,0.178,0.556,0.178,0.888c0,0.364-0.08,0.709-0.24,1.032c-0.16,0.324-0.401,0.604-0.722,0.843
			c-0.321,0.237-0.724,0.426-1.207,0.563c-0.484,0.139-1.05,0.208-1.696,0.208c-0.631,0-1.169-0.05-1.614-0.149
			s-0.81-0.238-1.095-0.415s-0.492-0.389-0.622-0.635s-0.195-0.516-0.195-0.809c0-0.183,0.023-0.357,0.07-0.522
			c0.047-0.166,0.116-0.325,0.208-0.478c0.091-0.151,0.203-0.297,0.336-0.436c0.133-0.138,0.284-0.271,0.456-0.398
			c-0.238-0.127-0.422-0.3-0.552-0.519c-0.13-0.218-0.195-0.457-0.195-0.717c0-0.326,0.075-0.624,0.225-0.893
			c0.149-0.268,0.343-0.51,0.58-0.726c-0.193-0.193-0.348-0.426-0.464-0.697c-0.116-0.271-0.175-0.607-0.175-1.012
			c0-0.432,0.076-0.817,0.229-1.157s0.363-0.628,0.635-0.863c0.271-0.234,0.595-0.414,0.971-0.539
			c0.376-0.124,0.791-0.187,1.244-0.187c0.232,0,0.455,0.014,0.668,0.042c0.213,0.027,0.41,0.066,0.593,0.116h2.349
			c0.094,0,0.17,0.061,0.228,0.182C157.653,33.902,157.683,34.107,157.683,34.395z M155.493,42.052c0-0.249-0.1-0.439-0.299-0.572
			s-0.473-0.204-0.821-0.216l-1.485-0.041c-0.144,0.104-0.259,0.206-0.344,0.303c-0.086,0.097-0.155,0.189-0.208,0.277
			c-0.053,0.089-0.087,0.175-0.104,0.258s-0.025,0.168-0.025,0.257c0,0.276,0.14,0.486,0.419,0.631
			c0.279,0.144,0.674,0.215,1.183,0.215c0.315,0,0.581-0.031,0.796-0.095c0.217-0.063,0.391-0.148,0.523-0.253
			c0.133-0.105,0.227-0.223,0.282-0.353C155.465,42.333,155.493,42.195,155.493,42.052z M155.003,36.146
			c0-0.398-0.11-0.708-0.332-0.93c-0.221-0.221-0.533-0.332-0.937-0.332c-0.205,0-0.385,0.035-0.54,0.104
			c-0.154,0.068-0.283,0.163-0.386,0.281c-0.103,0.119-0.178,0.258-0.228,0.415c-0.05,0.158-0.075,0.322-0.075,0.494
			c0,0.376,0.11,0.673,0.332,0.892s0.528,0.327,0.921,0.327c0.21,0,0.393-0.033,0.548-0.1c0.154-0.065,0.283-0.157,0.386-0.273
			c0.102-0.116,0.18-0.25,0.232-0.402C154.977,36.47,155.003,36.312,155.003,36.146z"/>
	</g>
	<g>
	</g>
	<g>
		<path fill="#9FC512" d="M21.989,35.517c-2.34-1.155-4.265-3.08-5.421-5.42c-0.034-0.069-0.116-0.1-0.188-0.07l-9.452,3.915
			c-0.036,0.016-0.065,0.045-0.08,0.082s-0.014,0.078,0.003,0.114c2.215,4.837,6.26,8.881,11.097,11.096
			c0.02,0.009,0.04,0.013,0.061,0.013c0.019,0,0.037-0.003,0.054-0.01c0.037-0.015,0.066-0.044,0.082-0.08l3.915-9.451
			C22.089,35.634,22.059,35.551,21.989,35.517z"/>
		<path fill="#FFD000" d="M31.266,36.192c-0.029-0.071-0.109-0.107-0.183-0.083c-1.23,0.42-2.521,0.633-3.832,0.633
			c-1.312,0-2.603-0.213-3.834-0.633c-0.072-0.024-0.152,0.012-0.183,0.083l-4.521,10.917c-0.016,0.036-0.016,0.078,0.001,0.114
			c0.016,0.036,0.045,0.064,0.082,0.079c2.699,1.017,5.543,1.532,8.455,1.532c2.91,0,5.755-0.516,8.453-1.532
			c0.037-0.015,0.067-0.043,0.083-0.079s0.016-0.078,0.001-0.114L31.266,36.192z"/>
		<path fill="#EF7632" d="M51.995,35.774l-13.876-5.748c-0.071-0.029-0.153,0.002-0.188,0.07c-1.156,2.34-3.081,4.265-5.42,5.42
			c-0.069,0.034-0.101,0.116-0.071,0.188l5.748,13.876c0.015,0.037,0.044,0.066,0.081,0.081c0.018,0.007,0.036,0.01,0.055,0.01
			c0.021,0,0.041-0.004,0.06-0.013c5.999-2.7,10.988-7.689,13.688-13.688c0.017-0.036,0.018-0.077,0.003-0.114
			C52.061,35.819,52.031,35.789,51.995,35.774z"/>
		<path fill="#EF7632" d="M3.915,14.188l12.47,5.443c0.02,0.008,0.039,0.012,0.059,0.012c0.055,0,0.106-0.03,0.132-0.082
			c1.158-2.338,3.086-4.261,5.426-5.414c0.068-0.034,0.1-0.114,0.072-0.185l-5.18-13.175C16.879,0.75,16.85,0.72,16.812,0.705
			c-0.037-0.015-0.079-0.014-0.116,0.003C11.064,3.339,6.378,8.182,3.839,13.995c-0.016,0.036-0.016,0.076-0.002,0.112
			C3.852,14.143,3.879,14.172,3.915,14.188z"/>
		<path fill="#FFD000" d="M23.234,13.479c0.03,0.071,0.109,0.107,0.183,0.083c1.231-0.419,2.521-0.632,3.834-0.632
			c1.312,0,2.602,0.212,3.832,0.632c0.016,0.005,0.032,0.008,0.048,0.008c0.058,0,0.112-0.035,0.136-0.091l3.255-7.858
			c0.015-0.037,0.015-0.078-0.001-0.115c-0.017-0.037-0.047-0.065-0.084-0.079c-2.296-0.852-4.713-1.283-7.186-1.283
			c-2.474,0-4.892,0.432-7.187,1.283c-0.038,0.014-0.068,0.042-0.084,0.079c-0.016,0.036-0.017,0.078-0.001,0.115L23.234,13.479z"/>
		<path fill="#00BAEE" d="M38.606,28.852l9.452,3.915c0.018,0.008,0.037,0.012,0.056,0.012c0.021,0,0.04-0.005,0.059-0.013
			c0.037-0.016,0.065-0.046,0.079-0.083c0.938-2.505,1.413-5.146,1.413-7.847c0-2.702-0.476-5.341-1.413-7.847
			c-0.014-0.037-0.042-0.067-0.079-0.083c-0.036-0.016-0.077-0.017-0.114-0.001l-9.452,3.915c-0.071,0.029-0.107,0.109-0.082,0.183
			c0.419,1.231,0.632,2.521,0.632,3.833c0,1.312-0.213,2.602-0.632,3.833C38.499,28.742,38.535,28.822,38.606,28.852z"/>
		<path fill="#9FC512" d="M32.512,14.154c2.339,1.156,4.264,3.081,5.42,5.42c0.025,0.052,0.077,0.082,0.132,0.082
			c0.019,0,0.037-0.003,0.056-0.011l13.876-5.748c0.037-0.015,0.066-0.044,0.08-0.082c0.015-0.037,0.014-0.078-0.002-0.114
			c-2.7-5.999-7.689-10.989-13.688-13.689c-0.036-0.017-0.077-0.017-0.114-0.002c-0.037,0.014-0.066,0.043-0.082,0.08l-5.747,13.876
			C32.411,14.038,32.442,14.12,32.512,14.154z"/>
		<path fill="#00BAEE" d="M15.976,28.668c-0.42-1.231-0.632-2.521-0.632-3.832c0-1.313,0.213-2.604,0.633-3.835
			c0.024-0.074-0.012-0.154-0.084-0.184L1.938,15.208c-0.037-0.015-0.078-0.014-0.114,0.002c-0.036,0.016-0.064,0.045-0.078,0.083
			C0.588,18.359,0,21.593,0,24.902c0,3.309,0.587,6.541,1.745,9.606c0.014,0.037,0.043,0.067,0.079,0.083
			c0.019,0.008,0.038,0.012,0.059,0.012c0.019,0,0.037-0.003,0.056-0.011l13.954-5.742C15.964,28.821,16,28.741,15.976,28.668z"/>
	</g>
</g>
</svg>
