<?xml version="1.0" encoding="utf-8"?>
<!-- Generator: Adobe Illustrator 15.0.2, SVG Export Plug-In . SVG Version: 6.00 Build 0)  -->
<!DOCTYPE svg PUBLIC "-//W3C//DTD SVG 1.0//EN" "http://www.w3.org/TR/2001/REC-SVG-20010904/DTD/svg10.dtd">
<svg version="1.0" id="LCVB-logo" xmlns="http://www.w3.org/2000/svg" xmlns:xlink="http://www.w3.org/1999/xlink" x="0px" y="0px"
	 width="396.851px" height="99.345px" viewBox="-99.212 -24.837 396.851 99.345"
	 enable-background="new -99.212 -24.837 396.851 99.345" xml:space="preserve">
<g>
	<g>
		<path fill="#181716" d="M-52.218,20.777c0,0.195-0.012,0.361-0.038,0.498c-0.026,0.136-0.056,0.243-0.098,0.325
			s-0.093,0.141-0.154,0.179c-0.061,0.038-0.124,0.054-0.19,0.054h-1.397l-0.418,3.496h1.204c0.138,0,0.252,0.08,0.338,0.24
			s0.128,0.427,0.128,0.804c0,0.197-0.014,0.365-0.038,0.504c-0.026,0.139-0.058,0.248-0.1,0.33s-0.093,0.141-0.152,0.178
			c-0.062,0.037-0.124,0.055-0.19,0.055h-1.46l-0.454,3.84c-0.008,0.072-0.031,0.135-0.067,0.191
			c-0.038,0.053-0.103,0.1-0.196,0.141s-0.22,0.068-0.38,0.086c-0.158,0.016-0.362,0.023-0.608,0.023
			c-0.262,0-0.472-0.008-0.63-0.023c-0.16-0.018-0.282-0.045-0.361-0.086c-0.082-0.041-0.139-0.088-0.166-0.141
			c-0.03-0.053-0.04-0.119-0.032-0.191l0.466-3.84h-2.748l-0.456,3.84c-0.008,0.064-0.03,0.127-0.066,0.184
			c-0.037,0.057-0.1,0.107-0.189,0.148c-0.092,0.041-0.214,0.068-0.376,0.086c-0.158,0.016-0.37,0.023-0.63,0.023
			c-0.254,0-0.458-0.008-0.614-0.023c-0.156-0.018-0.278-0.045-0.364-0.086s-0.142-0.088-0.172-0.141
			c-0.027-0.053-0.036-0.119-0.018-0.191l0.441-3.84h-1.166c-0.138,0-0.25-0.076-0.336-0.232c-0.086-0.154-0.128-0.426-0.128-0.809
			c0-0.197,0.013-0.365,0.038-0.504c0.024-0.138,0.057-0.249,0.098-0.331c0.043-0.082,0.091-0.141,0.146-0.179
			c0.058-0.038,0.124-0.056,0.198-0.056h1.422l0.418-3.496h-1.24c-0.138,0-0.25-0.078-0.336-0.232
			c-0.086-0.153-0.128-0.424-0.128-0.81c0-0.392,0.044-0.666,0.134-0.822c0.09-0.155,0.206-0.231,0.345-0.231h1.47l0.441-3.582
			c0-0.074,0.022-0.137,0.062-0.19c0.042-0.052,0.11-0.1,0.208-0.14c0.098-0.042,0.228-0.072,0.392-0.092
			c0.162-0.021,0.372-0.032,0.624-0.032s0.458,0.01,0.614,0.032c0.154,0.02,0.274,0.05,0.356,0.092s0.132,0.088,0.153,0.14
			c0.021,0.054,0.03,0.112,0.03,0.179l-0.454,3.594h2.748l0.416-3.582c0.008-0.066,0.034-0.126,0.074-0.185
			c0.042-0.056,0.107-0.105,0.204-0.146c0.094-0.042,0.222-0.072,0.386-0.092c0.162-0.021,0.376-0.032,0.636-0.032
			c0.254,0,0.458,0.01,0.614,0.032c0.156,0.02,0.274,0.05,0.355,0.092c0.082,0.042,0.133,0.088,0.154,0.14
			c0.021,0.054,0.026,0.112,0.019,0.179l-0.431,3.594h1.179c0.138,0,0.252,0.08,0.338,0.24
			C-52.26,20.132-52.218,20.401-52.218,20.777z M-59.285,21.831l-0.416,3.496h2.734l0.43-3.496H-59.285z"/>
		<path fill="#181716" d="M-41.06,30.294c0,0.244-0.011,0.451-0.032,0.619c-0.021,0.168-0.05,0.307-0.092,0.418
			s-0.093,0.191-0.152,0.238c-0.062,0.049-0.132,0.074-0.214,0.074h-7.274c-0.271,0-0.498-0.078-0.682-0.238
			s-0.276-0.418-0.276-0.781V16.212c0-0.082,0.026-0.156,0.078-0.22c0.054-0.066,0.143-0.12,0.267-0.16
			c0.121-0.042,0.287-0.074,0.495-0.098c0.208-0.024,0.467-0.038,0.78-0.038c0.318,0,0.58,0.012,0.786,0.038
			c0.204,0.023,0.368,0.056,0.49,0.098s0.21,0.094,0.264,0.16s0.08,0.138,0.08,0.22v12.771h4.992c0.082,0,0.152,0.02,0.214,0.064
			c0.06,0.045,0.112,0.119,0.152,0.221c0.042,0.104,0.071,0.238,0.092,0.406C-41.071,29.843-41.06,30.048-41.06,30.294z"/>
		<path fill="#181716" d="M-28.136,29.242c0,0.203-0.006,0.375-0.019,0.52c-0.012,0.145-0.031,0.268-0.054,0.369
			c-0.026,0.104-0.058,0.189-0.098,0.264c-0.042,0.074-0.108,0.158-0.198,0.254c-0.09,0.094-0.264,0.213-0.522,0.359
			c-0.258,0.148-0.571,0.291-0.943,0.426c-0.374,0.133-0.798,0.246-1.278,0.336c-0.478,0.092-0.994,0.137-1.55,0.137
			c-1.088,0-2.068-0.168-2.944-0.504s-1.62-0.836-2.231-1.504c-0.612-0.664-1.084-1.496-1.412-2.496
			c-0.326-0.996-0.49-2.159-0.49-3.483c0-1.35,0.18-2.546,0.54-3.594c0.362-1.046,0.864-1.926,1.51-2.639
			c0.646-0.712,1.42-1.25,2.324-1.619c0.904-0.37,1.898-0.553,2.986-0.553c0.441,0,0.868,0.036,1.277,0.11
			c0.408,0.074,0.788,0.17,1.135,0.288c0.346,0.118,0.659,0.256,0.938,0.412s0.472,0.288,0.582,0.397
			c0.112,0.11,0.187,0.202,0.229,0.276c0.039,0.074,0.071,0.166,0.098,0.282c0.023,0.114,0.042,0.25,0.054,0.403
			c0.013,0.154,0.019,0.349,0.019,0.576c0,0.246-0.009,0.454-0.024,0.626c-0.018,0.173-0.044,0.311-0.086,0.416
			c-0.042,0.106-0.09,0.185-0.146,0.234c-0.058,0.048-0.124,0.074-0.197,0.074c-0.124,0-0.278-0.072-0.466-0.214
			c-0.188-0.143-0.431-0.303-0.729-0.479s-0.654-0.334-1.068-0.478c-0.411-0.145-0.905-0.214-1.478-0.214
			c-0.628,0-1.192,0.127-1.687,0.386c-0.495,0.258-0.915,0.626-1.264,1.104c-0.348,0.479-0.611,1.057-0.792,1.736
			c-0.18,0.68-0.27,1.444-0.27,2.294c0,0.932,0.096,1.74,0.288,2.421c0.193,0.684,0.466,1.246,0.821,1.689
			c0.356,0.441,0.786,0.771,1.29,0.986c0.502,0.215,1.068,0.324,1.698,0.324c0.572,0,1.068-0.066,1.484-0.203
			c0.418-0.133,0.775-0.285,1.073-0.449c0.299-0.164,0.542-0.309,0.736-0.441c0.192-0.129,0.342-0.195,0.448-0.195
			c0.082,0,0.146,0.016,0.198,0.047c0.048,0.033,0.088,0.1,0.121,0.197c0.034,0.098,0.059,0.236,0.074,0.412
			C-28.142,28.71-28.136,28.947-28.136,29.242z"/>
	</g>
	<g>
		<path fill="#181716" d="M28.923-3.005c-0.034,0.094-0.08,0.17-0.14,0.23c-0.061,0.06-0.142,0.105-0.25,0.14
			c-0.106,0.034-0.242,0.056-0.408,0.069c-0.166,0.013-0.374,0.019-0.622,0.019c-0.188,0-0.352-0.002-0.492-0.006
			c-0.14-0.004-0.262-0.017-0.365-0.032c-0.103-0.018-0.19-0.036-0.263-0.058c-0.071-0.022-0.134-0.048-0.186-0.084
			s-0.092-0.074-0.122-0.122c-0.032-0.047-0.058-0.104-0.084-0.172l-5.41-15.375c-0.066-0.186-0.104-0.338-0.108-0.453
			c-0.004-0.114,0.032-0.202,0.108-0.263c0.078-0.06,0.202-0.098,0.372-0.115c0.172-0.017,0.402-0.026,0.692-0.026
			c0.237,0,0.43,0.006,0.569,0.018c0.141,0.015,0.248,0.038,0.326,0.072c0.076,0.034,0.132,0.078,0.172,0.134
			c0.04,0.057,0.074,0.126,0.11,0.212L27.57-4.885h0.012l4.62-13.906c0.026-0.094,0.054-0.17,0.09-0.229
			c0.034-0.061,0.094-0.108,0.178-0.141c0.086-0.034,0.206-0.058,0.36-0.072c0.152-0.012,0.358-0.018,0.614-0.018
			c0.264,0,0.474,0.01,0.626,0.032c0.153,0.02,0.258,0.062,0.313,0.122c0.055,0.06,0.076,0.147,0.062,0.262
			c-0.013,0.116-0.052,0.268-0.122,0.456L28.923-3.005z"/>
		<path fill="#181716" d="M39.578-18.343c0,0.496-0.094,0.832-0.282,1.01c-0.188,0.178-0.534,0.268-1.038,0.268
			c-0.494,0-0.832-0.088-1.016-0.262c-0.185-0.174-0.276-0.504-0.276-0.992c0-0.494,0.095-0.832,0.282-1.01
			c0.188-0.178,0.534-0.268,1.038-0.268c0.494,0,0.832,0.088,1.016,0.262C39.486-19.162,39.578-18.832,39.578-18.343z M39.333-2.941
			c0,0.067-0.018,0.125-0.052,0.172c-0.034,0.046-0.088,0.088-0.166,0.121c-0.076,0.034-0.185,0.061-0.318,0.078
			c-0.136,0.019-0.312,0.026-0.525,0.026c-0.206,0-0.376-0.008-0.513-0.026c-0.136-0.016-0.246-0.042-0.326-0.078
			c-0.081-0.033-0.136-0.073-0.165-0.121c-0.032-0.047-0.045-0.104-0.045-0.172v-11.515c0-0.06,0.015-0.116,0.045-0.166
			c0.029-0.05,0.084-0.094,0.165-0.128c0.08-0.034,0.19-0.06,0.326-0.078c0.137-0.016,0.307-0.025,0.513-0.025
			c0.212,0,0.388,0.008,0.525,0.025c0.134,0.019,0.242,0.042,0.318,0.078c0.078,0.034,0.132,0.078,0.166,0.128
			c0.036,0.05,0.052,0.106,0.052,0.166V-2.941z"/>
		<path fill="#181716" d="M50.33-13.702c0,0.188-0.004,0.347-0.012,0.475c-0.01,0.128-0.026,0.228-0.05,0.3
			c-0.024,0.072-0.059,0.128-0.097,0.166c-0.04,0.038-0.092,0.058-0.16,0.058c-0.067,0-0.151-0.02-0.25-0.058
			c-0.098-0.038-0.208-0.078-0.332-0.116s-0.264-0.074-0.416-0.108c-0.153-0.033-0.319-0.052-0.5-0.052
			c-0.212,0-0.422,0.042-0.626,0.128s-0.42,0.227-0.644,0.422c-0.226,0.196-0.462,0.456-0.71,0.78s-0.521,0.72-0.818,1.19v7.573
			c0,0.068-0.018,0.126-0.05,0.173c-0.036,0.046-0.09,0.088-0.166,0.121c-0.078,0.034-0.184,0.061-0.32,0.078
			c-0.136,0.019-0.312,0.026-0.525,0.026c-0.206,0-0.376-0.008-0.512-0.026c-0.137-0.016-0.244-0.042-0.326-0.078
			c-0.08-0.033-0.137-0.073-0.166-0.121c-0.03-0.049-0.044-0.104-0.044-0.173v-11.512c0-0.067,0.014-0.126,0.04-0.172
			c0.025-0.046,0.075-0.088,0.151-0.128c0.078-0.038,0.176-0.064,0.294-0.076s0.278-0.02,0.473-0.02c0.188,0,0.344,0.006,0.466,0.02
			c0.124,0.012,0.22,0.038,0.29,0.076c0.067,0.04,0.118,0.082,0.146,0.128c0.03,0.046,0.044,0.104,0.044,0.172v1.676
			c0.316-0.46,0.612-0.834,0.889-1.126c0.277-0.29,0.54-0.518,0.788-0.684c0.247-0.166,0.491-0.282,0.735-0.346
			c0.242-0.064,0.488-0.097,0.734-0.097c0.111,0,0.238,0.007,0.378,0.019c0.14,0.014,0.288,0.038,0.442,0.069
			c0.151,0.034,0.291,0.074,0.413,0.116c0.124,0.042,0.212,0.086,0.265,0.128c0.05,0.042,0.084,0.084,0.102,0.122
			c0.019,0.038,0.032,0.088,0.044,0.146c0.015,0.06,0.022,0.147,0.026,0.262S50.33-13.898,50.33-13.702z"/>
		<path fill="#181716" d="M59.089-3.786c0,0.248-0.018,0.444-0.05,0.588c-0.036,0.146-0.086,0.252-0.154,0.32
			c-0.067,0.068-0.17,0.132-0.306,0.192c-0.136,0.06-0.292,0.107-0.466,0.147c-0.176,0.038-0.362,0.07-0.557,0.097
			c-0.197,0.025-0.392,0.037-0.588,0.037c-0.598,0-1.109-0.078-1.536-0.235c-0.428-0.158-0.777-0.396-1.048-0.716
			c-0.273-0.32-0.472-0.727-0.596-1.217c-0.124-0.489-0.186-1.067-0.186-1.733v-6.73h-1.612c-0.128,0-0.23-0.067-0.306-0.204
			c-0.078-0.136-0.116-0.357-0.116-0.666c0-0.162,0.01-0.298,0.032-0.41c0.021-0.109,0.048-0.201,0.084-0.273
			c0.033-0.072,0.077-0.124,0.132-0.154c0.056-0.029,0.118-0.044,0.186-0.044h1.601v-2.737c0-0.061,0.016-0.116,0.044-0.166
			c0.027-0.051,0.086-0.097,0.166-0.135c0.082-0.038,0.189-0.065,0.325-0.084c0.137-0.016,0.307-0.025,0.513-0.025
			c0.212,0,0.388,0.008,0.525,0.025c0.137,0.019,0.242,0.044,0.318,0.084c0.078,0.04,0.132,0.084,0.168,0.135
			c0.034,0.05,0.05,0.105,0.05,0.166v2.737h2.956c0.068,0,0.126,0.015,0.18,0.044c0.051,0.03,0.097,0.082,0.133,0.154
			c0.04,0.072,0.065,0.164,0.084,0.273c0.018,0.112,0.025,0.248,0.025,0.41c0,0.309-0.04,0.53-0.115,0.666
			c-0.076,0.137-0.181,0.204-0.309,0.204h-2.956v6.422c0,0.792,0.118,1.393,0.353,1.796c0.233,0.404,0.653,0.608,1.26,0.608
			c0.196,0,0.372-0.018,0.525-0.058c0.152-0.038,0.29-0.078,0.408-0.122s0.223-0.084,0.307-0.122
			c0.086-0.038,0.162-0.059,0.229-0.059c0.042,0,0.084,0.013,0.124,0.032c0.038,0.022,0.066,0.062,0.088,0.122
			c0.022,0.061,0.042,0.141,0.059,0.244C59.082-4.068,59.089-3.939,59.089-3.786z"/>
		<path fill="#181716" d="M72.11-2.941c0,0.067-0.017,0.125-0.044,0.172c-0.032,0.046-0.084,0.088-0.16,0.121
			c-0.076,0.034-0.178,0.061-0.3,0.078c-0.124,0.019-0.276,0.026-0.454,0.026c-0.198,0-0.358-0.008-0.48-0.026
			c-0.124-0.016-0.222-0.042-0.294-0.078c-0.072-0.033-0.122-0.073-0.146-0.121c-0.024-0.049-0.04-0.104-0.04-0.172v-1.522
			c-0.656,0.726-1.305,1.254-1.944,1.586s-1.29,0.5-1.946,0.5c-0.768,0-1.414-0.128-1.938-0.384
			c-0.526-0.256-0.95-0.604-1.274-1.042c-0.324-0.438-0.556-0.952-0.697-1.536c-0.143-0.584-0.211-1.294-0.211-2.13v-6.986
			c0-0.067,0.017-0.126,0.045-0.172c0.029-0.046,0.088-0.088,0.172-0.128c0.086-0.038,0.197-0.064,0.334-0.076
			c0.134-0.012,0.306-0.02,0.512-0.02c0.204,0,0.376,0.006,0.512,0.02c0.134,0.012,0.244,0.038,0.326,0.076
			c0.08,0.04,0.136,0.082,0.172,0.128c0.034,0.046,0.05,0.104,0.05,0.172v6.704c0,0.674,0.048,1.212,0.148,1.618
			c0.098,0.406,0.246,0.75,0.448,1.036c0.199,0.286,0.454,0.508,0.762,0.666c0.306,0.158,0.664,0.235,1.074,0.235
			c0.529,0,1.054-0.188,1.58-0.562c0.523-0.376,1.08-0.924,1.668-1.65v-8.048c0-0.067,0.016-0.126,0.044-0.172
			c0.032-0.046,0.088-0.088,0.174-0.128c0.086-0.038,0.194-0.064,0.326-0.076s0.304-0.02,0.518-0.02c0.206,0,0.376,0.006,0.513,0.02
			c0.136,0.014,0.243,0.038,0.319,0.076c0.076,0.04,0.134,0.082,0.172,0.128c0.04,0.046,0.059,0.104,0.059,0.172v11.515H72.11z"/>
		<path fill="#181716" d="M86.204-9.198c0,0.334-0.084,0.57-0.252,0.71c-0.166,0.141-0.358,0.213-0.57,0.213h-7.584
			c0,0.64,0.064,1.214,0.194,1.726s0.344,0.952,0.642,1.317c0.3,0.368,0.69,0.648,1.17,0.845c0.48,0.196,1.066,0.294,1.763,0.294
			c0.548,0,1.038-0.044,1.464-0.134c0.43-0.091,0.798-0.19,1.112-0.301c0.313-0.111,0.569-0.21,0.771-0.3
			c0.204-0.09,0.354-0.134,0.458-0.134c0.06,0,0.114,0.016,0.16,0.044c0.046,0.03,0.084,0.076,0.11,0.134
			c0.025,0.059,0.044,0.143,0.058,0.25c0.012,0.108,0.02,0.238,0.02,0.391c0,0.111-0.006,0.208-0.014,0.288
			s-0.021,0.153-0.032,0.216c-0.014,0.063-0.036,0.122-0.063,0.172c-0.03,0.052-0.068,0.1-0.116,0.147
			c-0.048,0.049-0.186,0.124-0.416,0.23c-0.23,0.105-0.53,0.21-0.895,0.314c-0.367,0.102-0.791,0.193-1.273,0.273
			s-0.996,0.122-1.542,0.122c-0.948,0-1.778-0.132-2.488-0.396c-0.712-0.265-1.312-0.658-1.796-1.179
			c-0.486-0.52-0.854-1.172-1.102-1.958C75.736-6.696,75.61-7.61,75.61-8.65c0-0.989,0.128-1.878,0.384-2.668
			c0.256-0.787,0.624-1.457,1.105-2.008c0.482-0.55,1.064-0.972,1.746-1.266c0.685-0.294,1.448-0.442,2.292-0.442
			c0.904,0,1.675,0.145,2.309,0.435s1.158,0.68,1.565,1.17c0.41,0.49,0.71,1.065,0.902,1.726c0.194,0.662,0.29,1.368,0.29,2.118
			V-9.198L86.204-9.198z M84.08-9.826c0.028-1.107-0.22-1.978-0.74-2.609c-0.518-0.631-1.29-0.946-2.31-0.946
			c-0.524,0-0.982,0.098-1.376,0.294c-0.395,0.196-0.725,0.456-0.99,0.78c-0.266,0.323-0.476,0.704-0.62,1.134
			c-0.146,0.43-0.228,0.88-0.246,1.35h6.282V-9.826z"/>
		<path fill="#181716" d="M91.892-2.941c0,0.067-0.019,0.125-0.051,0.172c-0.036,0.046-0.09,0.088-0.166,0.121
			c-0.076,0.034-0.184,0.061-0.319,0.078c-0.137,0.019-0.311,0.026-0.524,0.026c-0.206,0-0.376-0.008-0.514-0.026
			c-0.135-0.016-0.244-0.042-0.324-0.078c-0.082-0.033-0.136-0.073-0.168-0.121c-0.03-0.047-0.044-0.104-0.044-0.172v-17.093
			c0-0.067,0.016-0.128,0.044-0.18c0.032-0.05,0.086-0.094,0.168-0.128c0.08-0.034,0.189-0.061,0.324-0.076
			c0.136-0.018,0.308-0.026,0.514-0.026c0.212,0,0.386,0.009,0.524,0.026c0.136,0.016,0.243,0.042,0.319,0.076
			s0.13,0.078,0.166,0.128c0.034,0.052,0.051,0.112,0.051,0.18V-2.941z"/>
		<path fill="#181716" d="M98.272-2.941c0,0.067-0.019,0.125-0.053,0.172c-0.033,0.046-0.088,0.088-0.166,0.121
			c-0.075,0.034-0.184,0.061-0.317,0.078c-0.137,0.019-0.312,0.026-0.526,0.026c-0.206,0-0.376-0.008-0.512-0.026
			c-0.136-0.016-0.246-0.042-0.326-0.078c-0.082-0.033-0.136-0.073-0.166-0.121c-0.032-0.047-0.044-0.104-0.044-0.172v-17.093
			c0-0.067,0.014-0.128,0.044-0.18c0.03-0.05,0.084-0.094,0.166-0.128c0.08-0.034,0.19-0.061,0.326-0.076
			c0.136-0.018,0.306-0.026,0.512-0.026c0.212,0,0.388,0.009,0.526,0.026c0.134,0.016,0.242,0.042,0.317,0.076
			c0.078,0.034,0.133,0.078,0.166,0.128c0.036,0.052,0.053,0.112,0.053,0.18V-2.941z"/>
		<path fill="#181716" d="M112.365-9.198c0,0.334-0.082,0.57-0.25,0.71c-0.168,0.141-0.359,0.213-0.574,0.213h-7.582
			c0,0.64,0.066,1.214,0.195,1.726s0.342,0.952,0.641,1.317c0.299,0.368,0.691,0.648,1.172,0.845s1.066,0.294,1.762,0.294
			c0.547,0,1.035-0.044,1.465-0.134c0.426-0.091,0.797-0.19,1.109-0.301c0.312-0.111,0.57-0.21,0.773-0.3s0.354-0.134,0.457-0.134
			c0.061,0,0.115,0.016,0.16,0.044c0.047,0.03,0.086,0.076,0.109,0.134c0.027,0.059,0.045,0.143,0.059,0.25
			c0.012,0.108,0.02,0.238,0.02,0.391c0,0.111-0.004,0.208-0.012,0.288s-0.021,0.153-0.033,0.216
			c-0.014,0.063-0.037,0.122-0.064,0.172c-0.031,0.052-0.066,0.1-0.115,0.147c-0.049,0.049-0.186,0.124-0.416,0.23
			c-0.23,0.105-0.531,0.21-0.895,0.314c-0.367,0.102-0.793,0.193-1.273,0.273c-0.482,0.082-0.996,0.122-1.543,0.122
			c-0.947,0-1.777-0.132-2.488-0.396c-0.711-0.265-1.311-0.658-1.797-1.179c-0.486-0.52-0.852-1.172-1.1-1.958
			c-0.248-0.784-0.373-1.698-0.373-2.738c0-0.989,0.129-1.878,0.385-2.668c0.256-0.787,0.623-1.457,1.105-2.008
			c0.482-0.55,1.064-0.972,1.746-1.266c0.686-0.294,1.447-0.442,2.291-0.442c0.902,0,1.676,0.145,2.309,0.435
			c0.635,0.29,1.158,0.68,1.566,1.17c0.41,0.49,0.711,1.065,0.902,1.726c0.191,0.662,0.289,1.368,0.289,2.118V-9.198z
			 M110.242-9.826c0.025-1.107-0.221-1.978-0.74-2.609c-0.52-0.633-1.289-0.946-2.309-0.946c-0.525,0-0.984,0.098-1.377,0.294
			c-0.395,0.196-0.725,0.456-0.99,0.78c-0.27,0.323-0.473,0.702-0.621,1.132c-0.143,0.43-0.225,0.88-0.242,1.35H110.242z"/>
		<path fill="#181716" d="M123.169-6.076c0,0.588-0.109,1.112-0.326,1.574s-0.527,0.848-0.928,1.164s-0.879,0.554-1.432,0.716
			c-0.555,0.162-1.164,0.244-1.83,0.244c-0.41,0-0.797-0.032-1.17-0.096c-0.373-0.064-0.705-0.145-0.998-0.244
			c-0.293-0.099-0.543-0.2-0.75-0.306c-0.203-0.106-0.355-0.202-0.449-0.288c-0.094-0.085-0.16-0.204-0.203-0.358
			s-0.062-0.362-0.062-0.626c0-0.162,0.008-0.298,0.023-0.41c0.018-0.11,0.041-0.2,0.066-0.268c0.023-0.068,0.059-0.118,0.105-0.146
			c0.047-0.03,0.104-0.044,0.16-0.044c0.094,0,0.234,0.059,0.418,0.172c0.184,0.114,0.41,0.242,0.676,0.376
			c0.271,0.136,0.588,0.263,0.955,0.378c0.369,0.114,0.791,0.172,1.268,0.172c0.359,0,0.684-0.037,0.971-0.113
			c0.291-0.078,0.541-0.19,0.756-0.34c0.211-0.148,0.375-0.338,0.492-0.57c0.117-0.23,0.172-0.502,0.172-0.818
			c0-0.324-0.082-0.596-0.248-0.817c-0.166-0.223-0.385-0.418-0.66-0.589c-0.271-0.17-0.58-0.321-0.92-0.453
			c-0.342-0.133-0.693-0.271-1.055-0.416c-0.363-0.145-0.715-0.309-1.062-0.492c-0.344-0.185-0.652-0.408-0.926-0.672
			c-0.273-0.265-0.492-0.58-0.66-0.946c-0.168-0.368-0.25-0.806-0.25-1.318c0-0.452,0.09-0.884,0.264-1.298s0.438-0.775,0.787-1.088
			c0.352-0.31,0.789-0.56,1.311-0.748c0.525-0.188,1.135-0.282,1.836-0.282c0.307,0,0.615,0.026,0.922,0.076
			c0.307,0.052,0.584,0.116,0.832,0.192c0.246,0.078,0.459,0.16,0.631,0.25c0.176,0.09,0.309,0.168,0.398,0.238
			c0.09,0.069,0.146,0.128,0.18,0.178c0.029,0.05,0.049,0.107,0.062,0.172c0.012,0.064,0.023,0.142,0.039,0.236
			c0.012,0.094,0.02,0.208,0.02,0.346c0,0.146-0.008,0.27-0.02,0.376c-0.016,0.108-0.035,0.194-0.064,0.262
			c-0.029,0.068-0.066,0.118-0.111,0.148c-0.041,0.03-0.086,0.044-0.139,0.044c-0.076,0-0.188-0.046-0.332-0.141
			c-0.143-0.094-0.332-0.193-0.561-0.3c-0.23-0.105-0.504-0.206-0.812-0.3c-0.311-0.094-0.668-0.142-1.068-0.142
			c-0.357,0-0.674,0.042-0.947,0.122c-0.273,0.082-0.496,0.195-0.672,0.346s-0.309,0.326-0.398,0.53
			c-0.086,0.206-0.131,0.426-0.131,0.666c0,0.331,0.084,0.611,0.256,0.838c0.17,0.226,0.391,0.424,0.664,0.594
			s0.584,0.324,0.936,0.46c0.35,0.136,0.705,0.278,1.066,0.422c0.365,0.145,0.721,0.307,1.074,0.486
			c0.355,0.18,0.668,0.397,0.941,0.654c0.275,0.254,0.492,0.562,0.658,0.92C123.085-6.998,123.169-6.572,123.169-6.076z"/>
		<path fill="#181716" d="M144.001-7.368c0,0.521-0.066,1-0.199,1.438c-0.133,0.439-0.318,0.834-0.557,1.184
			s-0.529,0.658-0.865,0.92c-0.336,0.265-0.715,0.486-1.137,0.666s-0.875,0.314-1.355,0.404c-0.482,0.09-1.035,0.134-1.656,0.134
			h-4.324c-0.199,0-0.383-0.065-0.557-0.198c-0.176-0.132-0.264-0.365-0.264-0.697v-14.765c0-0.332,0.088-0.563,0.264-0.698
			c0.174-0.132,0.361-0.197,0.557-0.197h3.76c0.99,0,1.799,0.094,2.432,0.281c0.633,0.188,1.158,0.461,1.58,0.818
			c0.422,0.358,0.738,0.798,0.955,1.318c0.211,0.52,0.32,1.109,0.32,1.766c0,0.393-0.049,0.769-0.143,1.126
			c-0.096,0.358-0.232,0.688-0.416,0.992c-0.184,0.302-0.412,0.574-0.691,0.812c-0.277,0.238-0.594,0.435-0.953,0.589
			c0.453,0.084,0.875,0.239,1.266,0.466c0.393,0.226,0.736,0.514,1.031,0.863c0.293,0.351,0.527,0.759,0.699,1.229
			C143.916-8.448,144.001-7.931,144.001-7.368z M140.689-14.775c0-0.402-0.055-0.765-0.168-1.089
			c-0.111-0.323-0.285-0.598-0.523-0.825c-0.238-0.227-0.547-0.398-0.932-0.519s-0.889-0.18-1.518-0.18h-2.273v5.359h2.5
			c0.57,0,1.031-0.073,1.379-0.224s0.637-0.35,0.867-0.602c0.23-0.25,0.398-0.545,0.504-0.883
			C140.634-14.07,140.689-14.417,140.689-14.775z M141.685-7.24c0-0.496-0.078-0.93-0.234-1.306c-0.16-0.376-0.387-0.69-0.691-0.946
			s-0.682-0.449-1.137-0.582c-0.453-0.132-1.027-0.197-1.715-0.197h-2.629v5.834h3.191c0.504,0,0.941-0.061,1.316-0.179
			c0.373-0.118,0.705-0.296,0.988-0.532c0.287-0.233,0.508-0.525,0.672-0.875C141.607-6.374,141.685-6.78,141.685-7.24z"/>
		<path fill="#181716" d="M156.138-2.929c0,0.102-0.035,0.18-0.102,0.229c-0.07,0.05-0.164,0.09-0.283,0.116
			s-0.295,0.038-0.525,0.038c-0.221,0-0.398-0.012-0.531-0.038c-0.131-0.026-0.227-0.064-0.289-0.116
			c-0.059-0.05-0.09-0.128-0.09-0.229v-1.152c-0.502,0.538-1.062,0.956-1.684,1.254c-0.619,0.298-1.273,0.448-1.961,0.448
			c-0.607,0-1.152-0.08-1.645-0.238c-0.488-0.157-0.906-0.386-1.254-0.684c-0.346-0.298-0.613-0.666-0.805-1.101
			c-0.191-0.436-0.289-0.93-0.289-1.483c0-0.648,0.133-1.21,0.396-1.688c0.264-0.478,0.643-0.874,1.139-1.189
			c0.492-0.316,1.1-0.553,1.816-0.71c0.715-0.158,1.52-0.238,2.418-0.238h1.586v-0.894c0-0.444-0.047-0.834-0.141-1.177
			c-0.094-0.34-0.244-0.624-0.453-0.85s-0.48-0.396-0.812-0.512c-0.336-0.116-0.742-0.173-1.229-0.173
			c-0.521,0-0.988,0.062-1.4,0.187c-0.414,0.124-0.777,0.26-1.088,0.41c-0.311,0.149-0.572,0.286-0.783,0.41
			c-0.207,0.124-0.363,0.186-0.465,0.186c-0.068,0-0.125-0.018-0.178-0.052s-0.096-0.084-0.135-0.154
			c-0.037-0.07-0.066-0.156-0.082-0.262c-0.02-0.106-0.027-0.225-0.027-0.353c0-0.212,0.016-0.382,0.043-0.504
			c0.031-0.124,0.105-0.241,0.217-0.352c0.115-0.11,0.314-0.24,0.596-0.39c0.281-0.15,0.605-0.286,0.973-0.41
			s0.768-0.227,1.203-0.309c0.434-0.082,0.875-0.122,1.316-0.122c0.828,0,1.531,0.095,2.113,0.282
			c0.578,0.188,1.047,0.462,1.406,0.826c0.359,0.362,0.619,0.812,0.781,1.35c0.16,0.538,0.242,1.164,0.242,1.881v7.762H156.138z
			 M154.041-8.187h-1.803c-0.58,0-1.084,0.05-1.51,0.147c-0.43,0.099-0.781,0.244-1.062,0.435c-0.281,0.191-0.488,0.422-0.621,0.691
			c-0.131,0.268-0.199,0.578-0.199,0.926c0,0.599,0.191,1.074,0.568,1.427c0.381,0.354,0.91,0.531,1.594,0.531
			c0.555,0,1.068-0.14,1.541-0.422s0.973-0.712,1.492-1.292V-8.187z"/>
		<path fill="#181716" d="M167.111-13.702c0,0.188-0.004,0.347-0.014,0.475s-0.027,0.228-0.053,0.3
			c-0.023,0.072-0.055,0.128-0.094,0.166c-0.041,0.038-0.094,0.058-0.16,0.058c-0.07,0-0.152-0.02-0.25-0.058
			s-0.209-0.078-0.332-0.116c-0.125-0.038-0.262-0.074-0.418-0.108c-0.152-0.033-0.316-0.052-0.496-0.052
			c-0.213,0-0.422,0.042-0.627,0.128s-0.42,0.227-0.646,0.422c-0.227,0.196-0.461,0.456-0.707,0.78
			c-0.248,0.324-0.523,0.72-0.818,1.19v7.573c0,0.068-0.018,0.126-0.053,0.173c-0.033,0.046-0.086,0.088-0.164,0.121
			c-0.078,0.034-0.186,0.061-0.32,0.078c-0.137,0.019-0.311,0.026-0.525,0.026c-0.205,0-0.375-0.008-0.512-0.026
			c-0.135-0.016-0.246-0.042-0.326-0.078c-0.082-0.033-0.137-0.073-0.166-0.121c-0.031-0.047-0.045-0.104-0.045-0.173v-11.512
			c0-0.067,0.014-0.126,0.039-0.172c0.027-0.046,0.078-0.088,0.154-0.128c0.076-0.038,0.174-0.064,0.295-0.076
			c0.119-0.012,0.275-0.02,0.471-0.02c0.189,0,0.346,0.006,0.467,0.02s0.219,0.038,0.287,0.076c0.068,0.04,0.119,0.082,0.148,0.128
			s0.045,0.104,0.045,0.172v1.676c0.312-0.46,0.611-0.834,0.887-1.126c0.277-0.29,0.539-0.518,0.789-0.684
			c0.246-0.166,0.492-0.282,0.734-0.346c0.242-0.064,0.488-0.097,0.734-0.097c0.113,0,0.236,0.007,0.377,0.019
			c0.139,0.014,0.287,0.038,0.441,0.069c0.154,0.034,0.291,0.074,0.416,0.116s0.211,0.086,0.262,0.128s0.086,0.084,0.105,0.122
			c0.016,0.038,0.031,0.088,0.043,0.146c0.012,0.06,0.02,0.147,0.027,0.262C167.107-14.051,167.111-13.898,167.111-13.702z"/>
		<path fill="#181716" d="M177.775-4.694c0,0.145-0.004,0.271-0.014,0.376c-0.008,0.106-0.023,0.196-0.045,0.269
			c-0.02,0.072-0.045,0.136-0.074,0.192c-0.031,0.056-0.098,0.136-0.207,0.241c-0.107,0.108-0.287,0.24-0.541,0.398
			c-0.256,0.158-0.545,0.298-0.865,0.422s-0.668,0.224-1.041,0.3c-0.377,0.076-0.764,0.116-1.164,0.116
			c-0.828,0-1.561-0.136-2.201-0.41c-0.641-0.271-1.176-0.67-1.607-1.196c-0.43-0.525-0.76-1.168-0.982-1.932
			c-0.227-0.764-0.34-1.644-0.34-2.642c0-1.135,0.137-2.108,0.414-2.923c0.277-0.813,0.656-1.481,1.139-2.002
			c0.482-0.52,1.049-0.905,1.701-1.157c0.652-0.25,1.359-0.376,2.119-0.376c0.367,0,0.721,0.033,1.068,0.102
			c0.346,0.068,0.66,0.158,0.953,0.268c0.289,0.11,0.547,0.238,0.773,0.385c0.227,0.144,0.391,0.268,0.492,0.372
			c0.105,0.102,0.176,0.184,0.211,0.243c0.039,0.061,0.07,0.131,0.098,0.211s0.043,0.172,0.051,0.273
			c0.008,0.103,0.012,0.23,0.012,0.384c0,0.334-0.039,0.566-0.117,0.698c-0.074,0.132-0.168,0.198-0.281,0.198
			c-0.125,0-0.273-0.07-0.441-0.21c-0.168-0.141-0.377-0.296-0.633-0.466c-0.256-0.171-0.562-0.326-0.928-0.466
			c-0.361-0.141-0.791-0.211-1.287-0.211c-1.016,0-1.791,0.391-2.332,1.17c-0.543,0.782-0.812,1.914-0.812,3.396
			c0,0.742,0.07,1.392,0.209,1.952c0.141,0.56,0.35,1.026,0.619,1.401c0.275,0.377,0.611,0.654,1.008,0.839
			c0.395,0.184,0.85,0.273,1.361,0.273c0.486,0,0.912-0.076,1.279-0.229c0.369-0.154,0.688-0.322,0.955-0.504
			c0.27-0.185,0.494-0.351,0.678-0.5c0.184-0.148,0.326-0.225,0.43-0.225c0.059,0,0.109,0.019,0.152,0.05
			c0.043,0.034,0.08,0.093,0.109,0.173c0.031,0.079,0.051,0.184,0.064,0.308C177.767-5.011,177.775-4.866,177.775-4.694z"/>
		<path fill="#181716" d="M189.4-2.929c0,0.102-0.035,0.18-0.102,0.229c-0.068,0.05-0.164,0.09-0.283,0.116
			s-0.295,0.038-0.525,0.038c-0.219,0-0.398-0.012-0.531-0.038c-0.131-0.026-0.229-0.064-0.289-0.116
			c-0.059-0.052-0.09-0.128-0.09-0.229v-1.152c-0.502,0.538-1.064,0.956-1.682,1.254c-0.619,0.298-1.275,0.448-1.965,0.448
			c-0.605,0-1.15-0.08-1.643-0.238c-0.488-0.157-0.906-0.386-1.254-0.684c-0.344-0.298-0.615-0.666-0.805-1.101
			c-0.191-0.436-0.289-0.93-0.289-1.483c0-0.648,0.133-1.21,0.396-1.688c0.264-0.478,0.645-0.874,1.139-1.189
			c0.492-0.316,1.1-0.553,1.816-0.71c0.715-0.158,1.521-0.238,2.418-0.238h1.586v-0.894c0-0.444-0.047-0.834-0.141-1.177
			c-0.094-0.34-0.246-0.624-0.453-0.85c-0.211-0.226-0.48-0.396-0.812-0.512c-0.336-0.116-0.742-0.173-1.229-0.173
			c-0.521,0-0.988,0.062-1.4,0.187c-0.414,0.124-0.777,0.26-1.088,0.41c-0.311,0.149-0.572,0.286-0.781,0.41
			s-0.365,0.186-0.467,0.186c-0.066,0-0.125-0.018-0.178-0.052s-0.098-0.084-0.135-0.154c-0.039-0.068-0.066-0.156-0.082-0.262
			c-0.02-0.106-0.027-0.225-0.027-0.353c0-0.212,0.016-0.382,0.043-0.504c0.031-0.124,0.104-0.241,0.217-0.352
			c0.115-0.11,0.314-0.24,0.596-0.39c0.283-0.15,0.605-0.286,0.973-0.41s0.768-0.227,1.203-0.309
			c0.434-0.082,0.875-0.122,1.316-0.122c0.826,0,1.531,0.095,2.113,0.282c0.578,0.188,1.047,0.462,1.406,0.826
			c0.359,0.362,0.619,0.812,0.781,1.35s0.242,1.164,0.242,1.881v7.762H189.4z M187.302-8.187H185.5c-0.58,0-1.084,0.05-1.51,0.147
			c-0.428,0.099-0.781,0.244-1.062,0.435c-0.281,0.191-0.488,0.422-0.621,0.691c-0.135,0.271-0.199,0.578-0.199,0.926
			c0,0.599,0.191,1.074,0.568,1.427c0.377,0.354,0.91,0.531,1.594,0.531c0.555,0,1.068-0.14,1.543-0.422
			c0.471-0.282,0.971-0.712,1.49-1.292V-8.187L187.302-8.187z"/>
		<path fill="#181716" d="M210.72-2.941c0,0.067-0.016,0.125-0.049,0.172c-0.037,0.046-0.09,0.088-0.166,0.121
			c-0.078,0.034-0.184,0.061-0.32,0.078c-0.137,0.019-0.305,0.026-0.512,0.026c-0.211,0-0.387-0.008-0.525-0.026
			c-0.137-0.016-0.244-0.042-0.326-0.078c-0.08-0.033-0.139-0.073-0.172-0.121c-0.035-0.047-0.051-0.104-0.051-0.172v-6.998
			c0-0.486-0.041-0.931-0.127-1.332c-0.088-0.4-0.223-0.746-0.408-1.036c-0.191-0.29-0.43-0.513-0.717-0.666
			c-0.291-0.154-0.631-0.23-1.023-0.23c-0.486,0-0.975,0.188-1.463,0.564c-0.492,0.376-1.033,0.924-1.621,1.649v8.046
			c0,0.068-0.018,0.126-0.051,0.173c-0.031,0.046-0.092,0.088-0.172,0.121c-0.082,0.034-0.191,0.061-0.324,0.078
			c-0.137,0.019-0.309,0.026-0.514,0.026c-0.197,0-0.365-0.008-0.506-0.026c-0.141-0.016-0.252-0.042-0.332-0.078
			c-0.082-0.033-0.137-0.073-0.168-0.121c-0.029-0.047-0.043-0.104-0.043-0.173v-6.995c0-0.486-0.047-0.931-0.141-1.332
			c-0.094-0.4-0.234-0.746-0.422-1.036s-0.424-0.513-0.707-0.666c-0.289-0.154-0.625-0.23-1.02-0.23
			c-0.484,0-0.977,0.188-1.469,0.564c-0.496,0.376-1.035,0.924-1.613,1.649v8.046c0,0.068-0.018,0.126-0.051,0.173
			c-0.035,0.046-0.09,0.088-0.168,0.121c-0.074,0.034-0.184,0.061-0.318,0.078c-0.137,0.019-0.311,0.026-0.525,0.026
			c-0.205,0-0.375-0.008-0.512-0.026c-0.137-0.016-0.246-0.042-0.324-0.078c-0.082-0.033-0.137-0.073-0.168-0.121
			c-0.031-0.047-0.043-0.104-0.043-0.173v-11.512c0-0.067,0.012-0.126,0.039-0.172s0.078-0.088,0.152-0.128
			c0.076-0.038,0.176-0.064,0.295-0.076s0.277-0.02,0.471-0.02c0.188,0,0.344,0.006,0.467,0.02s0.217,0.038,0.287,0.076
			c0.068,0.04,0.119,0.082,0.148,0.128c0.031,0.046,0.045,0.104,0.045,0.172v1.522c0.646-0.725,1.275-1.256,1.885-1.592
			c0.609-0.337,1.227-0.505,1.848-0.505c0.48,0,0.906,0.057,1.289,0.166c0.379,0.112,0.711,0.267,1.004,0.466
			c0.289,0.202,0.539,0.44,0.742,0.717c0.203,0.277,0.375,0.586,0.512,0.928c0.383-0.418,0.748-0.771,1.094-1.062
			c0.344-0.289,0.68-0.523,0.998-0.703c0.318-0.181,0.631-0.311,0.936-0.391c0.303-0.08,0.605-0.122,0.914-0.122
			c0.74,0,1.365,0.13,1.867,0.391c0.504,0.26,0.91,0.607,1.223,1.042c0.309,0.434,0.533,0.943,0.664,1.527s0.199,1.202,0.199,1.849
			v7.282H210.72z"/>
		<path fill="#181716" d="M225.533-8.877c0,1.006-0.111,1.91-0.328,2.712s-0.537,1.482-0.957,2.04
			c-0.424,0.56-0.945,0.99-1.568,1.292s-1.334,0.454-2.135,0.454c-0.34,0-0.656-0.034-0.949-0.103
			c-0.289-0.067-0.57-0.174-0.85-0.319c-0.279-0.145-0.553-0.328-0.826-0.55c-0.271-0.223-0.562-0.482-0.871-0.78v5.756
			c0,0.068-0.016,0.128-0.049,0.178c-0.037,0.052-0.09,0.095-0.166,0.128c-0.078,0.034-0.184,0.061-0.32,0.078
			c-0.137,0.017-0.312,0.026-0.523,0.026c-0.207,0-0.375-0.008-0.514-0.026c-0.135-0.018-0.244-0.042-0.326-0.078
			c-0.08-0.033-0.135-0.076-0.166-0.128c-0.029-0.05-0.045-0.109-0.045-0.178v-16.08c0-0.076,0.016-0.138,0.041-0.186
			s0.076-0.086,0.154-0.122c0.074-0.034,0.174-0.059,0.291-0.07c0.119-0.012,0.268-0.02,0.436-0.02c0.18,0,0.328,0.006,0.441,0.02
			c0.117,0.014,0.211,0.036,0.289,0.07c0.078,0.033,0.131,0.074,0.16,0.122c0.031,0.048,0.043,0.109,0.043,0.186v1.548
			c0.352-0.357,0.689-0.668,1.014-0.934c0.322-0.264,0.646-0.484,0.979-0.66c0.328-0.174,0.664-0.306,1.008-0.396
			c0.348-0.088,0.711-0.134,1.096-0.134c0.836,0,1.549,0.162,2.135,0.486c0.59,0.324,1.068,0.768,1.441,1.33
			c0.371,0.562,0.641,1.218,0.812,1.964C225.447-10.503,225.533-9.713,225.533-8.877z M223.343-8.633
			c0-0.588-0.045-1.158-0.135-1.708s-0.246-1.038-0.463-1.464c-0.217-0.427-0.512-0.769-0.881-1.024
			c-0.367-0.256-0.828-0.384-1.375-0.384c-0.277,0-0.543,0.04-0.812,0.122c-0.266,0.082-0.535,0.208-0.809,0.384
			c-0.275,0.174-0.562,0.404-0.863,0.69c-0.301,0.285-0.621,0.638-0.953,1.056v4.58c0.582,0.708,1.137,1.25,1.66,1.624
			s1.07,0.562,1.648,0.562c0.531,0,0.986-0.128,1.369-0.384c0.381-0.256,0.691-0.596,0.928-1.023
			c0.236-0.427,0.41-0.904,0.521-1.433C223.287-7.564,223.343-8.097,223.343-8.633z"/>
		<path fill="#181716" d="M36.478,13.132c0,0.267-0.019,0.49-0.051,0.672c-0.031,0.183-0.078,0.33-0.132,0.44
			c-0.054,0.109-0.124,0.189-0.208,0.242c-0.084,0.048-0.168,0.074-0.258,0.074h-1.89l-0.564,4.728h1.626
			c0.188,0,0.34,0.108,0.456,0.324c0.118,0.214,0.174,0.578,0.174,1.086c0,0.266-0.016,0.494-0.048,0.68
			c-0.034,0.188-0.078,0.338-0.132,0.448c-0.056,0.109-0.124,0.189-0.208,0.24c-0.084,0.05-0.17,0.076-0.258,0.076h-1.979
			l-0.613,5.192c-0.013,0.102-0.042,0.188-0.093,0.258c-0.048,0.07-0.138,0.137-0.266,0.191s-0.298,0.094-0.514,0.117
			c-0.217,0.023-0.49,0.035-0.822,0.035c-0.354,0-0.638-0.012-0.854-0.035c-0.216-0.023-0.378-0.062-0.489-0.117
			c-0.112-0.055-0.187-0.121-0.225-0.191c-0.04-0.07-0.05-0.156-0.042-0.258l0.63-5.192h-3.716l-0.614,5.192
			c-0.012,0.09-0.042,0.172-0.092,0.25c-0.048,0.078-0.134,0.145-0.258,0.199c-0.122,0.055-0.29,0.094-0.506,0.117
			c-0.214,0.023-0.5,0.035-0.854,0.035c-0.344,0-0.619-0.012-0.83-0.035c-0.21-0.023-0.373-0.062-0.489-0.117
			s-0.194-0.121-0.23-0.191c-0.04-0.07-0.048-0.156-0.025-0.258l0.598-5.192h-1.576c-0.189,0-0.342-0.106-0.458-0.316
			c-0.118-0.21-0.174-0.576-0.174-1.096c0-0.267,0.016-0.492,0.048-0.681c0.032-0.188,0.078-0.338,0.132-0.448
			c0.055-0.109,0.122-0.189,0.2-0.239s0.166-0.076,0.266-0.076h1.927l0.562-4.728h-1.676c-0.188,0-0.34-0.106-0.456-0.316
			c-0.118-0.21-0.176-0.576-0.176-1.094c0-0.532,0.062-0.902,0.184-1.112s0.276-0.314,0.464-0.314h1.99l0.598-4.846
			c0-0.1,0.028-0.184,0.084-0.256c0.055-0.072,0.148-0.134,0.282-0.19c0.134-0.056,0.309-0.096,0.532-0.124
			c0.22-0.027,0.502-0.042,0.846-0.042c0.345,0,0.62,0.015,0.83,0.042c0.208,0.028,0.37,0.07,0.48,0.124
			c0.109,0.055,0.18,0.12,0.208,0.19c0.027,0.072,0.042,0.152,0.042,0.24l-0.616,4.861h3.716l0.564-4.846
			c0.012-0.088,0.044-0.17,0.1-0.248c0.054-0.078,0.146-0.144,0.274-0.2c0.128-0.056,0.3-0.096,0.523-0.124
			c0.22-0.027,0.508-0.042,0.862-0.042c0.344,0,0.622,0.015,0.83,0.042c0.21,0.028,0.372,0.07,0.481,0.124
			c0.11,0.057,0.181,0.12,0.208,0.19c0.028,0.072,0.036,0.151,0.024,0.24l-0.58,4.861h1.594c0.188,0,0.34,0.108,0.456,0.324
			C36.417,12.262,36.478,12.625,36.478,13.132z M26.917,14.561l-0.562,4.728h3.699l0.58-4.728H26.917z"/>
		<path fill="#181716" d="M51.57,26.007c0,0.332-0.015,0.613-0.042,0.84c-0.028,0.227-0.068,0.414-0.124,0.562
			c-0.055,0.148-0.124,0.258-0.208,0.324c-0.082,0.066-0.181,0.102-0.29,0.102h-9.84c-0.366,0-0.672-0.109-0.922-0.324
			c-0.248-0.217-0.374-0.566-0.374-1.053V6.96c0-0.11,0.038-0.21,0.107-0.298c0.072-0.088,0.192-0.16,0.358-0.216
			c0.166-0.057,0.39-0.101,0.672-0.132c0.284-0.034,0.632-0.051,1.054-0.051c0.433,0,0.786,0.017,1.061,0.051
			c0.277,0.033,0.498,0.078,0.664,0.132s0.285,0.126,0.357,0.216c0.072,0.088,0.108,0.188,0.108,0.298v17.272h6.754
			c0.109,0,0.208,0.031,0.29,0.092c0.084,0.06,0.151,0.16,0.208,0.298c0.056,0.138,0.098,0.32,0.124,0.546
			C51.555,25.399,51.57,25.676,51.57,26.007z"/>
		<path fill="#181716" d="M68.04,19.439c0,0.508-0.114,0.884-0.34,1.128s-0.54,0.363-0.938,0.363h-9.01
			c0,0.631,0.076,1.204,0.225,1.719c0.147,0.514,0.386,0.951,0.712,1.31c0.325,0.358,0.748,0.634,1.262,0.822
			c0.514,0.188,1.13,0.282,1.85,0.282c0.73,0,1.372-0.053,1.927-0.158c0.552-0.104,1.031-0.221,1.434-0.349
			c0.404-0.126,0.738-0.243,1.004-0.348s0.482-0.158,0.648-0.158c0.1,0,0.182,0.021,0.248,0.059
			c0.065,0.038,0.121,0.107,0.166,0.208c0.044,0.1,0.073,0.242,0.092,0.424c0.016,0.182,0.025,0.412,0.025,0.688
			c0,0.244-0.006,0.45-0.018,0.622s-0.028,0.318-0.048,0.441c-0.024,0.123-0.057,0.223-0.101,0.307
			c-0.044,0.082-0.104,0.162-0.176,0.24s-0.268,0.182-0.588,0.312c-0.322,0.133-0.73,0.266-1.228,0.391
			c-0.498,0.127-1.066,0.238-1.708,0.332c-0.641,0.094-1.326,0.141-2.057,0.141c-1.315,0-2.47-0.166-3.458-0.498
			c-0.99-0.332-1.817-0.834-2.479-1.51c-0.664-0.674-1.16-1.526-1.486-2.554c-0.326-1.03-0.488-2.234-0.488-3.618
			c0-1.316,0.17-2.502,0.515-3.561c0.342-1.056,0.84-1.951,1.491-2.688c0.654-0.736,1.448-1.296,2.383-1.685
			c0.934-0.386,1.987-0.579,3.16-0.579c1.237,0,2.296,0.182,3.178,0.546c0.878,0.365,1.6,0.872,2.164,1.518
			c0.563,0.646,0.979,1.414,1.244,2.298c0.266,0.884,0.397,1.849,0.397,2.889v0.666H68.04z M63.994,18.245
			c0.032-1.172-0.204-2.094-0.708-2.762c-0.502-0.668-1.28-1.004-2.33-1.004c-0.532,0-0.994,0.1-1.384,0.298
			c-0.395,0.2-0.72,0.466-0.98,0.804c-0.26,0.336-0.458,0.736-0.598,1.194c-0.136,0.458-0.216,0.95-0.24,1.468h6.24V18.245z"/>
		<path fill="#181716" d="M84.562,27.32c0,0.156-0.057,0.277-0.166,0.363c-0.112,0.092-0.286,0.152-0.524,0.193
			s-0.588,0.057-1.052,0.057c-0.498,0-0.862-0.02-1.088-0.057c-0.227-0.037-0.387-0.102-0.48-0.193
			c-0.094-0.086-0.14-0.207-0.14-0.363v-1.18c-0.61,0.652-1.302,1.162-2.082,1.527c-0.782,0.367-1.646,0.547-2.599,0.547
			c-0.785,0-1.508-0.102-2.164-0.305c-0.659-0.207-1.228-0.512-1.709-0.914c-0.48-0.402-0.854-0.902-1.12-1.501
			c-0.267-0.598-0.398-1.294-0.398-2.09c0-0.864,0.168-1.612,0.506-2.248c0.338-0.637,0.842-1.162,1.51-1.578
			c0.671-0.414,1.503-0.72,2.498-0.92c0.996-0.2,2.15-0.298,3.467-0.298h1.443v-0.896c0-0.464-0.046-0.872-0.14-1.22
			s-0.248-0.638-0.464-0.872c-0.214-0.232-0.502-0.404-0.864-0.514c-0.36-0.11-0.804-0.166-1.334-0.166
			c-0.698,0-1.32,0.077-1.868,0.231s-1.032,0.326-1.452,0.515c-0.422,0.188-0.771,0.359-1.054,0.514
			c-0.282,0.156-0.512,0.231-0.688,0.231c-0.123,0-0.229-0.039-0.323-0.115c-0.095-0.076-0.172-0.188-0.232-0.332
			c-0.06-0.145-0.107-0.32-0.14-0.53s-0.05-0.442-0.05-0.698c0-0.342,0.027-0.613,0.084-0.813c0.054-0.198,0.159-0.378,0.313-0.54
			c0.156-0.16,0.426-0.336,0.814-0.53c0.386-0.194,0.84-0.374,1.359-0.54c0.521-0.166,1.088-0.3,1.702-0.406
			c0.614-0.104,1.246-0.158,1.9-0.158c1.16,0,2.153,0.114,2.976,0.341c0.824,0.226,1.502,0.575,2.034,1.044
			c0.532,0.47,0.918,1.076,1.162,1.817c0.242,0.742,0.366,1.62,0.366,2.639v9.959H84.562z M80.461,20.981H78.87
			c-0.676,0-1.25,0.05-1.726,0.149c-0.475,0.101-0.862,0.25-1.16,0.448s-0.519,0.439-0.656,0.722s-0.208,0.606-0.208,0.97
			c0,0.62,0.196,1.106,0.588,1.461c0.394,0.354,0.938,0.531,1.634,0.531c0.586,0,1.126-0.149,1.62-0.447
			c0.49-0.299,0.992-0.736,1.5-1.311V20.981z"/>
		<path fill="#181716" d="M103.238,27.269c0,0.125-0.029,0.223-0.082,0.309c-0.055,0.082-0.148,0.152-0.283,0.207
			c-0.133,0.055-0.311,0.094-0.541,0.117c-0.225,0.023-0.506,0.035-0.838,0.035c-0.355,0-0.641-0.012-0.863-0.035
			c-0.221-0.023-0.4-0.062-0.539-0.117c-0.138-0.055-0.237-0.125-0.298-0.207c-0.06-0.086-0.092-0.188-0.092-0.309v-1.643
			c-0.764,0.82-1.562,1.455-2.398,1.91c-0.834,0.455-1.76,0.68-2.777,0.68c-1.128,0-2.084-0.217-2.864-0.654
			s-1.416-1.027-1.908-1.768s-0.85-1.605-1.07-2.596c-0.22-0.99-0.332-2.032-0.332-3.126c0-1.316,0.143-2.5,0.425-3.55
			c0.282-1.051,0.693-1.948,1.235-2.688s1.217-1.31,2.024-1.708c0.808-0.397,1.736-0.596,2.788-0.596
			c0.83,0,1.582,0.168,2.258,0.506c0.674,0.338,1.344,0.832,2.008,1.486V5.508c0-0.109,0.03-0.21,0.09-0.298
			c0.062-0.088,0.172-0.164,0.332-0.224c0.16-0.061,0.376-0.108,0.639-0.141c0.266-0.033,0.604-0.05,1.014-0.05
			c0.408,0,0.746,0.017,1.012,0.05c0.268,0.034,0.475,0.08,0.631,0.141c0.152,0.06,0.264,0.136,0.328,0.224
			c0.066,0.088,0.102,0.188,0.102,0.298v21.761H103.238z M99.089,17.38c-0.598-0.752-1.17-1.328-1.718-1.726
			c-0.546-0.398-1.12-0.596-1.716-0.596c-0.542,0-1.01,0.136-1.402,0.405c-0.392,0.272-0.708,0.634-0.945,1.086
			c-0.238,0.452-0.414,0.96-0.532,1.519c-0.116,0.558-0.174,1.132-0.174,1.718c0,0.62,0.05,1.222,0.149,1.808
			s0.262,1.11,0.488,1.568c0.226,0.46,0.53,0.828,0.904,1.104c0.376,0.278,0.852,0.416,1.428,0.416c0.288,0,0.565-0.042,0.838-0.123
			c0.27-0.085,0.546-0.219,0.828-0.408c0.284-0.188,0.574-0.435,0.872-0.738s0.624-0.676,0.979-1.12V17.38z"/>
		<path fill="#181716" d="M121.582,19.439c0,0.508-0.115,0.884-0.34,1.128c-0.227,0.244-0.541,0.363-0.939,0.363h-9.008
			c0,0.631,0.074,1.204,0.223,1.719c0.148,0.514,0.387,0.951,0.713,1.31s0.748,0.634,1.262,0.822
			c0.514,0.188,1.131,0.282,1.85,0.282c0.73,0,1.371-0.053,1.926-0.158c0.553-0.104,1.031-0.221,1.434-0.349
			c0.406-0.126,0.738-0.243,1.004-0.348s0.484-0.158,0.648-0.158c0.102,0,0.184,0.021,0.25,0.059
			c0.064,0.038,0.121,0.107,0.164,0.208c0.045,0.1,0.074,0.242,0.094,0.424c0.016,0.182,0.023,0.412,0.023,0.688
			c0,0.244-0.004,0.45-0.016,0.622s-0.029,0.318-0.049,0.441c-0.025,0.123-0.057,0.223-0.1,0.307
			c-0.045,0.082-0.105,0.162-0.176,0.24s-0.27,0.182-0.59,0.312c-0.32,0.133-0.729,0.266-1.227,0.391
			c-0.498,0.127-1.066,0.238-1.707,0.332s-1.328,0.141-2.059,0.141c-1.314,0-2.469-0.166-3.457-0.498
			c-0.99-0.332-1.816-0.834-2.48-1.51c-0.664-0.674-1.16-1.526-1.484-2.554c-0.328-1.03-0.488-2.234-0.488-3.618
			c0-1.316,0.168-2.502,0.514-3.561c0.344-1.056,0.84-1.951,1.494-2.688c0.652-0.736,1.445-1.296,2.379-1.685
			c0.934-0.386,1.988-0.579,3.16-0.579c1.238,0,2.299,0.182,3.18,0.546c0.877,0.365,1.602,0.872,2.164,1.518
			c0.562,0.648,0.979,1.414,1.242,2.298c0.266,0.884,0.398,1.849,0.398,2.889v0.666H121.582z M117.537,18.245
			c0.031-1.172-0.205-2.094-0.709-2.762c-0.502-0.668-1.279-1.004-2.33-1.004c-0.531,0-0.992,0.1-1.383,0.298
			c-0.395,0.198-0.721,0.466-0.98,0.804c-0.262,0.336-0.459,0.736-0.598,1.194c-0.137,0.458-0.217,0.95-0.242,1.468h6.242V18.245z"
			/>
		<path fill="#181716" d="M135,13.846c0,0.398-0.012,0.725-0.033,0.98c-0.023,0.256-0.055,0.454-0.102,0.596
			c-0.041,0.145-0.102,0.244-0.172,0.298c-0.074,0.057-0.164,0.084-0.275,0.084c-0.09,0-0.189-0.018-0.299-0.058
			c-0.111-0.04-0.234-0.08-0.373-0.124s-0.291-0.084-0.459-0.124c-0.164-0.04-0.348-0.058-0.545-0.058
			c-0.232,0-0.463,0.046-0.697,0.14s-0.473,0.24-0.723,0.439c-0.248,0.2-0.508,0.465-0.781,0.797
			c-0.27,0.332-0.559,0.742-0.871,1.228v9.225c0,0.111-0.035,0.211-0.1,0.293c-0.066,0.082-0.18,0.15-0.34,0.207
			c-0.16,0.055-0.373,0.096-0.639,0.125c-0.266,0.027-0.604,0.039-1.012,0.039c-0.41,0-0.748-0.012-1.012-0.039
			c-0.266-0.029-0.479-0.07-0.639-0.125c-0.162-0.057-0.275-0.125-0.342-0.207s-0.1-0.182-0.1-0.293V12.47
			c0-0.109,0.027-0.208,0.084-0.29c0.055-0.084,0.154-0.151,0.297-0.208c0.143-0.054,0.328-0.096,0.555-0.124
			c0.227-0.027,0.512-0.042,0.855-0.042c0.355,0,0.646,0.015,0.879,0.042c0.232,0.028,0.412,0.07,0.539,0.124
			c0.127,0.057,0.219,0.124,0.273,0.208c0.059,0.084,0.086,0.181,0.086,0.29v1.843c0.387-0.553,0.752-1.009,1.096-1.37
			c0.342-0.36,0.668-0.645,0.979-0.854c0.309-0.21,0.619-0.355,0.928-0.439c0.311-0.084,0.621-0.124,0.93-0.124
			c0.143,0,0.299,0.008,0.463,0.023c0.168,0.017,0.34,0.044,0.516,0.084c0.178,0.04,0.332,0.084,0.463,0.132
			c0.133,0.049,0.23,0.103,0.291,0.158c0.062,0.055,0.107,0.116,0.133,0.182c0.027,0.066,0.053,0.158,0.074,0.274
			c0.023,0.116,0.039,0.29,0.051,0.522C134.996,13.132,135,13.449,135,13.846z"/>
		<path fill="#181716" d="M148.052,23.088c0,0.84-0.156,1.582-0.471,2.225c-0.314,0.642-0.762,1.179-1.336,1.608
			s-1.256,0.754-2.041,0.969c-0.787,0.217-1.637,0.324-2.555,0.324c-0.553,0-1.082-0.043-1.584-0.125
			c-0.504-0.082-0.955-0.188-1.354-0.312s-0.73-0.258-0.996-0.391s-0.457-0.256-0.582-0.375c-0.121-0.113-0.213-0.297-0.281-0.545
			c-0.066-0.25-0.1-0.619-0.1-1.104c0-0.322,0.01-0.578,0.033-0.772c0.023-0.193,0.055-0.348,0.102-0.464
			c0.041-0.116,0.1-0.194,0.164-0.231c0.066-0.038,0.148-0.059,0.25-0.059c0.121,0,0.299,0.068,0.539,0.208s0.535,0.29,0.889,0.456
			c0.352,0.166,0.766,0.322,1.236,0.464c0.467,0.145,1.004,0.216,1.6,0.216c0.377,0,0.709-0.04,1.004-0.115
			c0.295-0.076,0.549-0.188,0.764-0.332c0.215-0.145,0.379-0.326,0.49-0.549c0.109-0.22,0.166-0.476,0.166-0.762
			c0-0.332-0.105-0.618-0.307-0.854c-0.205-0.238-0.475-0.446-0.814-0.622c-0.336-0.177-0.717-0.343-1.143-0.498
			c-0.428-0.156-0.865-0.326-1.311-0.515c-0.449-0.188-0.883-0.403-1.309-0.646c-0.428-0.242-0.809-0.542-1.145-0.896
			c-0.34-0.354-0.609-0.78-0.812-1.278c-0.207-0.498-0.309-1.095-0.309-1.792c0-0.708,0.139-1.358,0.416-1.95
			c0.275-0.592,0.674-1.098,1.193-1.519c0.52-0.42,1.156-0.747,1.902-0.978c0.744-0.231,1.582-0.348,2.512-0.348
			c0.465,0,0.918,0.034,1.352,0.1c0.439,0.066,0.832,0.15,1.189,0.25c0.354,0.099,0.652,0.208,0.896,0.324
			c0.242,0.116,0.414,0.216,0.521,0.298c0.105,0.082,0.18,0.166,0.225,0.248c0.041,0.084,0.074,0.182,0.1,0.298
			c0.021,0.116,0.041,0.26,0.057,0.433c0.016,0.172,0.025,0.384,0.025,0.638c0,0.298-0.01,0.542-0.025,0.729
			c-0.016,0.188-0.043,0.336-0.082,0.448c-0.041,0.112-0.094,0.187-0.16,0.224c-0.064,0.038-0.141,0.059-0.23,0.059
			c-0.102,0-0.254-0.059-0.461-0.174c-0.211-0.116-0.477-0.24-0.791-0.374c-0.316-0.134-0.682-0.259-1.096-0.374
			c-0.414-0.116-0.887-0.174-1.418-0.174c-0.377,0-0.705,0.039-0.979,0.115c-0.279,0.078-0.504,0.188-0.68,0.332
			c-0.178,0.145-0.311,0.312-0.398,0.506c-0.09,0.194-0.131,0.402-0.131,0.622c0,0.343,0.105,0.63,0.312,0.864
			c0.211,0.232,0.486,0.437,0.83,0.614c0.342,0.178,0.732,0.342,1.17,0.498s0.879,0.324,1.326,0.506
			c0.451,0.182,0.891,0.396,1.328,0.638c0.439,0.244,0.826,0.542,1.17,0.896c0.342,0.354,0.621,0.777,0.83,1.27
			C147.947,21.831,148.052,22.415,148.052,23.088z"/>
		<path fill="#181716" d="M165.802,27.269c0,0.111-0.035,0.211-0.102,0.293s-0.176,0.15-0.332,0.207
			c-0.152,0.055-0.367,0.096-0.637,0.125c-0.273,0.027-0.605,0.039-1.004,0.039c-0.408,0-0.748-0.012-1.02-0.039
			c-0.273-0.029-0.484-0.07-0.639-0.125c-0.156-0.057-0.268-0.125-0.332-0.207c-0.066-0.082-0.1-0.182-0.1-0.293v-8.444
			c0-0.721-0.053-1.284-0.158-1.694c-0.107-0.408-0.256-0.76-0.455-1.052c-0.201-0.292-0.459-0.52-0.775-0.68
			c-0.314-0.16-0.682-0.24-1.102-0.24c-0.533,0-1.068,0.193-1.611,0.58c-0.541,0.388-1.107,0.952-1.693,1.691v9.839
			c0,0.111-0.033,0.211-0.1,0.293s-0.18,0.15-0.34,0.207c-0.16,0.055-0.375,0.096-0.639,0.125c-0.266,0.027-0.604,0.039-1.012,0.039
			c-0.41,0-0.748-0.012-1.014-0.039c-0.266-0.029-0.479-0.07-0.637-0.125c-0.16-0.057-0.275-0.125-0.342-0.207
			c-0.064-0.082-0.1-0.182-0.1-0.293V5.451c0-0.11,0.035-0.21,0.1-0.298c0.066-0.088,0.182-0.164,0.342-0.225
			c0.158-0.06,0.373-0.107,0.637-0.14s0.604-0.05,1.014-0.05c0.408,0,0.746,0.016,1.012,0.05c0.268,0.034,0.479,0.08,0.639,0.14
			c0.16,0.061,0.273,0.137,0.34,0.225s0.1,0.188,0.1,0.298v8.18c0.719-0.708,1.451-1.235,2.201-1.584
			c0.746-0.348,1.523-0.521,2.328-0.521c1.008,0,1.857,0.166,2.547,0.498c0.691,0.332,1.25,0.786,1.676,1.359
			c0.426,0.574,0.732,1.248,0.922,2.017c0.188,0.768,0.281,1.699,0.281,2.796v9.074H165.802z"/>
		<path fill="#181716" d="M174.873,7.458c0,0.84-0.172,1.422-0.516,1.742c-0.344,0.322-0.977,0.481-1.906,0.481
			c-0.943,0-1.574-0.155-1.902-0.464c-0.324-0.308-0.486-0.868-0.486-1.676c0-0.84,0.168-1.424,0.506-1.75
			c0.336-0.326,0.973-0.49,1.916-0.49c0.93,0,1.557,0.158,1.889,0.475C174.705,6.088,174.873,6.651,174.873,7.458z M174.558,27.269
			c0,0.111-0.033,0.211-0.1,0.293s-0.18,0.15-0.34,0.207c-0.16,0.055-0.377,0.096-0.639,0.125c-0.268,0.027-0.604,0.039-1.014,0.039
			c-0.408,0-0.746-0.012-1.012-0.039c-0.266-0.029-0.479-0.07-0.639-0.125c-0.16-0.057-0.275-0.125-0.34-0.207
			c-0.066-0.082-0.1-0.182-0.1-0.293V12.502c0-0.109,0.033-0.208,0.1-0.29c0.064-0.082,0.18-0.156,0.34-0.216
			c0.16-0.061,0.373-0.108,0.639-0.14c0.266-0.034,0.604-0.051,1.012-0.051c0.41,0,0.746,0.019,1.014,0.051
			c0.264,0.031,0.479,0.079,0.639,0.14c0.16,0.06,0.273,0.132,0.34,0.216s0.1,0.181,0.1,0.29V27.269z"/>
		<path fill="#181716" d="M194.095,19.655c0,1.315-0.141,2.502-0.422,3.56c-0.283,1.056-0.695,1.956-1.234,2.695
			c-0.543,0.742-1.219,1.311-2.027,1.709c-0.805,0.396-1.73,0.598-2.77,0.598c-0.434,0-0.828-0.041-1.188-0.123
			c-0.361-0.082-0.709-0.209-1.045-0.381s-0.672-0.385-1.004-0.639s-0.674-0.551-1.029-0.895v6.969c0,0.109-0.035,0.209-0.102,0.297
			c-0.062,0.088-0.18,0.162-0.34,0.223c-0.16,0.062-0.373,0.109-0.637,0.141c-0.266,0.031-0.602,0.049-1.012,0.049
			s-0.746-0.018-1.012-0.049c-0.268-0.031-0.48-0.078-0.641-0.141c-0.158-0.061-0.273-0.135-0.34-0.223
			c-0.064-0.088-0.098-0.188-0.098-0.297v-20.68c0-0.109,0.027-0.208,0.082-0.29c0.055-0.084,0.15-0.151,0.291-0.208
			c0.139-0.054,0.32-0.096,0.545-0.124c0.227-0.027,0.512-0.042,0.855-0.042c0.332,0,0.611,0.015,0.84,0.042
			c0.227,0.028,0.406,0.07,0.547,0.124c0.137,0.057,0.232,0.124,0.291,0.208c0.053,0.084,0.082,0.181,0.082,0.29v1.742
			c0.432-0.442,0.855-0.832,1.27-1.17c0.414-0.336,0.838-0.62,1.271-0.846c0.43-0.227,0.875-0.396,1.336-0.506
			c0.459-0.11,0.945-0.166,1.467-0.166c1.084,0,2.008,0.212,2.77,0.638c0.764,0.426,1.387,1.01,1.869,1.75
			c0.48,0.742,0.832,1.604,1.053,2.588C193.988,17.487,194.095,18.537,194.095,19.655z M189.75,19.953
			c0-0.63-0.045-1.236-0.139-1.818c-0.098-0.58-0.258-1.098-0.484-1.55c-0.225-0.452-0.525-0.816-0.895-1.086
			c-0.371-0.271-0.832-0.406-1.385-0.406c-0.277,0-0.549,0.042-0.818,0.124c-0.273,0.084-0.549,0.218-0.832,0.406
			s-0.57,0.432-0.871,0.729c-0.301,0.299-0.617,0.668-0.945,1.112v4.878c0.586,0.742,1.145,1.314,1.676,1.719
			c0.529,0.403,1.082,0.605,1.656,0.605c0.543,0,1.004-0.138,1.385-0.416c0.383-0.276,0.697-0.638,0.939-1.086
			s0.422-0.954,0.539-1.518C189.693,21.081,189.75,20.516,189.75,19.953z"/>
		<path fill="#181716" d="M213.005,24.581c0,0.276-0.008,0.512-0.025,0.706s-0.041,0.36-0.074,0.498
			c-0.033,0.137-0.078,0.256-0.131,0.355c-0.055,0.102-0.145,0.211-0.268,0.34s-0.355,0.293-0.705,0.49
			c-0.348,0.201-0.773,0.391-1.277,0.572c-0.506,0.184-1.078,0.334-1.727,0.457c-0.646,0.123-1.348,0.184-2.098,0.184
			c-1.471,0-2.799-0.227-3.984-0.68c-1.184-0.455-2.188-1.131-3.02-2.035c-0.828-0.901-1.463-2.025-1.906-3.376
			c-0.445-1.35-0.664-2.92-0.664-4.712c0-1.826,0.242-3.446,0.73-4.862c0.484-1.416,1.164-2.604,2.041-3.567
			c0.873-0.962,1.922-1.692,3.143-2.19s2.57-0.746,4.041-0.746c0.598,0,1.172,0.051,1.727,0.15c0.553,0.1,1.064,0.23,1.535,0.39
			c0.469,0.16,0.893,0.347,1.268,0.557c0.377,0.21,0.639,0.39,0.791,0.54c0.146,0.149,0.252,0.273,0.307,0.374
			c0.053,0.1,0.1,0.226,0.131,0.382c0.033,0.154,0.059,0.336,0.074,0.546c0.018,0.21,0.025,0.47,0.025,0.78
			c0,0.332-0.012,0.613-0.033,0.846s-0.061,0.42-0.115,0.564c-0.057,0.144-0.125,0.25-0.201,0.315
			c-0.078,0.066-0.166,0.101-0.266,0.101c-0.166,0-0.377-0.097-0.631-0.293c-0.254-0.193-0.582-0.409-0.988-0.646
			c-0.402-0.238-0.883-0.454-1.443-0.648c-0.561-0.193-1.225-0.29-1.998-0.29c-0.852,0-1.613,0.175-2.281,0.522
			c-0.67,0.348-1.24,0.846-1.707,1.494c-0.473,0.647-0.828,1.43-1.07,2.348c-0.246,0.918-0.367,1.954-0.367,3.104
			c0,1.26,0.129,2.352,0.389,3.275s0.631,1.685,1.113,2.282c0.48,0.598,1.061,1.042,1.74,1.336c0.682,0.292,1.449,0.44,2.297,0.44
			c0.777,0,1.445-0.09,2.008-0.274c0.566-0.184,1.051-0.384,1.453-0.606c0.404-0.222,0.736-0.42,0.996-0.598
			s0.461-0.266,0.605-0.266c0.113,0,0.201,0.021,0.266,0.065c0.066,0.044,0.123,0.133,0.168,0.267
			c0.043,0.134,0.078,0.317,0.098,0.556C212.996,23.867,213.005,24.182,213.005,24.581z"/>
		<path fill="#181716" d="M220.865,7.458c0,0.84-0.172,1.422-0.514,1.742c-0.344,0.322-0.979,0.481-1.908,0.481
			c-0.941,0-1.574-0.155-1.898-0.464c-0.328-0.308-0.492-0.868-0.492-1.676c0-0.84,0.172-1.424,0.508-1.75
			c0.338-0.326,0.977-0.49,1.918-0.49c0.928,0,1.559,0.158,1.891,0.475C220.701,6.088,220.865,6.651,220.865,7.458z M220.552,27.269
			c0,0.111-0.035,0.211-0.102,0.293s-0.18,0.15-0.34,0.207c-0.16,0.055-0.375,0.096-0.641,0.125
			c-0.266,0.027-0.602,0.039-1.012,0.039c-0.406,0-0.746-0.012-1.012-0.039c-0.266-0.029-0.477-0.07-0.637-0.125
			c-0.16-0.057-0.273-0.125-0.34-0.207s-0.102-0.182-0.102-0.293V12.502c0-0.109,0.035-0.208,0.102-0.29s0.18-0.156,0.34-0.216
			c0.16-0.061,0.373-0.108,0.637-0.14c0.266-0.034,0.605-0.051,1.012-0.051c0.41,0,0.746,0.019,1.012,0.051
			c0.268,0.031,0.48,0.079,0.641,0.14c0.16,0.06,0.273,0.132,0.34,0.216s0.102,0.181,0.102,0.29V27.269z"/>
		<path fill="#181716" d="M234.697,13.846c0,0.398-0.012,0.725-0.033,0.98s-0.053,0.454-0.1,0.596
			c-0.043,0.145-0.102,0.244-0.176,0.298c-0.07,0.057-0.162,0.084-0.273,0.084c-0.09,0-0.189-0.018-0.297-0.058
			c-0.113-0.04-0.236-0.08-0.375-0.124c-0.137-0.044-0.291-0.084-0.457-0.124s-0.348-0.058-0.547-0.058
			c-0.23,0-0.463,0.046-0.697,0.14s-0.471,0.24-0.721,0.439c-0.25,0.2-0.51,0.465-0.781,0.797c-0.273,0.332-0.561,0.742-0.871,1.228
			v9.225c0,0.111-0.035,0.211-0.102,0.293s-0.18,0.15-0.34,0.207c-0.16,0.055-0.375,0.096-0.637,0.125
			c-0.266,0.027-0.605,0.039-1.012,0.039c-0.41,0-0.746-0.012-1.014-0.039c-0.266-0.029-0.479-0.07-0.639-0.125
			c-0.16-0.057-0.273-0.125-0.34-0.207s-0.102-0.182-0.102-0.293V12.47c0-0.109,0.027-0.208,0.086-0.29
			c0.053-0.084,0.152-0.151,0.297-0.208c0.141-0.054,0.328-0.096,0.555-0.124c0.225-0.027,0.512-0.042,0.855-0.042
			c0.354,0,0.645,0.015,0.879,0.042c0.23,0.028,0.41,0.07,0.539,0.124c0.125,0.057,0.219,0.124,0.273,0.208
			c0.057,0.084,0.084,0.181,0.084,0.29v1.843c0.385-0.553,0.752-1.009,1.096-1.37c0.344-0.36,0.668-0.645,0.979-0.854
			c0.307-0.21,0.619-0.355,0.928-0.439c0.311-0.084,0.621-0.124,0.93-0.124c0.145,0,0.299,0.008,0.465,0.023
			c0.166,0.017,0.338,0.044,0.514,0.084c0.178,0.04,0.332,0.084,0.463,0.132c0.133,0.049,0.23,0.103,0.293,0.158
			c0.061,0.055,0.105,0.116,0.133,0.182c0.025,0.066,0.051,0.158,0.074,0.274c0.021,0.116,0.039,0.29,0.047,0.522
			C234.693,13.132,234.697,13.449,234.697,13.846z"/>
		<path fill="#181716" d="M248.462,24.915c0,0.288-0.008,0.528-0.023,0.722c-0.018,0.194-0.039,0.359-0.066,0.49
			c-0.029,0.131-0.061,0.24-0.098,0.322c-0.041,0.084-0.125,0.189-0.26,0.316c-0.135,0.125-0.359,0.281-0.68,0.465
			c-0.322,0.18-0.688,0.344-1.096,0.486c-0.41,0.145-0.855,0.26-1.336,0.35s-0.977,0.133-1.484,0.133
			c-1.141,0-2.148-0.18-3.031-0.531c-0.877-0.355-1.617-0.877-2.213-1.57c-0.596-0.69-1.045-1.534-1.352-2.528
			c-0.303-0.996-0.459-2.135-0.459-3.418c0-1.482,0.188-2.763,0.557-3.842c0.373-1.078,0.889-1.971,1.549-2.679
			c0.664-0.708,1.451-1.233,2.359-1.578c0.906-0.342,1.902-0.514,2.986-0.514c0.441,0,0.877,0.04,1.303,0.116
			s0.824,0.182,1.193,0.313c0.371,0.132,0.703,0.282,0.996,0.448c0.291,0.166,0.5,0.311,0.623,0.432
			c0.121,0.122,0.207,0.225,0.258,0.307c0.049,0.084,0.086,0.191,0.117,0.324c0.027,0.132,0.047,0.296,0.066,0.489
			c0.016,0.194,0.023,0.429,0.023,0.706c0,0.643-0.055,1.092-0.166,1.353c-0.111,0.26-0.254,0.39-0.432,0.39
			c-0.188,0-0.387-0.078-0.598-0.232c-0.209-0.153-0.457-0.325-0.746-0.514c-0.289-0.188-0.629-0.359-1.029-0.514
			c-0.396-0.156-0.877-0.232-1.428-0.232c-1.084,0-1.914,0.416-2.488,1.252c-0.576,0.834-0.863,2.061-0.863,3.674
			c0,0.797,0.07,1.5,0.215,2.108c0.143,0.608,0.355,1.118,0.639,1.526c0.283,0.41,0.635,0.716,1.061,0.92s0.922,0.306,1.484,0.306
			c0.574,0,1.07-0.084,1.484-0.256s0.779-0.362,1.086-0.574c0.311-0.208,0.57-0.399,0.783-0.571
			c0.209-0.171,0.385-0.257,0.531-0.257c0.1,0,0.182,0.028,0.248,0.084c0.066,0.057,0.121,0.158,0.158,0.307
			c0.037,0.149,0.068,0.34,0.09,0.573C248.455,24.249,248.462,24.548,248.462,24.915z"/>
		<path fill="#181716" d="M256.142,27.269c0,0.111-0.035,0.211-0.102,0.293c-0.064,0.082-0.18,0.15-0.34,0.207
			c-0.16,0.055-0.373,0.096-0.637,0.125c-0.266,0.027-0.605,0.039-1.016,0.039c-0.406,0-0.746-0.012-1.012-0.039
			c-0.266-0.029-0.477-0.07-0.637-0.125c-0.16-0.057-0.273-0.125-0.34-0.207s-0.102-0.182-0.102-0.293V5.451
			c0-0.11,0.035-0.21,0.102-0.298s0.18-0.164,0.34-0.225c0.16-0.06,0.375-0.107,0.637-0.14c0.266-0.032,0.605-0.05,1.012-0.05
			c0.41,0,0.75,0.016,1.016,0.05s0.477,0.08,0.637,0.14c0.16,0.061,0.275,0.137,0.34,0.225c0.066,0.088,0.102,0.188,0.102,0.298
			V27.269z"/>
		<path fill="#181716" d="M274.455,19.439c0,0.508-0.115,0.884-0.34,1.128c-0.23,0.244-0.543,0.363-0.939,0.363h-9.01
			c0,0.631,0.074,1.204,0.223,1.719c0.148,0.514,0.387,0.951,0.713,1.31s0.746,0.634,1.26,0.822
			c0.516,0.188,1.131,0.282,1.852,0.282c0.73,0,1.373-0.053,1.926-0.158c0.551-0.104,1.031-0.221,1.436-0.349
			c0.402-0.126,0.738-0.243,1.004-0.348s0.48-0.158,0.646-0.158c0.1,0,0.182,0.021,0.246,0.059c0.066,0.038,0.125,0.107,0.168,0.208
			c0.043,0.1,0.074,0.242,0.092,0.424s0.025,0.412,0.025,0.688c0,0.244-0.006,0.45-0.018,0.622c-0.01,0.172-0.029,0.318-0.049,0.441
			c-0.021,0.123-0.055,0.223-0.1,0.307c-0.045,0.082-0.102,0.162-0.174,0.24s-0.27,0.182-0.59,0.312
			c-0.32,0.133-0.73,0.266-1.229,0.391c-0.496,0.127-1.064,0.238-1.709,0.332c-0.641,0.094-1.326,0.141-2.057,0.141
			c-1.316,0-2.467-0.166-3.459-0.498c-0.988-0.332-1.816-0.834-2.48-1.51c-0.662-0.674-1.156-1.526-1.484-2.554
			c-0.326-1.03-0.488-2.234-0.488-3.618c0-1.316,0.172-2.502,0.514-3.561c0.346-1.056,0.842-1.951,1.494-2.688
			s1.445-1.296,2.379-1.685c0.936-0.386,1.988-0.579,3.16-0.579c1.242,0,2.299,0.182,3.18,0.546
			c0.879,0.365,1.602,0.872,2.166,1.518c0.561,0.648,0.979,1.414,1.244,2.298s0.398,1.849,0.398,2.889V19.439L274.455,19.439z
			 M270.406,18.245c0.033-1.172-0.201-2.094-0.705-2.762s-1.283-1.004-2.332-1.004c-0.533,0-0.992,0.1-1.385,0.298
			s-0.719,0.466-0.979,0.804c-0.262,0.336-0.457,0.736-0.598,1.194s-0.219,0.95-0.24,1.468h6.238V18.245z"/>
		<path fill="#181716" d="M288.783,23.088c0,0.84-0.156,1.582-0.471,2.225c-0.316,0.642-0.764,1.179-1.336,1.608
			c-0.576,0.43-1.256,0.754-2.043,0.969c-0.785,0.217-1.635,0.324-2.553,0.324c-0.555,0-1.082-0.043-1.586-0.125
			s-0.955-0.188-1.352-0.312c-0.398-0.125-0.73-0.258-0.996-0.391c-0.268-0.133-0.459-0.256-0.582-0.375
			c-0.121-0.113-0.215-0.297-0.281-0.545c-0.068-0.25-0.1-0.619-0.1-1.104c0-0.322,0.01-0.578,0.031-0.772
			c0.025-0.193,0.057-0.348,0.1-0.464c0.045-0.116,0.102-0.194,0.168-0.231c0.064-0.038,0.148-0.059,0.25-0.059
			c0.121,0,0.299,0.068,0.539,0.208s0.535,0.29,0.887,0.456c0.355,0.166,0.768,0.322,1.234,0.464
			c0.471,0.145,1.004,0.216,1.602,0.216c0.377,0,0.711-0.04,1.004-0.115c0.295-0.076,0.547-0.188,0.766-0.332
			c0.215-0.145,0.379-0.326,0.488-0.549c0.111-0.22,0.168-0.476,0.168-0.762c0-0.332-0.105-0.618-0.309-0.854
			c-0.207-0.238-0.473-0.446-0.812-0.622c-0.338-0.177-0.719-0.343-1.145-0.498c-0.426-0.156-0.863-0.326-1.309-0.515
			c-0.449-0.188-0.885-0.403-1.311-0.646s-0.807-0.542-1.146-0.896c-0.336-0.354-0.607-0.78-0.812-1.278
			c-0.203-0.498-0.305-1.095-0.305-1.792c0-0.708,0.137-1.358,0.414-1.95s0.676-1.098,1.195-1.519c0.52-0.42,1.152-0.747,1.9-0.978
			c0.746-0.231,1.584-0.348,2.514-0.348c0.465,0,0.914,0.034,1.352,0.1c0.438,0.066,0.832,0.15,1.188,0.25
			c0.355,0.099,0.652,0.208,0.895,0.324c0.246,0.116,0.418,0.216,0.523,0.298c0.107,0.082,0.182,0.166,0.227,0.248
			c0.041,0.084,0.074,0.182,0.098,0.298s0.043,0.26,0.057,0.433c0.018,0.172,0.025,0.384,0.025,0.638
			c0,0.298-0.008,0.542-0.025,0.729c-0.016,0.188-0.045,0.336-0.082,0.448c-0.039,0.112-0.092,0.187-0.158,0.224
			c-0.066,0.038-0.145,0.059-0.23,0.059c-0.102,0-0.254-0.059-0.465-0.174c-0.207-0.116-0.473-0.24-0.789-0.374
			c-0.314-0.132-0.68-0.259-1.094-0.374c-0.414-0.116-0.887-0.174-1.418-0.174c-0.377,0-0.705,0.039-0.98,0.115
			c-0.277,0.078-0.504,0.188-0.68,0.332c-0.18,0.145-0.309,0.312-0.398,0.506c-0.09,0.194-0.133,0.402-0.133,0.622
			c0,0.343,0.105,0.63,0.316,0.864c0.207,0.232,0.486,0.437,0.83,0.614c0.342,0.178,0.732,0.342,1.168,0.498
			c0.438,0.156,0.881,0.324,1.328,0.506s0.889,0.396,1.328,0.638c0.436,0.244,0.826,0.542,1.17,0.896
			c0.342,0.354,0.619,0.777,0.828,1.27C288.677,21.831,288.783,22.415,288.783,23.088z"/>
		<path fill="#181716" d="M297.638,14.727c0,0.464-0.041,0.852-0.117,1.161c-0.078,0.311-0.207,0.564-0.391,0.765
			c-0.18,0.199-0.422,0.34-0.719,0.422s-0.676,0.124-1.129,0.124c-0.451,0-0.828-0.042-1.127-0.124
			c-0.295-0.084-0.541-0.225-0.721-0.422c-0.184-0.2-0.305-0.454-0.373-0.765c-0.068-0.31-0.1-0.695-0.1-1.161
			c0-0.477,0.033-0.875,0.1-1.194c0.064-0.322,0.189-0.582,0.373-0.78c0.184-0.2,0.426-0.342,0.721-0.432
			c0.299-0.088,0.676-0.132,1.127-0.132c0.453,0,0.832,0.044,1.129,0.132s0.539,0.231,0.719,0.432c0.186,0.2,0.312,0.458,0.391,0.78
			C297.597,13.852,297.638,14.25,297.638,14.727z M297.638,25.561c0,0.464-0.041,0.853-0.117,1.169
			c-0.078,0.314-0.207,0.572-0.391,0.773c-0.18,0.199-0.422,0.34-0.719,0.422s-0.676,0.123-1.129,0.123
			c-0.451,0-0.828-0.041-1.127-0.123c-0.295-0.082-0.541-0.223-0.721-0.422c-0.184-0.201-0.305-0.459-0.373-0.773
			c-0.066-0.316-0.1-0.705-0.1-1.169c0-0.465,0.033-0.86,0.1-1.187c0.064-0.326,0.189-0.588,0.373-0.788s0.426-0.34,0.721-0.424
			c0.299-0.082,0.676-0.124,1.127-0.124c0.453,0,0.832,0.042,1.129,0.124c0.297,0.084,0.539,0.224,0.719,0.424
			c0.186,0.2,0.312,0.462,0.391,0.788C297.597,24.701,297.638,25.096,297.638,25.561z"/>
		<path fill="#181716" d="M34.736,57.777c0,0.152-0.057,0.275-0.166,0.363c-0.112,0.09-0.286,0.152-0.524,0.191
			c-0.238,0.041-0.59,0.059-1.052,0.059c-0.498,0-0.862-0.02-1.088-0.059c-0.227-0.037-0.386-0.102-0.48-0.191
			c-0.094-0.088-0.14-0.207-0.14-0.363v-1.18c-0.61,0.652-1.302,1.16-2.084,1.527c-0.78,0.367-1.644,0.547-2.596,0.547
			c-0.786,0-1.509-0.102-2.166-0.307c-0.658-0.205-1.227-0.508-1.708-0.912c-0.48-0.404-0.854-0.904-1.12-1.502
			c-0.267-0.6-0.398-1.295-0.398-2.09c0-0.865,0.168-1.615,0.506-2.248c0.338-0.637,0.843-1.162,1.511-1.576
			c0.67-0.416,1.502-0.721,2.498-0.922c0.993-0.201,2.149-0.299,3.466-0.299h1.443v-0.895c0-0.463-0.046-0.873-0.14-1.219
			s-0.248-0.637-0.464-0.871c-0.214-0.234-0.504-0.406-0.864-0.516c-0.359-0.111-0.804-0.164-1.334-0.164
			c-0.698,0-1.32,0.074-1.868,0.23c-0.546,0.154-1.031,0.326-1.454,0.516c-0.42,0.188-0.77,0.359-1.052,0.512
			c-0.282,0.156-0.512,0.234-0.688,0.234c-0.124,0-0.23-0.039-0.324-0.117s-0.172-0.188-0.232-0.332
			c-0.06-0.145-0.107-0.32-0.14-0.531c-0.034-0.209-0.05-0.443-0.05-0.699c0-0.342,0.027-0.613,0.084-0.812
			c0.054-0.199,0.16-0.377,0.313-0.539c0.154-0.162,0.427-0.338,0.812-0.531c0.388-0.195,0.842-0.375,1.361-0.541
			c0.521-0.166,1.087-0.299,1.702-0.406c0.614-0.105,1.246-0.158,1.898-0.158c1.162,0,2.154,0.113,2.978,0.34
			c0.824,0.227,1.502,0.578,2.034,1.047s0.918,1.074,1.162,1.816c0.242,0.738,0.366,1.621,0.366,2.637v9.961H34.736z M30.635,51.437
			h-1.592c-0.676,0-1.25,0.051-1.726,0.148c-0.475,0.102-0.864,0.25-1.16,0.449c-0.298,0.199-0.519,0.441-0.656,0.723
			s-0.208,0.605-0.208,0.969c0,0.621,0.196,1.105,0.588,1.457c0.393,0.357,0.938,0.533,1.634,0.533c0.587,0,1.124-0.146,1.618-0.447
			s0.994-0.736,1.502-1.311V51.437z"/>
		<path fill="#181716" d="M52.715,43.955c0,0.533-0.062,0.924-0.184,1.178c-0.122,0.256-0.272,0.383-0.448,0.383h-1.742
			c0.242,0.266,0.416,0.566,0.522,0.902c0.105,0.336,0.158,0.689,0.158,1.053c0,0.865-0.145,1.627-0.433,2.299
			c-0.288,0.668-0.7,1.23-1.235,1.691c-0.536,0.457-1.185,0.809-1.942,1.043c-0.758,0.238-1.6,0.359-2.53,0.359
			c-0.476,0-0.93-0.059-1.361-0.174c-0.433-0.119-0.765-0.252-0.994-0.406c-0.132,0.143-0.252,0.314-0.358,0.514
			c-0.105,0.199-0.158,0.42-0.158,0.664c0,0.32,0.141,0.584,0.424,0.789c0.282,0.205,0.679,0.316,1.187,0.34l3.602,0.131
			c0.841,0.037,1.591,0.152,2.248,0.357c0.658,0.207,1.21,0.492,1.658,0.865c0.45,0.373,0.792,0.814,1.03,1.336
			c0.238,0.52,0.357,1.111,0.357,1.775c0,0.729-0.161,1.418-0.481,2.064s-0.8,1.209-1.444,1.686
			c-0.64,0.475-1.445,0.852-2.414,1.125c-0.968,0.279-2.098,0.418-3.392,0.418c-1.262,0-2.338-0.102-3.226-0.299
			c-0.891-0.201-1.622-0.475-2.192-0.83c-0.568-0.354-0.984-0.777-1.244-1.27s-0.39-1.031-0.39-1.617
			c0-0.367,0.046-0.715,0.142-1.045c0.094-0.332,0.232-0.65,0.414-0.955c0.182-0.303,0.406-0.594,0.672-0.873
			c0.267-0.275,0.57-0.541,0.912-0.795c-0.474-0.254-0.844-0.602-1.104-1.039c-0.26-0.436-0.388-0.914-0.388-1.434
			c0-0.652,0.148-1.248,0.448-1.785c0.298-0.537,0.686-1.021,1.162-1.453c-0.388-0.387-0.698-0.852-0.93-1.395
			c-0.232-0.543-0.349-1.215-0.349-2.023c0-0.863,0.15-1.633,0.456-2.314c0.306-0.68,0.729-1.256,1.271-1.725
			s1.189-0.828,1.941-1.078s1.582-0.375,2.488-0.375c0.464,0,0.91,0.027,1.336,0.084c0.426,0.053,0.822,0.131,1.188,0.232h4.695
			c0.188,0,0.34,0.121,0.456,0.363C52.658,42.968,52.715,43.378,52.715,43.955z M48.333,59.269c0-0.5-0.2-0.879-0.598-1.145
			c-0.398-0.266-0.946-0.408-1.643-0.432l-2.97-0.082c-0.288,0.209-0.516,0.412-0.688,0.605c-0.173,0.193-0.311,0.377-0.416,0.553
			c-0.106,0.18-0.175,0.352-0.208,0.518c-0.034,0.166-0.049,0.336-0.049,0.514c0,0.551,0.28,0.973,0.839,1.262
			c0.558,0.289,1.346,0.43,2.363,0.43c0.63,0,1.162-0.062,1.595-0.189c0.432-0.127,0.779-0.295,1.044-0.506
			c0.266-0.211,0.453-0.445,0.563-0.707C48.278,59.832,48.333,59.554,48.333,59.269z M47.356,47.457
			c0-0.797-0.223-1.416-0.664-1.859c-0.444-0.441-1.068-0.664-1.876-0.664c-0.41,0-0.771,0.07-1.078,0.207
			c-0.311,0.137-0.568,0.326-0.772,0.562c-0.206,0.238-0.357,0.516-0.458,0.83c-0.1,0.314-0.147,0.643-0.147,0.986
			c0,0.754,0.22,1.348,0.662,1.785c0.443,0.438,1.056,0.654,1.842,0.654c0.42,0,0.786-0.064,1.096-0.201
			c0.308-0.129,0.566-0.312,0.772-0.545s0.359-0.5,0.464-0.803C47.299,48.105,47.356,47.789,47.356,47.457z"/>
		<path fill="#181716" d="M60.458,37.914c0,0.84-0.172,1.422-0.514,1.742c-0.345,0.32-0.98,0.48-1.908,0.48
			c-0.942,0-1.574-0.152-1.9-0.465c-0.325-0.307-0.489-0.867-0.489-1.676c0-0.84,0.17-1.422,0.508-1.75
			c0.336-0.324,0.974-0.488,1.916-0.488c0.928,0,1.558,0.156,1.89,0.473C60.292,36.544,60.458,37.109,60.458,37.914z M60.144,57.726
			c0,0.109-0.034,0.207-0.101,0.289c-0.065,0.082-0.18,0.152-0.34,0.211c-0.162,0.053-0.376,0.098-0.64,0.121
			c-0.265,0.027-0.603,0.043-1.013,0.043c-0.407,0-0.746-0.014-1.012-0.043c-0.266-0.027-0.478-0.068-0.638-0.121
			c-0.16-0.055-0.274-0.125-0.34-0.211c-0.066-0.082-0.101-0.18-0.101-0.289v-14.77c0-0.109,0.034-0.207,0.101-0.289
			c0.065-0.086,0.18-0.156,0.34-0.217s0.374-0.107,0.638-0.139c0.264-0.033,0.604-0.051,1.012-0.051c0.41,0,0.746,0.018,1.013,0.051
			c0.266,0.031,0.478,0.078,0.64,0.139c0.16,0.061,0.274,0.131,0.34,0.217c0.066,0.082,0.101,0.18,0.101,0.289V57.726z"/>
		<path fill="#181716" d="M68.963,57.726c0,0.109-0.034,0.207-0.1,0.289c-0.066,0.082-0.181,0.152-0.34,0.211
			c-0.16,0.055-0.374,0.098-0.639,0.121c-0.264,0.027-0.604,0.043-1.012,0.043c-0.41,0-0.746-0.014-1.012-0.043
			c-0.267-0.027-0.479-0.068-0.638-0.121c-0.16-0.055-0.276-0.125-0.341-0.211c-0.065-0.082-0.102-0.18-0.102-0.289v-21.82
			c0-0.111,0.036-0.209,0.102-0.297c0.064-0.09,0.181-0.162,0.341-0.225c0.159-0.061,0.373-0.107,0.638-0.139
			c0.264-0.033,0.602-0.049,1.012-0.049c0.408,0,0.746,0.016,1.012,0.049c0.267,0.031,0.479,0.078,0.639,0.139
			c0.159,0.062,0.273,0.135,0.34,0.225c0.065,0.088,0.1,0.188,0.1,0.297V57.726z"/>
		<path fill="#181716" d="M87.276,49.894c0,0.508-0.114,0.885-0.34,1.125c-0.227,0.246-0.54,0.367-0.938,0.367h-9.01
			c0,0.629,0.074,1.203,0.224,1.715c0.148,0.518,0.386,0.953,0.712,1.312c0.326,0.361,0.746,0.633,1.263,0.82
			c0.514,0.188,1.13,0.281,1.85,0.281c0.729,0,1.372-0.051,1.924-0.154c0.554-0.107,1.032-0.223,1.437-0.35
			c0.403-0.129,0.737-0.242,1.004-0.348c0.266-0.107,0.481-0.16,0.646-0.16c0.101,0,0.185,0.021,0.25,0.059
			c0.066,0.039,0.122,0.109,0.166,0.207c0.042,0.102,0.074,0.242,0.092,0.426c0.017,0.182,0.024,0.412,0.024,0.688
			c0,0.244-0.006,0.453-0.016,0.625c-0.013,0.172-0.028,0.316-0.051,0.439c-0.021,0.123-0.054,0.225-0.1,0.307
			c-0.042,0.082-0.102,0.164-0.174,0.238c-0.072,0.078-0.269,0.184-0.588,0.316c-0.322,0.133-0.73,0.262-1.229,0.389
			s-1.067,0.236-1.708,0.332c-0.642,0.094-1.328,0.139-2.056,0.139c-1.316,0-2.47-0.164-3.46-0.496s-1.816-0.836-2.48-1.512
			c-0.664-0.672-1.157-1.525-1.483-2.553c-0.326-1.029-0.49-2.234-0.49-3.619c0-1.316,0.172-2.5,0.516-3.559
			c0.343-1.055,0.84-1.949,1.492-2.688c0.652-0.734,1.448-1.295,2.38-1.684c0.937-0.387,1.988-0.582,3.16-0.582
			c1.24,0,2.298,0.184,3.178,0.547c0.88,0.365,1.603,0.875,2.166,1.52c0.564,0.646,0.979,1.412,1.244,2.297
			c0.267,0.887,0.398,1.848,0.398,2.887v0.668H87.276z M83.228,48.701c0.033-1.174-0.202-2.094-0.706-2.764
			c-0.505-0.668-1.28-1.004-2.33-1.004c-0.532,0-0.994,0.1-1.387,0.297c-0.392,0.199-0.718,0.469-0.978,0.805
			c-0.26,0.338-0.458,0.734-0.598,1.195c-0.141,0.461-0.219,0.949-0.24,1.469h6.238V48.701z"/>
		<path fill="#181716" d="M111.638,38.613c0,0.332-0.012,0.613-0.041,0.838c-0.027,0.225-0.072,0.406-0.131,0.541
			c-0.061,0.133-0.131,0.23-0.209,0.297s-0.166,0.1-0.266,0.1h-7.021v5.775h6.59c0.1,0,0.188,0.027,0.266,0.082
			c0.076,0.055,0.145,0.148,0.207,0.283s0.105,0.311,0.133,0.533c0.027,0.221,0.043,0.496,0.043,0.826
			c0,0.332-0.016,0.611-0.043,0.83c-0.027,0.223-0.072,0.404-0.133,0.547c-0.059,0.145-0.129,0.246-0.207,0.309
			c-0.078,0.059-0.166,0.09-0.266,0.09h-6.59v7.996c0,0.123-0.031,0.227-0.098,0.316s-0.188,0.162-0.357,0.223
			c-0.172,0.059-0.396,0.107-0.672,0.141c-0.277,0.033-0.631,0.049-1.061,0.049c-0.422,0-0.773-0.018-1.053-0.049
			c-0.283-0.035-0.51-0.082-0.675-0.141c-0.166-0.061-0.283-0.133-0.355-0.223s-0.108-0.195-0.108-0.316V38.199
			c0-0.486,0.124-0.838,0.374-1.051c0.247-0.215,0.556-0.324,0.919-0.324h10.107c0.1,0,0.188,0.031,0.266,0.09
			c0.076,0.062,0.146,0.16,0.209,0.299s0.105,0.324,0.131,0.553C111.626,37.996,111.638,38.281,111.638,38.613z"/>
		<path fill="#181716" d="M129.455,57.726c0,0.109-0.029,0.207-0.082,0.289c-0.057,0.082-0.152,0.152-0.293,0.211
			c-0.141,0.055-0.322,0.098-0.547,0.121c-0.227,0.027-0.512,0.043-0.855,0.043c-0.365,0-0.662-0.014-0.887-0.043
			c-0.227-0.027-0.406-0.068-0.541-0.121c-0.135-0.055-0.225-0.125-0.283-0.211c-0.053-0.082-0.082-0.18-0.082-0.289v-1.711
			c-0.818,0.887-1.65,1.551-2.496,1.992c-0.848,0.443-1.723,0.664-2.631,0.664c-1.018,0-1.873-0.168-2.561-0.496
			c-0.693-0.332-1.25-0.789-1.676-1.363c-0.428-0.574-0.73-1.242-0.914-2s-0.273-1.701-0.273-2.828v-9.059
			c0-0.109,0.031-0.209,0.09-0.291c0.061-0.084,0.172-0.15,0.332-0.209c0.16-0.055,0.375-0.098,0.646-0.123
			c0.271-0.027,0.607-0.041,1.004-0.041c0.41,0,0.748,0.014,1.014,0.041c0.266,0.029,0.479,0.068,0.639,0.123
			c0.158,0.055,0.273,0.125,0.34,0.209c0.064,0.082,0.1,0.182,0.1,0.291v8.363c0,0.773,0.047,1.367,0.148,1.777
			c0.1,0.41,0.252,0.758,0.457,1.051c0.207,0.293,0.465,0.521,0.781,0.682s0.684,0.24,1.104,0.24c0.533,0,1.064-0.195,1.602-0.58
			c0.537-0.389,1.111-0.951,1.717-1.693v-9.84c0-0.109,0.031-0.209,0.092-0.291c0.061-0.084,0.172-0.15,0.332-0.209
			c0.158-0.055,0.373-0.098,0.639-0.123c0.262-0.025,0.602-0.041,1.012-0.041s0.746,0.014,1.012,0.041
			c0.266,0.029,0.477,0.068,0.629,0.123c0.154,0.055,0.266,0.125,0.332,0.209c0.066,0.082,0.102,0.182,0.102,0.291V57.726z
			 M121.308,37.929c0,0.777-0.146,1.316-0.439,1.621c-0.295,0.307-0.852,0.457-1.668,0.457c-0.832,0-1.389-0.146-1.676-0.441
			c-0.289-0.293-0.434-0.809-0.434-1.551c0-0.795,0.15-1.344,0.449-1.641c0.297-0.297,0.852-0.449,1.66-0.449
			c0.84,0,1.4,0.148,1.684,0.441C121.166,36.656,121.308,37.179,121.308,37.929z M127.794,37.929c0,0.777-0.146,1.316-0.441,1.621
			c-0.293,0.307-0.854,0.457-1.684,0.457c-0.818,0-1.371-0.146-1.658-0.441c-0.291-0.291-0.432-0.809-0.432-1.551
			c0-0.795,0.146-1.344,0.441-1.641c0.293-0.297,0.848-0.449,1.668-0.449c0.826,0,1.385,0.148,1.676,0.441
			C127.652,36.656,127.794,37.179,127.794,37.929z"/>
		<path fill="#181716" d="M148.263,57.726c0,0.109-0.033,0.207-0.1,0.289s-0.178,0.152-0.332,0.211
			c-0.156,0.053-0.369,0.098-0.639,0.121c-0.27,0.027-0.605,0.043-1.004,0.043c-0.41,0-0.75-0.014-1.021-0.043
			c-0.27-0.027-0.482-0.068-0.639-0.121c-0.152-0.055-0.266-0.125-0.328-0.211c-0.07-0.082-0.104-0.18-0.104-0.289v-8.447
			c0-0.717-0.049-1.283-0.154-1.693c-0.107-0.41-0.26-0.762-0.459-1.053c-0.201-0.291-0.459-0.521-0.771-0.682
			c-0.314-0.158-0.684-0.238-1.105-0.238c-0.531,0-1.066,0.193-1.609,0.58c-0.543,0.385-1.105,0.951-1.691,1.691v9.842
			c0,0.109-0.035,0.207-0.102,0.289s-0.18,0.152-0.34,0.211c-0.16,0.055-0.375,0.098-0.637,0.121
			c-0.266,0.029-0.605,0.043-1.016,0.043c-0.406,0-0.746-0.014-1.012-0.043c-0.266-0.027-0.477-0.068-0.637-0.121
			c-0.16-0.055-0.273-0.125-0.34-0.211c-0.066-0.082-0.102-0.18-0.102-0.289v-21.82c0-0.111,0.035-0.209,0.102-0.297
			c0.066-0.09,0.18-0.162,0.34-0.225c0.16-0.061,0.375-0.107,0.637-0.139c0.266-0.033,0.605-0.049,1.012-0.049
			c0.41,0,0.75,0.016,1.016,0.049c0.264,0.033,0.477,0.078,0.637,0.139c0.16,0.062,0.273,0.135,0.34,0.225
			c0.066,0.088,0.102,0.188,0.102,0.297v8.18c0.719-0.707,1.451-1.234,2.197-1.582c0.748-0.352,1.525-0.523,2.332-0.523
			c1.006,0,1.857,0.164,2.545,0.496c0.691,0.332,1.25,0.785,1.676,1.363c0.428,0.574,0.734,1.246,0.922,2.016
			c0.189,0.77,0.283,1.701,0.283,2.793v9.078H148.263z"/>
		<path fill="#181716" d="M162.343,44.302c0,0.396-0.012,0.723-0.033,0.979c-0.023,0.254-0.055,0.453-0.102,0.598
			c-0.041,0.141-0.102,0.242-0.172,0.297c-0.074,0.055-0.164,0.082-0.275,0.082c-0.088,0-0.188-0.02-0.299-0.057
			c-0.109-0.037-0.232-0.08-0.373-0.123c-0.139-0.045-0.291-0.086-0.459-0.125c-0.164-0.039-0.348-0.059-0.545-0.059
			c-0.232,0-0.463,0.047-0.697,0.141s-0.473,0.24-0.721,0.441c-0.25,0.199-0.51,0.463-0.783,0.793
			c-0.27,0.332-0.559,0.742-0.871,1.23v9.223c0,0.113-0.033,0.207-0.1,0.293c-0.066,0.082-0.18,0.152-0.34,0.207
			c-0.16,0.057-0.373,0.098-0.639,0.125c-0.264,0.025-0.604,0.041-1.012,0.041c-0.41,0-0.746-0.014-1.012-0.041
			s-0.479-0.07-0.637-0.125c-0.16-0.055-0.277-0.125-0.342-0.207c-0.064-0.086-0.1-0.18-0.1-0.293V42.921
			c0-0.109,0.027-0.207,0.082-0.289c0.055-0.084,0.154-0.152,0.297-0.207c0.145-0.057,0.328-0.098,0.559-0.125
			c0.225-0.027,0.508-0.043,0.852-0.043c0.355,0,0.648,0.016,0.879,0.043c0.232,0.027,0.412,0.068,0.539,0.125
			c0.127,0.055,0.219,0.123,0.277,0.207c0.055,0.082,0.082,0.18,0.082,0.289v1.844c0.387-0.553,0.752-1.008,1.096-1.367
			c0.342-0.361,0.668-0.645,0.979-0.857c0.309-0.209,0.619-0.357,0.93-0.439c0.309-0.086,0.621-0.125,0.928-0.125
			c0.145,0,0.299,0.008,0.463,0.027c0.168,0.016,0.34,0.043,0.518,0.082c0.176,0.039,0.332,0.082,0.463,0.131
			s0.229,0.104,0.291,0.158c0.061,0.055,0.105,0.117,0.131,0.184c0.027,0.066,0.053,0.156,0.074,0.273
			c0.023,0.117,0.041,0.291,0.051,0.523C162.337,43.589,162.343,43.906,162.343,44.302z"/>
		<path fill="#181716" d="M179.429,57.726c0,0.109-0.029,0.207-0.084,0.289s-0.152,0.152-0.293,0.211
			c-0.135,0.053-0.318,0.098-0.545,0.121c-0.225,0.027-0.512,0.043-0.854,0.043c-0.367,0-0.662-0.014-0.889-0.043
			c-0.225-0.027-0.404-0.068-0.539-0.121c-0.135-0.055-0.227-0.125-0.283-0.211c-0.055-0.082-0.082-0.18-0.082-0.289v-1.711
			c-0.82,0.887-1.652,1.551-2.5,1.992c-0.846,0.443-1.723,0.664-2.627,0.664c-1.018,0-1.873-0.168-2.562-0.496
			c-0.691-0.332-1.25-0.789-1.676-1.363c-0.428-0.574-0.73-1.242-0.914-2c-0.182-0.758-0.273-1.701-0.273-2.828v-9.059
			c0-0.109,0.031-0.209,0.092-0.291c0.059-0.084,0.17-0.15,0.332-0.209c0.16-0.055,0.375-0.098,0.645-0.123
			c0.271-0.025,0.607-0.041,1.004-0.041c0.41,0,0.746,0.014,1.014,0.041c0.266,0.029,0.479,0.068,0.639,0.123
			s0.273,0.125,0.34,0.209c0.066,0.082,0.098,0.182,0.098,0.291v8.363c0,0.773,0.051,1.367,0.152,1.777
			c0.098,0.41,0.25,0.758,0.455,1.051s0.463,0.521,0.783,0.682c0.312,0.16,0.68,0.24,1.102,0.24c0.533,0,1.066-0.195,1.602-0.58
			c0.537-0.389,1.109-0.951,1.719-1.693v-9.84c0-0.109,0.029-0.209,0.09-0.291c0.061-0.084,0.172-0.15,0.332-0.209
			c0.16-0.055,0.375-0.098,0.637-0.123c0.266-0.027,0.605-0.041,1.016-0.041c0.406,0,0.744,0.014,1.012,0.041
			c0.266,0.029,0.473,0.068,0.629,0.123c0.154,0.055,0.264,0.125,0.332,0.209c0.064,0.082,0.1,0.182,0.1,0.291V57.726z"/>
		<path fill="#181716" d="M198.24,57.726c0,0.109-0.035,0.207-0.102,0.289c-0.064,0.082-0.176,0.152-0.33,0.211
			c-0.154,0.053-0.369,0.098-0.639,0.121c-0.27,0.029-0.605,0.043-1.004,0.043c-0.408,0-0.748-0.014-1.02-0.043
			c-0.273-0.027-0.484-0.068-0.639-0.121c-0.154-0.055-0.266-0.125-0.332-0.211c-0.064-0.082-0.1-0.18-0.1-0.289v-8.447
			c0-0.717-0.051-1.283-0.158-1.693c-0.105-0.41-0.256-0.762-0.455-1.053c-0.201-0.291-0.459-0.521-0.773-0.682
			c-0.316-0.158-0.684-0.238-1.104-0.238c-0.533,0-1.068,0.193-1.609,0.58c-0.543,0.385-1.107,0.951-1.693,1.691v9.842
			c0,0.109-0.035,0.207-0.102,0.289s-0.18,0.152-0.34,0.211c-0.16,0.055-0.375,0.098-0.637,0.121
			c-0.266,0.027-0.605,0.043-1.012,0.043c-0.41,0-0.746-0.014-1.014-0.043c-0.266-0.027-0.479-0.068-0.639-0.121
			c-0.16-0.055-0.275-0.125-0.34-0.211c-0.066-0.082-0.102-0.18-0.102-0.289V42.925c0-0.109,0.027-0.209,0.084-0.291
			c0.055-0.084,0.154-0.15,0.299-0.209c0.141-0.055,0.328-0.098,0.555-0.123c0.225-0.025,0.512-0.041,0.855-0.041
			c0.354,0,0.645,0.014,0.879,0.041c0.23,0.029,0.41,0.068,0.539,0.123c0.125,0.055,0.219,0.125,0.273,0.209
			c0.055,0.082,0.084,0.182,0.084,0.291v1.707c0.818-0.883,1.65-1.547,2.498-1.988c0.846-0.443,1.727-0.664,2.645-0.664
			c1.008,0,1.855,0.164,2.547,0.496c0.688,0.332,1.25,0.785,1.676,1.352c0.426,0.57,0.732,1.238,0.922,2
			c0.188,0.766,0.281,1.684,0.281,2.754v9.145H198.24z"/>
		<path fill="#181716" d="M216.154,43.955c0,0.533-0.061,0.924-0.184,1.178c-0.123,0.256-0.27,0.383-0.445,0.383h-1.746
			c0.246,0.266,0.418,0.566,0.523,0.902c0.107,0.336,0.16,0.689,0.16,1.053c0,0.865-0.145,1.627-0.434,2.299
			c-0.287,0.668-0.699,1.23-1.234,1.691c-0.537,0.461-1.184,0.809-1.943,1.043c-0.758,0.238-1.602,0.359-2.531,0.359
			c-0.475,0-0.928-0.059-1.361-0.174c-0.43-0.119-0.762-0.252-0.996-0.406c-0.131,0.143-0.25,0.314-0.355,0.514
			s-0.156,0.42-0.156,0.664c0,0.32,0.139,0.584,0.422,0.789s0.676,0.316,1.188,0.34l3.6,0.131c0.842,0.037,1.59,0.152,2.25,0.357
			c0.656,0.207,1.209,0.492,1.658,0.865c0.447,0.373,0.793,0.814,1.029,1.336c0.236,0.52,0.357,1.111,0.357,1.775
			c0,0.729-0.16,1.418-0.48,2.064s-0.803,1.209-1.445,1.686c-0.641,0.475-1.447,0.852-2.414,1.125
			c-0.967,0.279-2.1,0.418-3.391,0.418c-1.262,0-2.34-0.102-3.229-0.299s-1.619-0.475-2.189-0.83
			c-0.57-0.354-0.984-0.777-1.244-1.27s-0.391-1.031-0.391-1.617c0-0.367,0.045-0.715,0.141-1.045
			c0.094-0.332,0.232-0.65,0.416-0.955c0.182-0.303,0.406-0.594,0.672-0.873c0.266-0.275,0.566-0.541,0.912-0.795
			c-0.477-0.254-0.846-0.602-1.104-1.039c-0.262-0.436-0.391-0.914-0.391-1.434c0-0.652,0.148-1.248,0.449-1.785
			c0.299-0.537,0.688-1.021,1.16-1.453c-0.387-0.387-0.695-0.852-0.928-1.395s-0.35-1.215-0.35-2.023
			c0-0.863,0.152-1.633,0.457-2.314c0.307-0.68,0.727-1.256,1.27-1.725s1.191-0.828,1.943-1.078s1.582-0.375,2.486-0.375
			c0.465,0,0.91,0.027,1.338,0.084c0.426,0.053,0.818,0.131,1.186,0.232h4.699c0.188,0,0.34,0.121,0.455,0.363
			C216.093,42.968,216.154,43.378,216.154,43.955z M211.775,59.269c0-0.5-0.201-0.879-0.6-1.145
			c-0.396-0.266-0.945-0.408-1.643-0.432l-2.969-0.082c-0.289,0.209-0.52,0.412-0.688,0.605c-0.172,0.193-0.311,0.377-0.418,0.553
			c-0.105,0.18-0.172,0.352-0.207,0.518s-0.051,0.336-0.051,0.514c0,0.551,0.281,0.973,0.84,1.262
			c0.557,0.289,1.348,0.43,2.365,0.43c0.631,0,1.162-0.062,1.592-0.189c0.434-0.127,0.781-0.295,1.047-0.506
			s0.453-0.445,0.562-0.707C211.716,59.832,211.775,59.554,211.775,59.269z M210.794,47.457c0-0.797-0.221-1.416-0.664-1.859
			c-0.441-0.441-1.066-0.664-1.875-0.664c-0.41,0-0.77,0.07-1.08,0.207c-0.307,0.137-0.564,0.326-0.771,0.562
			c-0.207,0.238-0.355,0.516-0.457,0.83c-0.1,0.314-0.148,0.643-0.148,0.986c0,0.754,0.219,1.348,0.664,1.785
			c0.443,0.438,1.055,0.654,1.84,0.654c0.422,0,0.787-0.064,1.098-0.201c0.309-0.129,0.566-0.312,0.771-0.545s0.361-0.5,0.463-0.803
			C210.742,48.105,210.794,47.789,210.794,47.457z"/>
	</g>
	<g>
		<path fill="#9FC512" d="M-55.235,46.199c-4.68-2.311-8.529-6.16-10.842-10.84c-0.067-0.139-0.231-0.199-0.376-0.141l-18.903,7.83
			c-0.072,0.033-0.131,0.09-0.16,0.164c-0.03,0.074-0.028,0.156,0.006,0.229c4.43,9.674,12.52,17.762,22.193,22.191
			c0.04,0.02,0.08,0.027,0.122,0.027c0.038,0,0.074-0.008,0.108-0.021c0.074-0.029,0.132-0.088,0.164-0.158l7.83-18.902
			C-55.035,46.433-55.094,46.265-55.235,46.199z"/>
		<path fill="#FFD000" d="M-36.68,47.548c-0.059-0.143-0.218-0.213-0.366-0.166c-2.46,0.84-5.042,1.266-7.664,1.266
			c-2.624,0-5.206-0.426-7.668-1.266c-0.144-0.047-0.304,0.023-0.366,0.166l-9.042,21.834c-0.032,0.072-0.032,0.156,0.002,0.229
			c0.032,0.072,0.09,0.127,0.164,0.158c5.398,2.033,11.086,3.062,16.91,3.062c5.82,0,11.51-1.031,16.906-3.062
			c0.074-0.031,0.134-0.086,0.166-0.158s0.032-0.156,0.002-0.229L-36.68,47.548z"/>
		<path fill="#EF7632" d="M4.778,46.712l-27.752-11.496c-0.143-0.057-0.307,0.004-0.376,0.141c-2.312,4.68-6.162,8.529-10.84,10.84
			c-0.139,0.068-0.202,0.232-0.143,0.377l11.496,27.75c0.03,0.074,0.088,0.133,0.162,0.164c0.036,0.012,0.072,0.02,0.11,0.02
			c0.042,0,0.082-0.008,0.119-0.027c11.998-5.398,21.977-15.379,27.376-27.375c0.034-0.072,0.036-0.154,0.007-0.229
			C4.91,46.802,4.849,46.742,4.778,46.712z"/>
		<path fill="#EF7632" d="M-91.382,3.541l24.939,10.886c0.04,0.017,0.078,0.024,0.118,0.024c0.11,0,0.212-0.061,0.265-0.164
			c2.315-4.676,6.172-8.522,10.852-10.828c0.136-0.068,0.2-0.228,0.145-0.37l-10.36-26.35c-0.03-0.074-0.088-0.135-0.164-0.164
			c-0.074-0.03-0.158-0.028-0.232,0.006C-77.084-18.158-86.457-8.471-91.535,3.155c-0.032,0.072-0.032,0.151-0.004,0.224
			C-91.508,3.451-91.455,3.508-91.382,3.541z"/>
		<path fill="#FFD000" d="M-52.745,2.123c0.061,0.142,0.218,0.214,0.366,0.166c2.462-0.838,5.042-1.264,7.668-1.264
			c2.624,0,5.204,0.424,7.664,1.264c0.032,0.01,0.064,0.016,0.096,0.016c0.116,0,0.225-0.069,0.272-0.182l6.51-15.716
			c0.03-0.074,0.03-0.156-0.002-0.23c-0.034-0.074-0.094-0.13-0.168-0.158c-4.592-1.703-9.426-2.565-14.372-2.565
			c-4.948,0-9.784,0.864-14.374,2.565c-0.076,0.028-0.136,0.084-0.168,0.158c-0.032,0.072-0.034,0.156-0.002,0.23L-52.745,2.123z"/>
		<path fill="#00BAEE" d="M-22,32.869l18.904,7.83c0.036,0.016,0.074,0.023,0.111,0.023c0.042,0,0.08-0.01,0.118-0.025
			c0.074-0.033,0.13-0.092,0.158-0.166c1.876-5.012,2.826-10.293,2.826-15.694c0-5.404-0.952-10.682-2.826-15.693
			c-0.028-0.074-0.084-0.135-0.158-0.166C-2.938,8.945-3.02,8.943-3.094,8.975l-18.904,7.829c-0.142,0.059-0.214,0.219-0.164,0.366
			c0.838,2.462,1.265,5.042,1.265,7.666s-0.427,5.204-1.265,7.667C-22.214,32.648-22.142,32.808-22,32.869z"/>
		<path fill="#9FC512" d="M-34.188,3.472c4.678,2.312,8.527,6.162,10.84,10.841c0.05,0.104,0.153,0.164,0.264,0.164
			c0.038,0,0.074-0.007,0.112-0.022L4.78,2.958c0.074-0.03,0.132-0.088,0.16-0.164C4.969,2.72,4.967,2.638,4.936,2.567
			c-5.4-11.998-15.378-21.979-27.376-27.378c-0.072-0.034-0.154-0.034-0.229-0.005c-0.074,0.028-0.132,0.086-0.164,0.16
			L-34.327,3.096C-34.39,3.241-34.329,3.405-34.188,3.472z"/>
		<path fill="#00BAEE" d="M-67.26,32.5c-0.84-2.461-1.264-5.041-1.264-7.663c0-2.626,0.426-5.208,1.266-7.67
			c0.048-0.148-0.024-0.308-0.168-0.368l-27.91-11.218c-0.074-0.03-0.156-0.028-0.228,0.004c-0.072,0.032-0.129,0.09-0.156,0.166
			c-2.316,6.132-3.492,12.6-3.492,19.218c0,6.617,1.174,13.082,3.49,19.211c0.027,0.074,0.086,0.137,0.158,0.168
			c0.037,0.016,0.075,0.023,0.117,0.023c0.038,0,0.074-0.006,0.112-0.023l27.908-11.482C-67.285,32.806-67.212,32.648-67.26,32.5z"
			/>
	</g>
</g>
</svg>
